STARTFONT 2.3
FONT -FontForge-Roboto-Book-I-Normal--10-100-72-72-P-55-ISO10646-1
SIZE 10 72 72  4
FONTBOUNDINGBOX 20 16 -8 -3
COMMENT "Generated by fontforge, http://fontforge.sourceforge.net"
COMMENT "Copyright 2011 Google Inc. All Rights Reserved."
STARTPROPERTIES 43
FOUNDRY "FontForge"
FAMILY_NAME "Roboto"
WEIGHT_NAME "Book"
SLANT "I"
SETWIDTH_NAME "Normal"
ADD_STYLE_NAME ""
PIXEL_SIZE 10
POINT_SIZE 100
RESOLUTION_X 72
RESOLUTION_Y 72
SPACING "P"
AVERAGE_WIDTH 55
CHARSET_REGISTRY "ISO10646"
CHARSET_ENCODING "1"
FONTNAME_REGISTRY ""
CHARSET_COLLECTIONS "ISO8859-2 ISO8859-5 ISO8859-7 ISO8859-9 ISO8859-4 ISO10646-1"
BITS_PER_PIXEL 4
FONT_NAME "Roboto-Italic"
FACE_NAME "Roboto Italic"
COPYRIGHT "Copyright 2011 Google Inc. All Rights Reserved."
FONT_VERSION "2.137; 2017"
FONT_ASCENT 8
FONT_DESCENT 2
UNDERLINE_POSITION -1
UNDERLINE_THICKNESS 1
X_HEIGHT 4
CAP_HEIGHT 6
DEFAULT_CHAR 1
RAW_ASCENT 750
RAW_DESCENT 250
ITALIC_ANGLE 4992
NORM_SPACE 2
RELATIVE_WEIGHT 40
RELATIVE_SETWIDTH 50
SUPERSCRIPT_X 0
SUPERSCRIPT_Y 4
SUPERSCRIPT_SIZE 6
SUBSCRIPT_X 0
SUBSCRIPT_Y 1
SUBSCRIPT_SIZE 6
FIGURE_WIDTH 6
AVG_LOWERCASE_WIDTH 53
AVG_UPPERCASE_WIDTH 64
ENDPROPERTIES
CHARS 1296
STARTCHAR glyph1.dup1
ENCODING 0
SWIDTH 0 0
DWIDTH 0 0
BBX 1 1 0 0
BITMAP
00
ENDCHAR
STARTCHAR uni0002
ENCODING 2
SWIDTH 0 0
DWIDTH 0 0
BBX 1 1 0 0
BITMAP
00
ENDCHAR
STARTCHAR uni000D
ENCODING 13
SWIDTH 245 0
DWIDTH 2 0
BBX 1 1 0 0
BITMAP
00
ENDCHAR
STARTCHAR space
ENCODING 32
SWIDTH 245 0
DWIDTH 2 0
BBX 1 1 0 0
BITMAP
00
ENDCHAR
STARTCHAR exclam
ENCODING 33
SWIDTH 254 0
DWIDTH 3 0
BBX 3 7 0 0
BITMAP
0950
0B20
0D00
1C00
3900
0000
8400
ENDCHAR
STARTCHAR quotedbl
ENCODING 34
SWIDTH 314 0
DWIDTH 3 0
BBX 3 3 1 5
BITMAP
A640
9810
8900
ENDCHAR
STARTCHAR numbersign
ENCODING 35
SWIDTH 602 0
DWIDTH 6 0
BBX 7 7 0 0
BITMAP
000A0B00
00384700
0CFFFF20
01A1A000
8FFFF600
091A0000
1A290000
ENDCHAR
STARTCHAR dollar
ENCODING 36
SWIDTH 549 0
DWIDTH 6 0
BBX 6 10 0 -1
BITMAP
000100
000B00
02CFA0
0B51C2
0A6031
02BE30
1105B0
8806A0
2CFC20
019000
ENDCHAR
STARTCHAR percent
ENCODING 37
SWIDTH 715 0
DWIDTH 7 0
BBX 6 7 1 0
BITMAP
8E7000
B2B190
BE6910
009200
084CE3
645767
002DD2
ENDCHAR
STARTCHAR ampersand
ENCODING 38
SWIDTH 607 0
DWIDTH 6 0
BBX 6 7 0 0
BITMAP
01CE70
0782C0
05AA40
07E512
682C67
9718E1
2CEBC4
ENDCHAR
STARTCHAR quotesingle
ENCODING 39
SWIDTH 173 0
DWIDTH 2 0
BBX 2 2 0 6
BITMAP
0B
19
ENDCHAR
STARTCHAR parenleft
ENCODING 40
SWIDTH 336 0
DWIDTH 3 0
BBX 4 10 0 -2
BITMAP
0029
01C1
0850
0D00
4A00
6700
6700
4800
1B00
0540
ENDCHAR
STARTCHAR parenright
ENCODING 41
SWIDTH 342 0
DWIDTH 3 0
BBX 4 10 -1 -2
BITMAP
0080
0073
0039
002A
003B
0058
0094
01C0
0940
5500
ENDCHAR
STARTCHAR asterisk
ENCODING 42
SWIDTH 422 0
DWIDTH 4 0
BBX 5 5 0 2
BITMAP
009100
37B740
18F510
1B6600
010100
ENDCHAR
STARTCHAR plus
ENCODING 43
SWIDTH 554 0
DWIDTH 6 0
BBX 6 7 0 0
BITMAP
000100
005900
007600
8FFFF3
00C100
00D000
003000
ENDCHAR
STARTCHAR comma
ENCODING 44
SWIDTH 195 0
DWIDTH 2 0
BBX 3 3 -1 -1
BITMAP
0100
0C10
4700
ENDCHAR
STARTCHAR hyphen
ENCODING 45
SWIDTH 272 0
DWIDTH 3 0
BBX 3 1 0 2
BITMAP
CF80
ENDCHAR
STARTCHAR period
ENCODING 46
SWIDTH 260 0
DWIDTH 3 0
BBX 2 1 0 0
BITMAP
93
ENDCHAR
STARTCHAR slash
ENCODING 47
SWIDTH 404 0
DWIDTH 4 0
BBX 6 8 -1 -1
BITMAP
000093
0002A0
000A20
003900
00A200
039000
0B1000
480000
ENDCHAR
STARTCHAR zero
ENCODING 48
SWIDTH 549 0
DWIDTH 6 0
BBX 6 7 0 0
BITMAP
03CE80
0C51D1
2C00B2
5800D1
6601C0
591970
1BEA10
ENDCHAR
STARTCHAR one
ENCODING 49
SWIDTH 549 0
DWIDTH 6 0
BBX 4 7 1 0
BITMAP
16C1
98D0
02B0
0580
0760
0A30
0D10
ENDCHAR
STARTCHAR two
ENCODING 50
SWIDTH 549 0
DWIDTH 6 0
BBX 6 7 0 0
BITMAP
04DE90
1D31D1
1201C0
002B20
03B200
4B1000
DFFFA0
ENDCHAR
STARTCHAR three
ENCODING 51
SWIDTH 549 0
DWIDTH 6 0
BBX 6 7 0 0
BITMAP
04DE70
0D31D1
0003C0
00FE20
000690
960880
2CEB10
ENDCHAR
STARTCHAR four
ENCODING 52
SWIDTH 549 0
DWIDTH 6 0
BBX 6 7 0 0
BITMAP
0005E0
002CB0
00B690
094760
580940
DFFFF1
000D00
ENDCHAR
STARTCHAR five
ENCODING 53
SWIDTH 549 0
DWIDTH 6 0
BBX 6 7 0 0
BITMAP
03FFF7
076000
0BDE50
0523D0
0000D0
5A17A0
0AEB20
ENDCHAR
STARTCHAR six
ENCODING 54
SWIDTH 549 0
DWIDTH 6 0
BBX 5 7 0 0
BITMAP
005C90
06A200
0DDE40
4D24C0
6700D0
4B1790
0AEB10
ENDCHAR
STARTCHAR seven
ENCODING 55
SWIDTH 549 0
DWIDTH 6 0
BBX 6 7 0 0
BITMAP
1FFFF9
0000A2
000580
001C00
009400
04A000
1C1000
ENDCHAR
STARTCHAR eight
ENCODING 56
SWIDTH 549 0
DWIDTH 6 0
BBX 6 7 0 0
BITMAP
02CE90
0B51C2
0B32C1
07FF30
6915A0
8717A0
2CEB20
ENDCHAR
STARTCHAR nine
ENCODING 57
SWIDTH 549 0
DWIDTH 6 0
BBX 6 7 0 0
BITMAP
04DE60
0D32E0
3A00C1
2D15D0
08EB90
004C20
0DB300
ENDCHAR
STARTCHAR colon
ENCODING 58
SWIDTH 239 0
DWIDTH 2 0
BBX 2 5 0 0
BITMAP
0C
00
00
00
A3
ENDCHAR
STARTCHAR semicolon
ENCODING 59
SWIDTH 209 0
DWIDTH 2 0
BBX 3 6 -1 -1
BITMAP
01C0
0000
0000
0100
0C10
3800
ENDCHAR
STARTCHAR less
ENCODING 60
SWIDTH 498 0
DWIDTH 5 0
BBX 5 4 0 1
BITMAP
002870
4A9400
5B7100
005B00
ENDCHAR
STARTCHAR equal
ENCODING 61
SWIDTH 537 0
DWIDTH 5 0
BBX 5 3 0 2
BITMAP
1FFFE0
000000
6FFF90
ENDCHAR
STARTCHAR greater
ENCODING 62
SWIDTH 511 0
DWIDTH 5 0
BBX 5 4 0 1
BITMAP
0C5000
017B60
049A40
882000
ENDCHAR
STARTCHAR question
ENCODING 63
SWIDTH 462 0
DWIDTH 5 0
BBX 5 7 0 0
BITMAP
07ED30
1A2790
000A50
00A700
049000
000000
092000
ENDCHAR
STARTCHAR at
ENCODING 64
SWIDTH 875 0
DWIDTH 9 0
BBX 9 9 0 -2
BITMAP
0029EEB200
02D6115B00
0B35ED2720
481C290630
83750A0820
A194793B00
835E8DD300
3C20310000
06DEB10000
ENDCHAR
STARTCHAR A
ENCODING 65
SWIDTH 637 0
DWIDTH 6 0
BBX 7 7 -1 0
BITMAP
0000C500
0005B800
000B1B00
00740B00
01EFFF30
08500760
2C000590
ENDCHAR
STARTCHAR B
ENCODING 66
SWIDTH 608 0
DWIDTH 6 0
BBX 6 7 0 0
BITMAP
08FFD3
0B306A
0E0187
1FFFC0
4A00B4
7702D3
9FFD70
ENDCHAR
STARTCHAR C
ENCODING 67
SWIDTH 636 0
DWIDTH 6 0
BBX 7 7 0 0
BITMAP
019EE600
09912D10
1D000310
59000000
68001200
3C11A600
08EE8000
ENDCHAR
STARTCHAR D
ENCODING 68
SWIDTH 641 0
DWIDTH 6 0
BBX 6 7 0 0
BITMAP
08FFB1
0B307A
0E000E
1C001D
490059
7715D2
9FEB30
ENDCHAR
STARTCHAR E
ENCODING 69
SWIDTH 556 0
DWIDTH 6 0
BBX 6 7 0 0
BITMAP
08FFFC
0B3000
0D0000
1FFFC0
4A0000
770000
9FFFB0
ENDCHAR
STARTCHAR F
ENCODING 70
SWIDTH 541 0
DWIDTH 5 0
BBX 6 7 0 0
BITMAP
08FFFB
0B3000
0D0000
1FFFB0
4A0000
770000
940000
ENDCHAR
STARTCHAR G
ENCODING 71
SWIDTH 665 0
DWIDTH 7 0
BBX 7 7 0 0
BITMAP
019EE700
09912D20
1D000100
4908FE00
59002C00
2D218A00
06EEB200
ENDCHAR
STARTCHAR H
ENCODING 72
SWIDTH 696 0
DWIDTH 7 0
BBX 7 7 0 0
BITMAP
085003B0
0B300580
0D000860
1FFFFF30
4A000D10
77001D00
94003A00
ENDCHAR
STARTCHAR I
ENCODING 73
SWIDTH 268 0
DWIDTH 3 0
BBX 3 7 0 0
BITMAP
0760
0A30
0D10
1D00
3B00
6800
8500
ENDCHAR
STARTCHAR J
ENCODING 74
SWIDTH 540 0
DWIDTH 5 0
BBX 6 7 0 0
BITMAP
0000A4
0000D1
0000E0
0003B0
100690
C31C40
5EE800
ENDCHAR
STARTCHAR K
ENCODING 75
SWIDTH 612 0
DWIDTH 6 0
BBX 7 7 0 0
BITMAP
08503C30
0B33C200
0D4C2000
1EE80000
4C1D2000
7705A000
9400B400
ENDCHAR
STARTCHAR L
ENCODING 76
SWIDTH 526 0
DWIDTH 5 0
BBX 5 7 0 0
BITMAP
085000
0B3000
0D0000
1C0000
490000
770000
9FFF80
ENDCHAR
STARTCHAR M
ENCODING 77
SWIDTH 851 0
DWIDTH 9 0
BBX 9 7 0 0
BITMAP
08C0002F50
0BD000AE20
0D9304AD00
1C670C4C00
4A2A685900
770DC17600
940B60A400
ENDCHAR
STARTCHAR N
ENCODING 78
SWIDTH 696 0
DWIDTH 7 0
BBX 7 7 0 0
BITMAP
08A003B0
0BE20580
0E690860
1C0D1B30
4A078D10
7701DD00
95008A00
ENDCHAR
STARTCHAR O
ENCODING 79
SWIDTH 671 0
DWIDTH 7 0
BBX 7 7 0 0
BITMAP
009EE600
09912D10
1D000A40
59000B30
58001D00
2D21A700
07EE8000
ENDCHAR
STARTCHAR P
ENCODING 80
SWIDTH 616 0
DWIDTH 6 0
BBX 7 7 0 0
BITMAP
08FFE700
0B302E10
0D004D00
1FFFC400
49000000
77000000
94000000
ENDCHAR
STARTCHAR Q
ENCODING 81
SWIDTH 671 0
DWIDTH 7 0
BBX 7 8 0 -1
BITMAP
009EE500
09813E00
1C000A30
58000B30
68001D00
3D22B700
08EFB000
0001B300
ENDCHAR
STARTCHAR R
ENCODING 82
SWIDTH 602 0
DWIDTH 6 0
BBX 6 7 0 0
BITMAP
09FFD4
0B304C
0D017A
2FFFB1
490770
7702C0
9400C3
ENDCHAR
STARTCHAR S
ENCODING 83
SWIDTH 580 0
DWIDTH 6 0
BBX 6 7 0 0
BITMAP
03CEC2
0D406A
0D5002
02BE60
2002D2
A603D1
2BFD50
ENDCHAR
STARTCHAR T
ENCODING 84
SWIDTH 583 0
DWIDTH 6 0
BBX 7 7 0 0
BITMAP
2FFFFF30
001D0000
004A0000
00670000
00950000
00C20000
00D00000
ENDCHAR
STARTCHAR U
ENCODING 85
SWIDTH 633 0
DWIDTH 6 0
BBX 7 7 0 0
BITMAP
0A300950
0D100C20
1D000E00
3A002C00
68005900
5B12C400
0AED6000
ENDCHAR
STARTCHAR V
ENCODING 86
SWIDTH 622 0
DWIDTH 6 0
BBX 7 7 0 0
BITMAP
2D000870
0D101D00
0A309600
0762C000
04995000
01CC0000
00D50000
ENDCHAR
STARTCHAR W
ENCODING 87
SWIDTH 865 0
DWIDTH 9 0
BBX 8 7 1 0
BITMAP
D009701D
D01D8077
D077A0C1
C2C0B3A0
A870B940
9D10BC00
89009700
ENDCHAR
STARTCHAR X
ENCODING 88
SWIDTH 612 0
DWIDTH 6 0
BBX 7 7 0 0
BITMAP
0C402D20
04B0C400
00CB7000
008D0000
04CC2000
2D269000
C500D200
ENDCHAR
STARTCHAR Y
ENCODING 89
SWIDTH 587 0
DWIDTH 6 0
BBX 7 7 0 0
BITMAP
1D001D30
09509600
04A5B000
00DC1000
00A50000
00C20000
00E00000
ENDCHAR
STARTCHAR Z
ENCODING 90
SWIDTH 585 0
DWIDTH 6 0
BBX 7 7 -1 0
BITMAP
00DFFFE0
00000A50
0000A600
00097000
00880000
07900000
1FFFFF00
ENDCHAR
STARTCHAR bracketleft
ENCODING 91
SWIDTH 262 0
DWIDTH 3 0
BBX 4 10 0 -2
BITMAP
09F4
0B30
0D10
0D00
3B00
5800
7600
9400
C100
ED00
ENDCHAR
STARTCHAR backslash
ENCODING 92
SWIDTH 402 0
DWIDTH 4 0
BBX 3 8 1 -1
BITMAP
C000
B100
9300
6600
3900
0C00
0C00
0930
ENDCHAR
STARTCHAR bracketright
ENCODING 93
SWIDTH 262 0
DWIDTH 3 0
BBX 4 10 -1 -2
BITMAP
03F9
0066
0094
00B2
00D0
01C0
03A0
0680
0850
9F30
ENDCHAR
STARTCHAR asciicircum
ENCODING 94
SWIDTH 410 0
DWIDTH 4 0
BBX 4 3 0 4
BITMAP
01D2
09A6
491A
ENDCHAR
STARTCHAR underscore
ENCODING 95
SWIDTH 442 0
DWIDTH 4 0
BBX 5 1 -1 -1
BITMAP
8FFFC0
ENDCHAR
STARTCHAR grave
ENCODING 96
SWIDTH 304 0
DWIDTH 3 0
BBX 2 2 1 6
BITMAP
B4
47
ENDCHAR
STARTCHAR a
ENCODING 97
SWIDTH 532 0
DWIDTH 5 0
BBX 5 5 0 0
BITMAP
08EE40
1615A0
2BEF80
A71950
5EDC40
ENDCHAR
STARTCHAR b
ENCODING 98
SWIDTH 549 0
DWIDTH 6 0
BBX 5 8 0 0
BITMAP
094000
0C2000
0E0000
2ECE60
4C22D0
7700D0
981790
BAEC10
ENDCHAR
STARTCHAR c
ENCODING 99
SWIDTH 512 0
DWIDTH 5 0
BBX 5 5 0 0
BITMAP
06EE50
4C2390
850000
881540
1CEA10
ENDCHAR
STARTCHAR d
ENCODING 100
SWIDTH 551 0
DWIDTH 6 0
BBX 6 8 0 0
BITMAP
000067
000085
0000A3
08ECD0
4C12C0
8502A0
871880
2DEC50
ENDCHAR
STARTCHAR e
ENCODING 101
SWIDTH 518 0
DWIDTH 5 0
BBX 5 5 0 0
BITMAP
06ED40
4C13B0
8FFFC0
770210
1BFB20
ENDCHAR
STARTCHAR f
ENCODING 102
SWIDTH 341 0
DWIDTH 3 0
BBX 5 8 0 0
BITMAP
009E10
03C100
077000
6FF600
0B2000
0D0000
2C0000
590000
ENDCHAR
STARTCHAR g
ENCODING 103
SWIDTH 549 0
DWIDTH 6 0
BBX 6 7 0 -2
BITMAP
08ECC2
4C23E0
8502B0
871990
2DEC60
412D20
7ED600
ENDCHAR
STARTCHAR h
ENCODING 104
SWIDTH 539 0
DWIDTH 5 0
BBX 5 8 0 0
BITMAP
094000
0C2000
0E0000
2EBE60
4D34B0
7803A0
950670
B20940
ENDCHAR
STARTCHAR i
ENCODING 105
SWIDTH 240 0
DWIDTH 2 0
BBX 3 7 0 0
BITMAP
0830
0000
0D00
2B00
5900
7600
A300
ENDCHAR
STARTCHAR j
ENCODING 106
SWIDTH 236 0
DWIDTH 2 0
BBX 5 9 -2 -2
BITMAP
000930
000000
000D00
003B00
006800
009500
00B300
02E000
2E8000
ENDCHAR
STARTCHAR k
ENCODING 107
SWIDTH 496 0
DWIDTH 5 0
BBX 5 8 0 0
BITMAP
094000
0C2000
0E0000
2C0980
4AA600
7ED100
957800
B20C20
ENDCHAR
STARTCHAR l
ENCODING 108
SWIDTH 240 0
DWIDTH 2 0
BBX 3 8 0 0
BITMAP
0850
0B20
0D00
1D00
3A00
5800
8500
A300
ENDCHAR
STARTCHAR m
ENCODING 109
SWIDTH 854 0
DWIDTH 9 0
BBX 8 5 0 0
BITMAP
1ECE8BE8
3D24E32D
6803A01C
95067049
C2094076
ENDCHAR
STARTCHAR n
ENCODING 110
SWIDTH 540 0
DWIDTH 5 0
BBX 5 5 0 0
BITMAP
1DBE60
3D34B0
6803A0
950670
B20940
ENDCHAR
STARTCHAR o
ENCODING 111
SWIDTH 558 0
DWIDTH 6 0
BBX 6 5 0 0
BITMAP
07EE60
4C23E0
8500D1
7916B0
1BFB10
ENDCHAR
STARTCHAR p
ENCODING 112
SWIDTH 549 0
DWIDTH 6 0
BBX 6 7 -1 -2
BITMAP
01DCE6
03C22D
06700D
097189
0BAEC1
0D0000
2C0000
ENDCHAR
STARTCHAR q
ENCODING 113
SWIDTH 556 0
DWIDTH 6 0
BBX 6 7 0 -2
BITMAP
07EDD2
4C22E0
8502B0
871880
2DEC60
000A30
000D00
ENDCHAR
STARTCHAR r
ENCODING 114
SWIDTH 333 0
DWIDTH 3 0
BBX 4 5 0 0
BITMAP
1DB7
3D20
6800
9500
B200
ENDCHAR
STARTCHAR s
ENCODING 115
SWIDTH 504 0
DWIDTH 5 0
BBX 5 5 0 0
BITMAP
09ED30
2D4440
07CD10
631B40
4DE900
ENDCHAR
STARTCHAR t
ENCODING 116
SWIDTH 321 0
DWIDTH 3 0
BBX 4 6 0 0
BITMAP
0860
9FF2
0C10
1C00
3A00
2E50
ENDCHAR
STARTCHAR u
ENCODING 117
SWIDTH 539 0
DWIDTH 5 0
BBX 6 5 0 0
BITMAP
0D00C1
2A01D0
5804A0
781A80
3DED50
ENDCHAR
STARTCHAR v
ENCODING 118
SWIDTH 474 0
DWIDTH 5 0
BBX 5 5 0 0
BITMAP
5704A0
2A0B20
0C4900
0BB100
088000
ENDCHAR
STARTCHAR w
ENCODING 119
SWIDTH 733 0
DWIDTH 7 0
BBX 8 5 0 0
BITMAP
580970A4
392C92B0
1A93A840
0DA0BB00
0D30B500
ENDCHAR
STARTCHAR x
ENCODING 120
SWIDTH 485 0
DWIDTH 5 0
BBX 6 5 -1 0
BITMAP
02C088
0099A0
004E10
02CA50
1C32C0
ENDCHAR
STARTCHAR y
ENCODING 121
SWIDTH 463 0
DWIDTH 5 0
BBX 6 7 -1 -2
BITMAP
06805A
03A0C2
00C580
00BC10
009700
03D100
6E4000
ENDCHAR
STARTCHAR z
ENCODING 122
SWIDTH 485 0
DWIDTH 5 0
BBX 5 5 0 0
BITMAP
3FFFA0
003B20
04B100
6A0000
FFFF10
ENDCHAR
STARTCHAR braceleft
ENCODING 123
SWIDTH 333 0
DWIDTH 3 0
BBX 4 10 0 -2
BITMAP
0068
02C0
0680
1B40
AA00
2D00
0D00
1C00
0D00
0650
ENDCHAR
STARTCHAR bar
ENCODING 124
SWIDTH 241 0
DWIDTH 2 0
BBX 3 8 0 -1
BITMAP
0920
0B00
0B00
1900
4700
6400
9200
B000
ENDCHAR
STARTCHAR braceright
ENCODING 125
SWIDTH 333 0
DWIDTH 3 0
BBX 4 10 -1 -2
BITMAP
01A1
0085
0094
0095
005F
00D2
03B0
0590
0A40
6700
ENDCHAR
STARTCHAR asciitilde
ENCODING 126
SWIDTH 664 0
DWIDTH 7 0
BBX 6 2 0 2
BITMAP
1CE71A
562BE7
ENDCHAR
STARTCHAR uni00A0
ENCODING 160
SWIDTH 245 0
DWIDTH 2 0
BBX 1 1 0 0
BITMAP
00
ENDCHAR
STARTCHAR exclamdown
ENCODING 161
SWIDTH 241 0
DWIDTH 2 0
BBX 2 7 0 -2
BITMAP
0C
00
39
67
94
C2
E0
ENDCHAR
STARTCHAR cent
ENCODING 162
SWIDTH 535 0
DWIDTH 5 0
BBX 5 9 0 -2
BITMAP
000100
003A00
06EE60
3C22B0
860000
781750
2DFA10
049000
011000
ENDCHAR
STARTCHAR sterling
ENCODING 163
SWIDTH 568 0
DWIDTH 6 0
BBX 6 7 0 0
BITMAP
009ED3
05B167
095000
7FFB00
0D1000
3C0000
FFFFD0
ENDCHAR
STARTCHAR currency
ENCODING 164
SWIDTH 696 0
DWIDTH 7 0
BBX 7 6 0 0
BITMAP
0C9ED9A0
0B813E30
3A000950
58000B20
4D318B00
98EE9B00
ENDCHAR
STARTCHAR yen
ENCODING 165
SWIDTH 514 0
DWIDTH 5 0
BBX 6 7 0 0
BITMAP
1E0097
0B34D0
078D50
03FB00
6FFF90
9FFF50
049000
ENDCHAR
STARTCHAR brokenbar
ENCODING 166
SWIDTH 237 0
DWIDTH 2 0
BBX 3 8 0 -1
BITMAP
0A30
0C10
0D00
2B00
0000
7600
B300
D000
ENDCHAR
STARTCHAR section
ENCODING 167
SWIDTH 599 0
DWIDTH 6 0
BBX 7 9 -1 -2
BITMAP
003BEC30
00C516A0
00B82010
02BADA00
08700B40
02DCAB00
0103A700
1E218800
06EEA100
ENDCHAR
STARTCHAR dieresis
ENCODING 168
SWIDTH 410 0
DWIDTH 4 0
BBX 4 1 1 6
BITMAP
B0B1
ENDCHAR
STARTCHAR copyright
ENCODING 169
SWIDTH 767 0
DWIDTH 8 0
BBX 8 7 0 0
BITMAP
006DFB20
089214C0
294DE554
63B21144
547ED2A1
1C303A60
03CFC500
ENDCHAR
STARTCHAR ordfeminine
ENCODING 170
SWIDTH 438 0
DWIDTH 4 0
BBX 4 4 1 3
BITMAP
5EB0
00B1
AFE0
CDC0
ENDCHAR
STARTCHAR guillemotleft
ENCODING 171
SWIDTH 459 0
DWIDTH 5 0
BBX 5 4 0 1
BITMAP
057A20
3A9400
57B100
0A3700
ENDCHAR
STARTCHAR logicalnot
ENCODING 172
SWIDTH 541 0
DWIDTH 5 0
BBX 5 2 0 2
BITMAP
5FFF90
000670
ENDCHAR
STARTCHAR uni00AD
ENCODING 173
SWIDTH 272 0
DWIDTH 3 0
BBX 3 1 0 2
BITMAP
CF80
ENDCHAR
STARTCHAR registered
ENCODING 174
SWIDTH 767 0
DWIDTH 8 0
BBX 8 7 0 0
BITMAP
006DFC20
089214C0
283FE564
636FF244
649183A1
1C413A60
04CFC500
ENDCHAR
STARTCHAR macron
ENCODING 175
SWIDTH 449 0
DWIDTH 5 0
BBX 4 1 1 6
BITMAP
BFF7
ENDCHAR
STARTCHAR degree
ENCODING 176
SWIDTH 367 0
DWIDTH 4 0
BBX 3 3 1 4
BITMAP
6E40
A480
8E30
ENDCHAR
STARTCHAR plusminus
ENCODING 177
SWIDTH 522 0
DWIDTH 5 0
BBX 5 6 0 0
BITMAP
004800
007500
6FFFE0
00B100
000000
BFFF30
ENDCHAR
STARTCHAR uni00B2
ENCODING 178
SWIDTH 360 0
DWIDTH 4 0
BBX 4 4 0 3
BITMAP
0BE5
1485
1950
7FF5
ENDCHAR
STARTCHAR uni00B3
ENCODING 179
SWIDTH 360 0
DWIDTH 4 0
BBX 4 4 0 3
BITMAP
08E6
05F3
1185
3ED1
ENDCHAR
STARTCHAR acute
ENCODING 180
SWIDTH 309 0
DWIDTH 3 0
BBX 3 2 1 6
BITMAP
3D10
A300
ENDCHAR
STARTCHAR mu
ENCODING 181
SWIDTH 554 0
DWIDTH 6 0
BBX 7 7 -1 -2
BITMAP
00D00C10
02B00D00
05803B00
07A19800
0ADEC500
0D100000
1D000000
ENDCHAR
STARTCHAR paragraph
ENCODING 182
SWIDTH 479 0
DWIDTH 5 0
BBX 5 7 0 0
BITMAP
04DF90
1FFF70
4FFF40
1EFF10
027E00
002B00
005900
ENDCHAR
STARTCHAR periodcentered
ENCODING 183
SWIDTH 257 0
DWIDTH 3 0
BBX 2 1 0 3
BITMAP
1B
ENDCHAR
STARTCHAR cedilla
ENCODING 184
SWIDTH 245 0
DWIDTH 2 0
BBX 3 2 -1 -2
BITMAP
0B20
4D20
ENDCHAR
STARTCHAR uni00B9
ENCODING 185
SWIDTH 360 0
DWIDTH 4 0
BBX 2 4 1 3
BITMAP
3B
AB
1A
47
ENDCHAR
STARTCHAR ordmasculine
ENCODING 186
SWIDTH 445 0
DWIDTH 4 0
BBX 4 4 1 3
BITMAP
5EC1
C294
D1B2
8E90
ENDCHAR
STARTCHAR guillemotright
ENCODING 187
SWIDTH 459 0
DWIDTH 5 0
BBX 5 4 0 1
BITMAP
195500
084B10
0A5A00
85A100
ENDCHAR
STARTCHAR onequarter
ENCODING 188
SWIDTH 715 0
DWIDTH 7 0
BBX 7 7 0 0
BITMAP
04900000
1D901800
03719100
06593C50
00949B10
0639FF70
00000B00
ENDCHAR
STARTCHAR onehalf
ENCODING 189
SWIDTH 757 0
DWIDTH 8 0
BBX 7 7 0 0
BITMAP
04900000
1D903700
03729000
07696E80
01918590
08107800
0004FF90
ENDCHAR
STARTCHAR threequarters
ENCODING 190
SWIDTH 759 0
DWIDTH 8 0
BBX 7 7 0 0
BITMAP
06EA0000
07F60550
15494800
0BE787B0
00297880
0093FFD0
00000840
ENDCHAR
STARTCHAR questiondown
ENCODING 191
SWIDTH 463 0
DWIDTH 5 0
BBX 5 7 -1 -2
BITMAP
000A10
000000
003B00
02C300
0C2000
2D1670
0AEC20
ENDCHAR
STARTCHAR Agrave
ENCODING 192
SWIDTH 637 0
DWIDTH 6 0
BBX 7 10 -1 0
BITMAP
0001D100
00007400
00000000
0000C500
0005B800
000B1B00
00740B00
01EFFF30
08500760
2C000590
ENDCHAR
STARTCHAR Aacute
ENCODING 193
SWIDTH 637 0
DWIDTH 6 0
BBX 7 10 -1 0
BITMAP
00000B60
00004900
00000000
0000C500
0005B800
000B1B00
00740B00
01EFFF30
08500760
2C000590
ENDCHAR
STARTCHAR Acircumflex
ENCODING 194
SWIDTH 637 0
DWIDTH 6 0
BBX 7 10 -1 0
BITMAP
0001AB20
00069770
00000000
0000C500
0005B800
000B1B00
00740B00
01EFFF30
08500760
2C000590
ENDCHAR
STARTCHAR Atilde
ENCODING 195
SWIDTH 637 0
DWIDTH 6 0
BBX 7 10 -1 0
BITMAP
0004D3A0
00093C60
00000000
0000C500
0005B800
000B1B00
00740B00
01EFFF30
08500760
2C000590
ENDCHAR
STARTCHAR Adieresis
ENCODING 196
SWIDTH 637 0
DWIDTH 6 0
BBX 7 9 -1 0
BITMAP
00057480
00000000
0000C500
0005B800
000B1B00
00740B00
01EFFF30
08500760
2C000590
ENDCHAR
STARTCHAR Aring
ENCODING 197
SWIDTH 637 0
DWIDTH 6 0
BBX 7 11 -1 0
BITMAP
00008C00
00009720
00009C00
00000000
0000C500
0005B800
000B1B00
00740B00
01EFFF30
08500760
2C000590
ENDCHAR
STARTCHAR AE
ENCODING 198
SWIDTH 911 0
DWIDTH 9 0
BBX 11 7 -1 0
BITMAP
000009FFFF40
00005AD00000
0003A3B00000
001A16FFF500
00AFFF700000
077009400000
4C000BFFF700
ENDCHAR
STARTCHAR Ccedilla
ENCODING 199
SWIDTH 636 0
DWIDTH 6 0
BBX 7 9 0 -2
BITMAP
019EE600
09912D10
1D000310
59000000
68001200
3C11A600
08EE8000
00940000
01E40000
ENDCHAR
STARTCHAR Egrave
ENCODING 200
SWIDTH 556 0
DWIDTH 6 0
BBX 6 10 0 0
BITMAP
003B00
000A10
000000
08FFFC
0B3000
0D0000
1FFFC0
4A0000
770000
9FFFB0
ENDCHAR
STARTCHAR Eacute
ENCODING 201
SWIDTH 556 0
DWIDTH 6 0
BBX 6 10 0 0
BITMAP
0001D2
000760
000000
08FFFC
0B3000
0D0000
1FFFC0
4A0000
770000
9FFFB0
ENDCHAR
STARTCHAR Ecircumflex
ENCODING 202
SWIDTH 556 0
DWIDTH 6 0
BBX 6 10 0 0
BITMAP
002BA0
00A5B3
000000
08FFFC
0B3000
0D0000
1FFFC0
4A0000
770000
9FFFB0
ENDCHAR
STARTCHAR Edieresis
ENCODING 203
SWIDTH 556 0
DWIDTH 6 0
BBX 6 9 0 0
BITMAP
008384
000000
08FFFC
0B3000
0D0000
1FFFC0
4A0000
770000
9FFFB0
ENDCHAR
STARTCHAR Igrave
ENCODING 204
SWIDTH 268 0
DWIDTH 3 0
BBX 3 10 0 0
BITMAP
0C20
0560
0000
0760
0A30
0D10
1D00
3B00
6800
8500
ENDCHAR
STARTCHAR Iacute
ENCODING 205
SWIDTH 268 0
DWIDTH 3 0
BBX 4 10 0 0
BITMAP
0098
02B0
0000
0760
0A30
0D10
1D00
3B00
6800
8500
ENDCHAR
STARTCHAR Icircumflex
ENCODING 206
SWIDTH 268 0
DWIDTH 3 0
BBX 4 10 0 0
BITMAP
09C3
4B59
0000
0760
0A30
0D10
1D00
3B00
6800
8500
ENDCHAR
STARTCHAR Idieresis
ENCODING 207
SWIDTH 268 0
DWIDTH 3 0
BBX 4 9 0 0
BITMAP
392A
0000
0760
0A30
0D10
1D00
3B00
6800
8500
ENDCHAR
STARTCHAR Eth
ENCODING 208
SWIDTH 655 0
DWIDTH 7 0
BBX 7 7 0 0
BITMAP
06FFC300
09505C00
0C200D10
DFF20D10
1C003C00
4904D400
7FEC4000
ENDCHAR
STARTCHAR Ntilde
ENCODING 209
SWIDTH 696 0
DWIDTH 7 0
BBX 7 10 0 0
BITMAP
001D5910
00569A00
00000000
08A003B0
0BE20580
0E690860
1C0D1B30
4A078D10
7701DD00
95008A00
ENDCHAR
STARTCHAR Ograve
ENCODING 210
SWIDTH 671 0
DWIDTH 7 0
BBX 7 10 0 0
BITMAP
000C3000
00056000
00000000
009EE600
09912D10
1D000A40
59000B30
58001D00
2D21A700
07EE8000
ENDCHAR
STARTCHAR Oacute
ENCODING 211
SWIDTH 671 0
DWIDTH 7 0
BBX 7 10 0 0
BITMAP
00009800
0002B000
00000000
009EE600
09912D10
1D000A40
59000B30
58001D00
2D21A700
07EE8000
ENDCHAR
STARTCHAR Ocircumflex
ENCODING 212
SWIDTH 671 0
DWIDTH 7 0
BBX 7 10 0 0
BITMAP
0008C300
004B5900
00000000
009EE600
09912D10
1D000A40
59000B30
58001D00
2D21A700
07EE8000
ENDCHAR
STARTCHAR Otilde
ENCODING 213
SWIDTH 671 0
DWIDTH 7 0
BBX 7 10 0 0
BITMAP
002D4A00
0065A900
00000000
009EE600
09912D10
1D000A40
59000B30
58001D00
2D21A700
07EE8000
ENDCHAR
STARTCHAR Odieresis
ENCODING 214
SWIDTH 671 0
DWIDTH 7 0
BBX 7 9 0 0
BITMAP
00292A00
00000000
009EE600
09912D10
1D000A40
59000B30
58001D00
2D21A700
07EE8000
ENDCHAR
STARTCHAR multiply
ENCODING 215
SWIDTH 521 0
DWIDTH 5 0
BBX 5 4 0 1
BITMAP
1B13A0
05CB10
09C900
850930
ENDCHAR
STARTCHAR Oslash
ENCODING 216
SWIDTH 671 0
DWIDTH 7 0
BBX 7 9 0 -1
BITMAP
00000020
008EE960
09913F20
1D01A940
59092B30
67831E00
3D62B800
3CED8000
30000000
ENDCHAR
STARTCHAR Ugrave
ENCODING 217
SWIDTH 633 0
DWIDTH 6 0
BBX 7 10 0 0
BITMAP
001D1000
00073000
00000000
0A300950
0D100C20
1D000E00
3A002C00
68005900
5B12C400
0AED6000
ENDCHAR
STARTCHAR Uacute
ENCODING 218
SWIDTH 633 0
DWIDTH 6 0
BBX 7 10 0 0
BITMAP
0000C500
00049000
00000000
0A300950
0D100C20
1D000E00
3A002C00
68005900
5B12C400
0AED6000
ENDCHAR
STARTCHAR Ucircumflex
ENCODING 219
SWIDTH 633 0
DWIDTH 6 0
BBX 7 10 0 0
BITMAP
001AB100
00797600
00000000
0A300950
0D100C20
1D000E00
3A002C00
68005900
5B12C400
0AED6000
ENDCHAR
STARTCHAR Udieresis
ENCODING 220
SWIDTH 633 0
DWIDTH 6 0
BBX 7 9 0 0
BITMAP
00575700
00000000
0A300950
0D100C20
1D000E00
3A002C00
68005900
5B12C400
0AED6000
ENDCHAR
STARTCHAR Yacute
ENCODING 221
SWIDTH 587 0
DWIDTH 6 0
BBX 7 10 0 0
BITMAP
0002D200
00075000
00000000
1D001D30
09509600
04A5B000
00DC1000
00A50000
00C20000
00E00000
ENDCHAR
STARTCHAR Thorn
ENCODING 222
SWIDTH 578 0
DWIDTH 6 0
BBX 6 7 0 0
BITMAP
094000
0BFEA0
0C01A5
2A02C4
4FFD60
760000
930000
ENDCHAR
STARTCHAR germandbls
ENCODING 223
SWIDTH 581 0
DWIDTH 6 0
BBX 6 8 0 0
BITMAP
03DE60
0A63B0
0D0570
2C0C10
490B20
7701B0
9522D1
C4DE70
ENDCHAR
STARTCHAR agrave
ENCODING 224
SWIDTH 532 0
DWIDTH 5 0
BBX 5 8 0 0
BITMAP
00A500
003800
000000
08EE40
1615A0
2BEF80
A71950
5EDC40
ENDCHAR
STARTCHAR aacute
ENCODING 225
SWIDTH 532 0
DWIDTH 5 0
BBX 5 8 0 0
BITMAP
0007A0
001B10
000000
08EE40
1615A0
2BEF80
A71950
5EDC40
ENDCHAR
STARTCHAR acircumflex
ENCODING 226
SWIDTH 532 0
DWIDTH 5 0
BBX 5 8 0 0
BITMAP
007D40
02D3B0
000000
08EE40
1615A0
2BEF80
A71950
5EDC40
ENDCHAR
STARTCHAR atilde
ENCODING 227
SWIDTH 532 0
DWIDTH 5 0
BBX 6 8 0 0
BITMAP
01D691
0469B0
000000
08EE40
1615A0
2BEF80
A71950
5EDC40
ENDCHAR
STARTCHAR adieresis
ENCODING 228
SWIDTH 532 0
DWIDTH 5 0
BBX 5 7 0 0
BITMAP
01B0B0
000000
08EE40
1615A0
2BEF80
A71950
5EDC40
ENDCHAR
STARTCHAR aring
ENCODING 229
SWIDTH 532 0
DWIDTH 5 0
BBX 5 9 0 0
BITMAP
003E30
008470
004E20
000000
08EE40
1615A0
2BEF80
A71950
5EDC40
ENDCHAR
STARTCHAR ae
ENCODING 230
SWIDTH 823 0
DWIDTH 8 0
BBX 8 5 0 0
BITMAP
0AED7DE4
1517D22C
4DFFFFFD
C52B8110
7ED6BED3
ENDCHAR
STARTCHAR ccedilla
ENCODING 231
SWIDTH 512 0
DWIDTH 5 0
BBX 5 7 0 -2
BITMAP
06EE50
4C2390
850000
881540
1CEA10
049000
0A8000
ENDCHAR
STARTCHAR egrave
ENCODING 232
SWIDTH 518 0
DWIDTH 5 0
BBX 5 8 0 0
BITMAP
00C300
004600
000000
06ED40
4C13B0
8FFFC0
770210
1BFB20
ENDCHAR
STARTCHAR eacute
ENCODING 233
SWIDTH 518 0
DWIDTH 5 0
BBX 5 8 0 0
BITMAP
000980
002B00
000000
06ED40
4C13B0
8FFFC0
770210
1BFB20
ENDCHAR
STARTCHAR ecircumflex
ENCODING 234
SWIDTH 518 0
DWIDTH 5 0
BBX 5 8 0 0
BITMAP
008C30
04C490
000000
06ED40
4C13B0
8FFFC0
770210
1BFB20
ENDCHAR
STARTCHAR edieresis
ENCODING 235
SWIDTH 518 0
DWIDTH 5 0
BBX 5 7 0 0
BITMAP
0292A0
000000
06ED40
4C13B0
8FFFC0
770210
1BFB20
ENDCHAR
STARTCHAR igrave
ENCODING 236
SWIDTH 244 0
DWIDTH 2 0
BBX 3 8 0 0
BITMAP
3B00
0A10
0000
0D00
2B00
5900
8600
A300
ENDCHAR
STARTCHAR iacute
ENCODING 237
SWIDTH 244 0
DWIDTH 2 0
BBX 4 8 0 0
BITMAP
01D2
0760
0000
0D00
2B00
5900
8600
A300
ENDCHAR
STARTCHAR icircumflex
ENCODING 238
SWIDTH 244 0
DWIDTH 2 0
BBX 4 8 0 0
BITMAP
2BA0
A5B3
0000
0D00
2B00
5900
8600
A300
ENDCHAR
STARTCHAR idieresis
ENCODING 239
SWIDTH 244 0
DWIDTH 2 0
BBX 4 7 0 0
BITMAP
8384
0000
0D00
2B00
5900
8600
A300
ENDCHAR
STARTCHAR eth
ENCODING 240
SWIDTH 573 0
DWIDTH 6 0
BBX 6 8 0 0
BITMAP
00B743
002EB0
0052D0
06EDD2
2D21D2
6700D0
5A17A0
0AEB10
ENDCHAR
STARTCHAR ntilde
ENCODING 241
SWIDTH 540 0
DWIDTH 5 0
BBX 6 8 0 0
BITMAP
01D591
0569A0
000000
1DBE60
3D34B0
6803A0
950670
B20940
ENDCHAR
STARTCHAR ograve
ENCODING 242
SWIDTH 558 0
DWIDTH 6 0
BBX 6 8 0 0
BITMAP
00B300
004700
000000
07EE60
4C23E0
8500D1
7916B0
1BFB10
ENDCHAR
STARTCHAR oacute
ENCODING 243
SWIDTH 558 0
DWIDTH 6 0
BBX 6 8 0 0
BITMAP
000890
001B00
000000
07EE60
4C23E0
8500D1
7916B0
1BFB10
ENDCHAR
STARTCHAR ocircumflex
ENCODING 244
SWIDTH 558 0
DWIDTH 6 0
BBX 6 8 0 0
BITMAP
008D30
03C4A0
000000
07EE60
4C23E0
8500D1
7916B0
1BFB10
ENDCHAR
STARTCHAR otilde
ENCODING 245
SWIDTH 558 0
DWIDTH 6 0
BBX 6 8 0 0
BITMAP
01D5A0
055A90
000000
07EE60
4C23E0
8500D1
7916B0
1BFB10
ENDCHAR
STARTCHAR odieresis
ENCODING 246
SWIDTH 558 0
DWIDTH 6 0
BBX 6 7 0 0
BITMAP
02A1A0
000000
07EE60
4C23E0
8500D1
7916B0
1BFB10
ENDCHAR
STARTCHAR divide
ENCODING 247
SWIDTH 558 0
DWIDTH 6 0
BBX 6 5 0 1
BITMAP
004800
000000
9FFFF2
000000
00C000
ENDCHAR
STARTCHAR oslash
ENCODING 248
SWIDTH 554 0
DWIDTH 6 0
BBX 6 7 0 -1
BITMAP
000040
06DDA0
4C39D0
9582D1
8967B0
3EEB10
410000
ENDCHAR
STARTCHAR ugrave
ENCODING 249
SWIDTH 539 0
DWIDTH 5 0
BBX 6 8 0 0
BITMAP
00B400
004700
000000
0D00C1
2A01D0
5804A0
781A80
3DED50
ENDCHAR
STARTCHAR uacute
ENCODING 250
SWIDTH 539 0
DWIDTH 5 0
BBX 6 8 0 0
BITMAP
000890
001B10
000000
0D00C1
2A01D0
5804A0
781A80
3DED50
ENDCHAR
STARTCHAR ucircumflex
ENCODING 251
SWIDTH 539 0
DWIDTH 5 0
BBX 6 8 0 0
BITMAP
008D40
03C4A0
000000
0D00C1
2A01D0
5804A0
781A80
3DED50
ENDCHAR
STARTCHAR udieresis
ENCODING 252
SWIDTH 539 0
DWIDTH 5 0
BBX 6 7 0 0
BITMAP
01A1B0
000000
0D00C1
2A01D0
5804A0
781A80
3DED50
ENDCHAR
STARTCHAR yacute
ENCODING 253
SWIDTH 463 0
DWIDTH 5 0
BBX 6 10 -1 -2
BITMAP
0000C5
000480
000000
06805A
03A0C2
00C580
00BC10
009700
03D100
6E4000
ENDCHAR
STARTCHAR thorn
ENCODING 254
SWIDTH 563 0
DWIDTH 6 0
BBX 6 10 -1 -2
BITMAP
009500
00B200
00E000
01ECE7
04D22E
06800D
09817A
0BBEC2
0D0000
1C0000
ENDCHAR
STARTCHAR ydieresis
ENCODING 255
SWIDTH 463 0
DWIDTH 5 0
BBX 6 9 -1 -2
BITMAP
005657
000000
06805A
03A0C2
00C580
00BC10
009700
03D100
6E4000
ENDCHAR
STARTCHAR Amacron
ENCODING 256
SWIDTH 637 0
DWIDTH 6 0
BBX 7 9 -1 0
BITMAP
0007FFB0
00000000
0000C500
0005B800
000B1B00
00740B00
01EFFF30
08500760
2C000590
ENDCHAR
STARTCHAR amacron
ENCODING 257
SWIDTH 532 0
DWIDTH 5 0
BBX 5 7 0 0
BITMAP
02FFF0
000000
08EE40
1615A0
2BEF80
A71950
5EDC40
ENDCHAR
STARTCHAR Abreve
ENCODING 258
SWIDTH 637 0
DWIDTH 6 0
BBX 7 10 -1 0
BITMAP
00039570
0000BD20
00000000
0000C500
0005B800
000B1B00
00740B00
01EFFF30
08500760
2C000590
ENDCHAR
STARTCHAR abreve
ENCODING 259
SWIDTH 532 0
DWIDTH 5 0
BBX 5 8 0 0
BITMAP
00B2B0
007E50
000000
08EE40
1615A0
2BEF80
A71950
5EDC40
ENDCHAR
STARTCHAR Aogonek
ENCODING 260
SWIDTH 637 0
DWIDTH 6 0
BBX 7 9 -1 -2
BITMAP
0000C500
0005B800
000B1B00
00740B00
01EFFF30
08500760
2C000590
00000920
00002E40
ENDCHAR
STARTCHAR aogonek
ENCODING 261
SWIDTH 532 0
DWIDTH 5 0
BBX 5 7 0 -2
BITMAP
08EE40
1615A0
2BEF80
A71950
5EDC40
004600
007D00
ENDCHAR
STARTCHAR Cacute
ENCODING 262
SWIDTH 636 0
DWIDTH 6 0
BBX 7 10 0 0
BITMAP
0000A700
0003A000
00000000
019EE600
09912D10
1D000310
59000000
68001200
3C11A600
08EE8000
ENDCHAR
STARTCHAR cacute
ENCODING 263
SWIDTH 512 0
DWIDTH 5 0
BBX 5 8 0 0
BITMAP
000B60
004900
000000
06EE50
4C2390
850000
881540
1CEA10
ENDCHAR
STARTCHAR Ccircumflex
ENCODING 264
SWIDTH 636 0
DWIDTH 6 0
BBX 7 10 0 0
BITMAP
0019C200
005A6800
00000000
019EE600
09912D10
1D000310
59000000
68001200
3C11A600
08EE8000
ENDCHAR
STARTCHAR ccircumflex
ENCODING 265
SWIDTH 512 0
DWIDTH 5 0
BBX 5 8 0 0
BITMAP
01AC20
069770
000000
06EE50
4C2390
850000
881540
1CEA10
ENDCHAR
STARTCHAR Cdotaccent
ENCODING 266
SWIDTH 636 0
DWIDTH 6 0
BBX 7 9 0 0
BITMAP
00048000
00000000
019EE600
09912D10
1D000310
59000000
68001200
3C11A600
08EE8000
ENDCHAR
STARTCHAR cdotaccent
ENCODING 267
SWIDTH 512 0
DWIDTH 5 0
BBX 5 7 0 0
BITMAP
004800
000000
06EE50
4C2390
850000
881540
1CEA10
ENDCHAR
STARTCHAR Ccaron
ENCODING 268
SWIDTH 636 0
DWIDTH 6 0
BBX 7 10 0 0
BITMAP
001A6700
0007A000
00000000
019EE600
09912D10
1D000310
59000000
68001200
3C11A600
08EE8000
ENDCHAR
STARTCHAR ccaron
ENCODING 269
SWIDTH 512 0
DWIDTH 5 0
BBX 5 8 0 0
BITMAP
01A660
007A00
000000
06EE50
4C2390
850000
881540
1CEA10
ENDCHAR
STARTCHAR Dcaron
ENCODING 270
SWIDTH 641 0
DWIDTH 6 0
BBX 6 10 0 0
BITMAP
0056A2
000C50
000000
08FFB1
0B307A
0E000E
1C001D
490059
7715D2
9FEB30
ENDCHAR
STARTCHAR dcaron
ENCODING 271
SWIDTH 625 0
DWIDTH 6 0
BBX 7 8 0 0
BITMAP
00006700
000085C0
0000A670
08ECD000
4C12C000
8502A000
87188000
2DEC5000
ENDCHAR
STARTCHAR Dcroat
ENCODING 272
SWIDTH 655 0
DWIDTH 7 0
BBX 7 7 0 0
BITMAP
06FFC300
09505C00
0C200D10
DFF20D10
1C003C00
4904D400
7FEC4000
ENDCHAR
STARTCHAR dcroat
ENCODING 273
SWIDTH 583 0
DWIDTH 6 0
BBX 7 8 0 0
BITMAP
00006800
000BFF40
0000B300
08EFF100
4C12D000
8502B000
87198000
2DEC5000
ENDCHAR
STARTCHAR Emacron
ENCODING 274
SWIDTH 556 0
DWIDTH 6 0
BBX 6 9 0 0
BITMAP
00BFF7
000000
08FFFC
0B3000
0D0000
1FFFC0
4A0000
770000
9FFFB0
ENDCHAR
STARTCHAR emacron
ENCODING 275
SWIDTH 518 0
DWIDTH 5 0
BBX 5 7 0 0
BITMAP
05FFD0
000000
06ED40
4C13B0
8FFFC0
770210
1BFB20
ENDCHAR
STARTCHAR Ebreve
ENCODING 276
SWIDTH 556 0
DWIDTH 6 0
BBX 6 10 0 0
BITMAP
006694
002DB0
000000
08FFFC
0B3000
0D0000
1FFFC0
4A0000
770000
9FFFB0
ENDCHAR
STARTCHAR ebreve
ENCODING 277
SWIDTH 518 0
DWIDTH 5 0
BBX 5 8 0 0
BITMAP
00C3A0
008E40
000000
06ED40
4C13B0
8FFFC0
770210
1BFB20
ENDCHAR
STARTCHAR Edotaccent
ENCODING 278
SWIDTH 556 0
DWIDTH 6 0
BBX 6 9 0 0
BITMAP
000840
000000
08FFFC
0B3000
0D0000
1FFFC0
4A0000
770000
9FFFB0
ENDCHAR
STARTCHAR edotaccent
ENCODING 279
SWIDTH 518 0
DWIDTH 5 0
BBX 5 7 0 0
BITMAP
002A00
000000
06ED40
4C13B0
8FFFC0
770210
1BFB20
ENDCHAR
STARTCHAR Eogonek
ENCODING 280
SWIDTH 556 0
DWIDTH 6 0
BBX 6 9 0 -2
BITMAP
08FFFC
0B3000
0D0000
1FFFC0
4A0000
770000
9FFFB0
002910
004E20
ENDCHAR
STARTCHAR eogonek
ENCODING 281
SWIDTH 518 0
DWIDTH 5 0
BBX 5 7 0 -2
BITMAP
07ED30
4B14B0
8FFFC0
770310
1BFB20
029000
02E300
ENDCHAR
STARTCHAR Ecaron
ENCODING 282
SWIDTH 556 0
DWIDTH 6 0
BBX 6 10 0 0
BITMAP
0047A3
000B60
000000
08FFFC
0B3000
0D0000
1FFFC0
4A0000
770000
9FFFB0
ENDCHAR
STARTCHAR ecaron
ENCODING 283
SWIDTH 518 0
DWIDTH 5 0
BBX 5 8 0 0
BITMAP
00B480
005C00
000000
06ED40
4C13B0
8FFFC0
770210
1BFB20
ENDCHAR
STARTCHAR Gcircumflex
ENCODING 284
SWIDTH 665 0
DWIDTH 7 0
BBX 7 10 0 0
BITMAP
001AC200
00697700
00000000
019EE700
09912D20
1D000100
4908FE00
59002C00
2D218A00
06EEB200
ENDCHAR
STARTCHAR gcircumflex
ENCODING 285
SWIDTH 549 0
DWIDTH 6 0
BBX 6 10 0 -2
BITMAP
008D30
03C4A0
000000
08ECC2
4C23E0
8502B0
871990
2DEC60
412D20
7ED600
ENDCHAR
STARTCHAR Gbreve
ENCODING 286
SWIDTH 665 0
DWIDTH 7 0
BBX 7 10 0 0
BITMAP
002A5800
000BD200
00000000
019EE700
09912D20
1D000100
4908FE00
59002C00
2D218A00
06EEB200
ENDCHAR
STARTCHAR gbreve
ENCODING 287
SWIDTH 549 0
DWIDTH 6 0
BBX 6 10 0 -2
BITMAP
00C2A0
008E40
000000
08ECC2
4C23E0
8502B0
871990
2DEC60
412D20
7ED600
ENDCHAR
STARTCHAR Gdotaccent
ENCODING 288
SWIDTH 665 0
DWIDTH 7 0
BBX 7 9 0 0
BITMAP
00048000
00000000
019EE700
09912D20
1D000100
4908FE00
59002C00
2D218A00
06EEB200
ENDCHAR
STARTCHAR gdotaccent
ENCODING 289
SWIDTH 549 0
DWIDTH 6 0
BBX 6 9 0 -2
BITMAP
002A00
000000
08ECC2
4C23E0
8502B0
871990
2DEC60
412D20
7ED600
ENDCHAR
STARTCHAR uni0122
ENCODING 290
SWIDTH 665 0
DWIDTH 7 0
BBX 7 10 0 -3
BITMAP
019EE700
09912D20
1D000100
4908FE00
59002C00
2D218A00
06EEB200
00000000
00A20000
01A00000
ENDCHAR
STARTCHAR uni0123
ENCODING 291
SWIDTH 549 0
DWIDTH 6 0
BBX 6 10 0 -2
BITMAP
000A10
003B00
000000
08ECC2
4C23E0
8502B0
871990
2DEC60
412D20
7ED600
ENDCHAR
STARTCHAR Hcircumflex
ENCODING 292
SWIDTH 696 0
DWIDTH 7 0
BBX 7 10 0 0
BITMAP
0008D300
003C4A00
00000000
085003B0
0B300580
0D000860
1FFFFF30
4A000D10
77001D00
94003A00
ENDCHAR
STARTCHAR hcircumflex
ENCODING 293
SWIDTH 539 0
DWIDTH 5 0
BBX 5 11 0 0
BITMAP
008D30
03C4A0
000000
094000
0C2000
0E0000
2EBE60
4D34B0
7803A0
950670
B20940
ENDCHAR
STARTCHAR Hbar
ENCODING 294
SWIDTH 684 0
DWIDTH 7 0
BBX 8 7 0 0
BITMAP
094004A0
7FFFFFF2
0E000950
2FFFFF30
5A000D00
77001C00
A4004A00
ENDCHAR
STARTCHAR hbar
ENCODING 295
SWIDTH 553 0
DWIDTH 6 0
BBX 5 8 0 0
BITMAP
076000
8FF700
0B2000
0EAE80
1E42D0
4A01C0
770490
940760
ENDCHAR
STARTCHAR Itilde
ENCODING 296
SWIDTH 268 0
DWIDTH 3 0
BBX 4 10 0 0
BITMAP
2D4A
64B8
0000
0760
0A30
0D10
1D00
3B00
6800
8500
ENDCHAR
STARTCHAR itilde
ENCODING 297
SWIDTH 244 0
DWIDTH 2 0
BBX 4 8 0 0
BITMAP
7B38
A3D3
0000
0D00
2B00
5900
8600
A300
ENDCHAR
STARTCHAR Imacron
ENCODING 298
SWIDTH 268 0
DWIDTH 3 0
BBX 4 9 0 0
BITMAP
5FFD
0000
0760
0A30
0D10
1D00
3B00
6800
8500
ENDCHAR
STARTCHAR imacron
ENCODING 299
SWIDTH 244 0
DWIDTH 2 0
BBX 4 7 0 0
BITMAP
BFF7
0000
0D00
2B00
5900
8600
A300
ENDCHAR
STARTCHAR Ibreve
ENCODING 300
SWIDTH 268 0
DWIDTH 3 0
BBX 4 10 0 0
BITMAP
0B3A
09E3
0000
0760
0A30
0D10
1D00
3B00
6800
8500
ENDCHAR
STARTCHAR ibreve
ENCODING 301
SWIDTH 244 0
DWIDTH 2 0
BBX 4 8 0 0
BITMAP
6694
2DB0
0000
0D00
2B00
5900
8600
A300
ENDCHAR
STARTCHAR Iogonek
ENCODING 302
SWIDTH 268 0
DWIDTH 3 0
BBX 4 9 -1 -2
BITMAP
0076
00A3
00D1
01D0
03B0
0680
0E60
6600
5E00
ENDCHAR
STARTCHAR iogonek
ENCODING 303
SWIDTH 240 0
DWIDTH 2 0
BBX 4 9 -1 -2
BITMAP
0083
0000
00D0
02B0
0590
0760
0F30
8400
8C00
ENDCHAR
STARTCHAR Idotaccent
ENCODING 304
SWIDTH 268 0
DWIDTH 3 0
BBX 3 9 0 0
BITMAP
0290
0000
0760
0A30
0D10
1D00
3B00
6800
8500
ENDCHAR
STARTCHAR dotlessi
ENCODING 305
SWIDTH 244 0
DWIDTH 2 0
BBX 2 5 0 0
BITMAP
0D
2B
59
86
A3
ENDCHAR
STARTCHAR IJ
ENCODING 306
SWIDTH 808 0
DWIDTH 8 0
BBX 8 7 0 0
BITMAP
0760000E
0A30002C
0D100059
1D000086
3B0100B4
682D14E1
8508ED40
ENDCHAR
STARTCHAR ij
ENCODING 307
SWIDTH 476 0
DWIDTH 5 0
BBX 5 9 0 -2
BITMAP
083380
000000
0D0940
2B0C20
590D00
762B00
A35900
009600
0AC100
ENDCHAR
STARTCHAR Jcircumflex
ENCODING 308
SWIDTH 540 0
DWIDTH 5 0
BBX 7 10 0 0
BITMAP
0002BB10
00097940
00000000
0000A400
0000D100
0000E000
0003B000
10069000
C31C4000
5EE80000
ENDCHAR
STARTCHAR jcircumflex
ENCODING 309
SWIDTH 249 0
DWIDTH 2 0
BBX 6 10 -2 -2
BITMAP
002BA0
00A6A4
000000
000D00
001D00
004A00
007700
00A400
01E100
2E8000
ENDCHAR
STARTCHAR uni0136
ENCODING 310
SWIDTH 612 0
DWIDTH 6 0
BBX 7 9 0 -2
BITMAP
08503C30
0B33C200
0D4C2000
1EE80000
4C1D2000
7705A000
9400B400
00C00000
04700000
ENDCHAR
STARTCHAR uni0137
ENCODING 311
SWIDTH 496 0
DWIDTH 5 0
BBX 5 10 0 -2
BITMAP
094000
0C2000
0E0000
2C0980
4AA600
7ED100
957800
B20C20
094000
0A0000
ENDCHAR
STARTCHAR kgreenlandic
ENCODING 312
SWIDTH 544 0
DWIDTH 5 0
BBX 6 5 0 0
BITMAP
0D05C1
2B6B10
5FE100
869800
A30C40
ENDCHAR
STARTCHAR Lacute
ENCODING 313
SWIDTH 526 0
DWIDTH 5 0
BBX 5 10 0 0
BITMAP
00A700
03A000
000000
085000
0B3000
0D0000
1C0000
490000
770000
9FFF80
ENDCHAR
STARTCHAR lacute
ENCODING 314
SWIDTH 240 0
DWIDTH 2 0
BBX 4 11 0 0
BITMAP
00A7
03A0
0000
0850
0B20
0D00
1D00
3A00
5800
8500
A300
ENDCHAR
STARTCHAR uni013B
ENCODING 315
SWIDTH 526 0
DWIDTH 5 0
BBX 5 10 0 -3
BITMAP
085000
0B3000
0D0000
1C0000
490000
770000
9FFF80
000000
03A000
073000
ENDCHAR
STARTCHAR uni013C
ENCODING 316
SWIDTH 240 0
DWIDTH 2 0
BBX 4 11 -1 -3
BITMAP
0085
00B2
00D0
01D0
03A0
0580
0850
0A30
0000
0C00
4700
ENDCHAR
STARTCHAR Lcaron
ENCODING 317
SWIDTH 526 0
DWIDTH 5 0
BBX 5 7 0 0
BITMAP
085670
0B3910
0D0000
1C0000
490000
770000
9FFF80
ENDCHAR
STARTCHAR lcaron
ENCODING 318
SWIDTH 313 0
DWIDTH 3 0
BBX 4 8 0 0
BITMAP
0850
0B3C
0D47
1D00
3A00
5800
8500
A300
ENDCHAR
STARTCHAR Ldot
ENCODING 319
SWIDTH 526 0
DWIDTH 5 0
BBX 5 7 0 0
BITMAP
085000
0B3000
0D0000
1C0C00
490000
770000
9FFF80
ENDCHAR
STARTCHAR ldot
ENCODING 320
SWIDTH 347 0
DWIDTH 3 0
BBX 4 8 0 0
BITMAP
0850
0B20
0D00
1D00
3A83
5800
8500
A300
ENDCHAR
STARTCHAR Lslash
ENCODING 321
SWIDTH 527 0
DWIDTH 5 0
BBX 5 7 0 0
BITMAP
085000
0B3000
0D1000
2FC300
AC3000
570000
9FFF80
ENDCHAR
STARTCHAR lslash
ENCODING 322
SWIDTH 266 0
DWIDTH 3 0
BBX 3 8 0 0
BITMAP
0760
0940
0C10
2E90
AD10
4A00
6700
9500
ENDCHAR
STARTCHAR Nacute
ENCODING 323
SWIDTH 696 0
DWIDTH 7 0
BBX 7 10 0 0
BITMAP
00008900
0001B100
00000000
08A003B0
0BE20580
0E690860
1C0D1B30
4A078D10
7701DD00
95008A00
ENDCHAR
STARTCHAR nacute
ENCODING 324
SWIDTH 540 0
DWIDTH 5 0
BBX 5 8 0 0
BITMAP
0007A0
001B10
000000
1DBE60
3D34B0
6803A0
950670
B20940
ENDCHAR
STARTCHAR uni0145
ENCODING 325
SWIDTH 696 0
DWIDTH 7 0
BBX 7 10 0 -3
BITMAP
08A003B0
0BE20580
0E690860
1C0D1B30
4A078D10
7701DD00
95008A00
00000000
00B20000
01900000
ENDCHAR
STARTCHAR uni0146
ENCODING 326
SWIDTH 540 0
DWIDTH 5 0
BBX 5 8 0 -3
BITMAP
1DBE60
3D34B0
6803A0
950670
B20940
000000
076000
0A1000
ENDCHAR
STARTCHAR Ncaron
ENCODING 327
SWIDTH 696 0
DWIDTH 7 0
BBX 7 10 0 0
BITMAP
000B4900
0004D100
00000000
08A003B0
0BE20580
0E690860
1C0D1B30
4A078D10
7701DD00
95008A00
ENDCHAR
STARTCHAR ncaron
ENCODING 328
SWIDTH 540 0
DWIDTH 5 0
BBX 5 8 0 0
BITMAP
00B490
004D10
000000
1DBE60
3D34B0
6803A0
950670
B20940
ENDCHAR
STARTCHAR napostrophe
ENCODING 329
SWIDTH 540 0
DWIDTH 5 0
BBX 5 7 0 0
BITMAP
480000
820000
1DBE60
3D34B0
6803A0
950670
B20940
ENDCHAR
STARTCHAR Eng
ENCODING 330
SWIDTH 676 0
DWIDTH 7 0
BBX 7 9 0 -2
BITMAP
09900490
0CD10770
0E670A40
2C0C0C20
59076E00
7701DB00
A4008900
0001A600
000DB100
ENDCHAR
STARTCHAR eng
ENCODING 331
SWIDTH 554 0
DWIDTH 6 0
BBX 5 7 0 -2
BITMAP
0DBE70
3D23C0
6902B0
860580
B20860
001C30
01E900
ENDCHAR
STARTCHAR Omacron
ENCODING 332
SWIDTH 671 0
DWIDTH 7 0
BBX 7 9 0 0
BITMAP
005FFD00
00000000
009EE600
09912D10
1D000A40
59000B30
58001D00
2D21A700
07EE8000
ENDCHAR
STARTCHAR omacron
ENCODING 333
SWIDTH 558 0
DWIDTH 6 0
BBX 6 7 0 0
BITMAP
04FFE0
000000
07EE60
4C23E0
8500D1
7916B0
1BFB10
ENDCHAR
STARTCHAR Obreve
ENCODING 334
SWIDTH 671 0
DWIDTH 7 0
BBX 7 10 0 0
BITMAP
000C3A00
0009E300
00000000
009EE600
09912D10
1D000A40
59000B30
58001D00
2D21A700
07EE8000
ENDCHAR
STARTCHAR obreve
ENCODING 335
SWIDTH 558 0
DWIDTH 6 0
BBX 6 8 0 0
BITMAP
00C2B0
008E40
000000
07EE60
4C23E0
8500D1
7916B0
1BFB10
ENDCHAR
STARTCHAR Ohungarumlaut
ENCODING 336
SWIDTH 671 0
DWIDTH 7 0
BBX 7 10 0 0
BITMAP
0005BC40
000B8800
00000000
009EE600
09912D10
1D000A40
59000B30
58001D00
2D21A700
07EE8000
ENDCHAR
STARTCHAR ohungarumlaut
ENCODING 337
SWIDTH 558 0
DWIDTH 6 0
BBX 6 8 0 0
BITMAP
004BB5
00A780
000000
07EE60
4C23E0
8500D1
7916B0
1BFB10
ENDCHAR
STARTCHAR OE
ENCODING 338
SWIDTH 929 0
DWIDTH 9 0
BBX 10 7 0 0
BITMAP
01AEFFFFF3
0B71590000
2B00860000
5800BFFF30
7600E10000
5A12C00000
09EFFFFF20
ENDCHAR
STARTCHAR oe
ENCODING 339
SWIDTH 885 0
DWIDTH 9 0
BBX 9 5 0 0
BITMAP
06EE78EC10
3C22E91770
8500EFFF70
8817F41100
1CEA5DE900
ENDCHAR
STARTCHAR Racute
ENCODING 340
SWIDTH 602 0
DWIDTH 6 0
BBX 6 10 0 0
BITMAP
0002D2
000850
000000
09FFD4
0B304C
0D017A
2FFFB1
490770
7702C0
9400C3
ENDCHAR
STARTCHAR racute
ENCODING 341
SWIDTH 333 0
DWIDTH 3 0
BBX 5 8 0 0
BITMAP
004C10
00A200
000000
1DB700
3D2000
680000
950000
B20000
ENDCHAR
STARTCHAR uni0156
ENCODING 342
SWIDTH 602 0
DWIDTH 6 0
BBX 6 10 0 -3
BITMAP
09FFD4
0B304C
0D017A
2FFFB1
490770
7702C0
9400C3
000000
049000
083000
ENDCHAR
STARTCHAR uni0157
ENCODING 343
SWIDTH 333 0
DWIDTH 3 0
BBX 5 8 -1 -3
BITMAP
01DB70
03D200
068000
095000
0B2000
000000
0C0000
460000
ENDCHAR
STARTCHAR Rcaron
ENCODING 344
SWIDTH 602 0
DWIDTH 6 0
BBX 6 10 0 0
BITMAP
0056A2
000C50
000000
09FFD4
0B304C
0D017A
2FFFB1
490770
7702C0
9400C3
ENDCHAR
STARTCHAR rcaron
ENCODING 345
SWIDTH 333 0
DWIDTH 3 0
BBX 5 8 0 0
BITMAP
084B10
01D300
000000
1DB700
3D2000
680000
950000
B20000
ENDCHAR
STARTCHAR Sacute
ENCODING 346
SWIDTH 580 0
DWIDTH 6 0
BBX 6 10 0 0
BITMAP
0001D3
000760
000000
03CEC2
0D406A
0D5002
02BE60
2002D2
A603D1
2BFD50
ENDCHAR
STARTCHAR sacute
ENCODING 347
SWIDTH 504 0
DWIDTH 5 0
BBX 5 8 0 0
BITMAP
000980
002B00
000000
09ED30
2D4440
07CD10
631B40
4DE900
ENDCHAR
STARTCHAR Scircumflex
ENCODING 348
SWIDTH 580 0
DWIDTH 6 0
BBX 6 10 0 0
BITMAP
002BA0
00A6A3
000000
03CEC2
0D406A
0D5002
02BE60
2002D2
A603D1
2BFD50
ENDCHAR
STARTCHAR scircumflex
ENCODING 349
SWIDTH 504 0
DWIDTH 5 0
BBX 5 8 0 0
BITMAP
008C30
04B590
000000
09ED30
2D4440
07CD10
631B40
4DE900
ENDCHAR
STARTCHAR Scedilla
ENCODING 350
SWIDTH 580 0
DWIDTH 6 0
BBX 6 9 0 -2
BITMAP
03CEC2
0D406A
0D5002
02BE60
2002D2
A603D1
2BFD50
00B200
04D200
ENDCHAR
STARTCHAR scedilla
ENCODING 351
SWIDTH 504 0
DWIDTH 5 0
BBX 5 7 0 -2
BITMAP
09ED30
2D4440
07CD10
631B40
4DE900
03A000
08A000
ENDCHAR
STARTCHAR Scaron
ENCODING 352
SWIDTH 580 0
DWIDTH 6 0
BBX 6 10 0 0
BITMAP
0047A3
000B60
000000
03CEC2
0D406A
0D5002
02BE60
2002D2
A603D1
2BFD50
ENDCHAR
STARTCHAR scaron
ENCODING 353
SWIDTH 504 0
DWIDTH 5 0
BBX 5 8 0 0
BITMAP
00B580
005C00
000000
09ED30
2D4440
07CD10
631B40
4DE900
ENDCHAR
STARTCHAR uni0162
ENCODING 354
SWIDTH 583 0
DWIDTH 6 0
BBX 7 9 0 -2
BITMAP
2FFFFF30
001D0000
004A0000
00670000
00950000
00C20000
00D00000
01B10000
05C10000
ENDCHAR
STARTCHAR uni0163
ENCODING 355
SWIDTH 321 0
DWIDTH 3 0
BBX 4 8 0 -2
BITMAP
0860
9FF2
0C10
1C00
3A00
2E50
0930
2D30
ENDCHAR
STARTCHAR Tcaron
ENCODING 356
SWIDTH 583 0
DWIDTH 6 0
BBX 7 10 0 0
BITMAP
0056A200
000C5000
00000000
2FFFFF30
001D0000
004A0000
00670000
00950000
00C20000
00D00000
ENDCHAR
STARTCHAR tcaron
ENCODING 357
SWIDTH 341 0
DWIDTH 3 0
BBX 5 8 0 0
BITMAP
000850
000A10
086000
9FF200
0C1000
1C0000
3A0000
2E5000
ENDCHAR
STARTCHAR Tbar
ENCODING 358
SWIDTH 583 0
DWIDTH 6 0
BBX 7 7 0 0
BITMAP
2FFFFF30
002C0000
05FFA000
00770000
00A40000
00C20000
00D00000
ENDCHAR
STARTCHAR tbar
ENCODING 359
SWIDTH 321 0
DWIDTH 3 0
BBX 4 6 0 0
BITMAP
0860
9FF2
0C10
FFF0
2B00
3E50
ENDCHAR
STARTCHAR Utilde
ENCODING 360
SWIDTH 633 0
DWIDTH 6 0
BBX 7 10 0 0
BITMAP
004D3A00
0093C600
00000000
0A300950
0D100C20
1D000E00
3A002C00
68005900
5B12C400
0AED6000
ENDCHAR
STARTCHAR utilde
ENCODING 361
SWIDTH 539 0
DWIDTH 5 0
BBX 6 8 0 0
BITMAP
01D590
0569A0
000000
0D00C1
2A01D0
5804A0
781A80
3DED50
ENDCHAR
STARTCHAR Umacron
ENCODING 362
SWIDTH 633 0
DWIDTH 6 0
BBX 7 9 0 0
BITMAP
007FFA00
00000000
0A300950
0D100C20
1D000E00
3A002C00
68005900
5B12C400
0AED6000
ENDCHAR
STARTCHAR umacron
ENCODING 363
SWIDTH 539 0
DWIDTH 5 0
BBX 6 7 0 0
BITMAP
03FFE0
000000
0D00C1
2A01D0
5804A0
781A80
3DED50
ENDCHAR
STARTCHAR Ubreve
ENCODING 364
SWIDTH 633 0
DWIDTH 6 0
BBX 7 10 0 0
BITMAP
00395700
000BD200
00000000
0A300950
0D100C20
1D000E00
3A002C00
68005900
5B12C400
0AED6000
ENDCHAR
STARTCHAR ubreve
ENCODING 365
SWIDTH 539 0
DWIDTH 5 0
BBX 6 8 0 0
BITMAP
00C2B0
008E40
000000
0D00C1
2A01D0
5804A0
781A80
3DED50
ENDCHAR
STARTCHAR Uring
ENCODING 366
SWIDTH 633 0
DWIDTH 6 0
BBX 7 11 0 0
BITMAP
0008C000
00098200
0009B000
00000000
0A300950
0D100C20
1D000E00
3A002C00
68005900
5B12C400
0AED6000
ENDCHAR
STARTCHAR uring
ENCODING 367
SWIDTH 539 0
DWIDTH 5 0
BBX 6 9 0 0
BITMAP
004E20
008460
005D20
000000
0D00C1
2A01D0
5804A0
781A80
3DED50
ENDCHAR
STARTCHAR Uhungarumlaut
ENCODING 368
SWIDTH 633 0
DWIDTH 6 0
BBX 7 10 0 0
BITMAP
00089D20
001B9500
00000000
0A300950
0D100C20
1D000E00
3A002C00
68005900
5B12C400
0AED6000
ENDCHAR
STARTCHAR uhungarumlaut
ENCODING 369
SWIDTH 539 0
DWIDTH 5 0
BBX 6 8 0 0
BITMAP
004CB5
00A790
000000
0D00C1
2A01D0
5804A0
781A80
3DED50
ENDCHAR
STARTCHAR Uogonek
ENCODING 370
SWIDTH 633 0
DWIDTH 6 0
BBX 7 9 0 -2
BITMAP
0A400950
0C100B30
0D000E00
3B002C00
58005A00
4C12C500
09EE6000
00840000
008C0000
ENDCHAR
STARTCHAR uogonek
ENCODING 371
SWIDTH 539 0
DWIDTH 5 0
BBX 6 7 0 -2
BITMAP
0D00C1
2A01D0
5804A0
781A80
3DEC50
004800
006E00
ENDCHAR
STARTCHAR Wcircumflex
ENCODING 372
SWIDTH 865 0
DWIDTH 9 0
BBX 8 10 1 0
BITMAP
0019C200
005B5800
00000000
D009701D
D01D8077
D077A0C1
C2C0B3A0
A870B940
9D10BC00
89009700
ENDCHAR
STARTCHAR wcircumflex
ENCODING 373
SWIDTH 733 0
DWIDTH 7 0
BBX 8 8 0 0
BITMAP
0008C300
004B5900
00000000
580970A4
392C92B0
1A93A840
0DA0BB00
0D30B500
ENDCHAR
STARTCHAR Ycircumflex
ENCODING 374
SWIDTH 587 0
DWIDTH 6 0
BBX 7 10 0 0
BITMAP
003BA000
00A5B300
00000000
1D001D30
09509600
04A5B000
00DC1000
00A50000
00C20000
00E00000
ENDCHAR
STARTCHAR ycircumflex
ENCODING 375
SWIDTH 463 0
DWIDTH 5 0
BBX 6 10 -1 -2
BITMAP
001AB1
007886
000000
06805A
03A0C2
00C580
00BC10
009700
03D100
6E4000
ENDCHAR
STARTCHAR Ydieresis
ENCODING 376
SWIDTH 587 0
DWIDTH 6 0
BBX 7 9 0 0
BITMAP
00838400
00000000
1D001D30
09509600
04A5B000
00DC1000
00A50000
00C20000
00E00000
ENDCHAR
STARTCHAR Zacute
ENCODING 377
SWIDTH 585 0
DWIDTH 6 0
BBX 7 10 -1 0
BITMAP
00002D20
00007500
00000000
00DFFFE0
00000A50
0000A600
00097000
00880000
07900000
1FFFFF00
ENDCHAR
STARTCHAR zacute
ENCODING 378
SWIDTH 485 0
DWIDTH 5 0
BBX 5 8 0 0
BITMAP
000B50
004900
000000
3FFFA0
003B20
04B100
6A0000
FFFF10
ENDCHAR
STARTCHAR Zdotaccent
ENCODING 379
SWIDTH 585 0
DWIDTH 6 0
BBX 7 9 -1 0
BITMAP
00008300
00000000
00DFFFE0
00000A50
0000A600
00097000
00880000
07900000
1FFFFF00
ENDCHAR
STARTCHAR zdotaccent
ENCODING 380
SWIDTH 485 0
DWIDTH 5 0
BBX 5 7 0 0
BITMAP
005700
000000
3FFFA0
003B20
04B100
6A0000
FFFF10
ENDCHAR
STARTCHAR Zcaron
ENCODING 381
SWIDTH 585 0
DWIDTH 6 0
BBX 7 10 -1 0
BITMAP
00047A20
0000B600
00000000
00DFFFE0
00000A50
0000A600
00097000
00880000
07900000
1FFFFF00
ENDCHAR
STARTCHAR zcaron
ENCODING 382
SWIDTH 485 0
DWIDTH 5 0
BBX 5 8 0 0
BITMAP
01A750
008900
000000
3FFFA0
003B20
04B100
6A0000
FFFF10
ENDCHAR
STARTCHAR longs
ENCODING 383
SWIDTH 245 0
DWIDTH 2 0
BBX 4 8 0 0
BITMAP
03DA
0A70
0D10
1D00
3B00
5800
8600
A300
ENDCHAR
STARTCHAR uni018F
ENCODING 399
SWIDTH 675 0
DWIDTH 7 0
BBX 7 7 0 0
BITMAP
01BED500
01313D20
00000950
7FFFFF40
76000D10
4B11A800
08EE8000
ENDCHAR
STARTCHAR florin
ENCODING 402
SWIDTH 334 0
DWIDTH 3 0
BBX 5 10 -1 -2
BITMAP
000BD0
005A00
008500
07FF30
00C200
00D000
02B000
059000
0A6000
CC1000
ENDCHAR
STARTCHAR Ohorn
ENCODING 416
SWIDTH 670 0
DWIDTH 7 0
BBX 8 8 0 0
BITMAP
00000013
019ED486
0A813EB1
2C000B20
68000C20
77001E00
3C12B800
07EE8000
ENDCHAR
STARTCHAR ohorn
ENCODING 417
SWIDTH 559 0
DWIDTH 6 0
BBX 7 6 0 0
BITMAP
00000110
06DD4A10
4C22E800
8500D100
8816D000
1CFC3000
ENDCHAR
STARTCHAR Uhorn
ENCODING 431
SWIDTH 679 0
DWIDTH 7 0
BBX 9 8 0 0
BITMAP
0000000410
0A40087C10
0C100BE500
0D000E1000
3B002D0000
58005A0000
4C12C60000
09EE700000
ENDCHAR
STARTCHAR uhorn
ENCODING 432
SWIDTH 604 0
DWIDTH 6 0
BBX 7 6 0 0
BITMAP
00000010
0D00D570
2B01FC10
5803D000
781A9000
3DED5000
ENDCHAR
STARTCHAR uni01F0
ENCODING 496
SWIDTH 249 0
DWIDTH 2 0
BBX 6 10 -2 -2
BITMAP
004793
000A70
000000
000D00
001D00
004A00
007700
00A400
01E100
2E8000
ENDCHAR
STARTCHAR Aringacute
ENCODING 506
SWIDTH 637 0
DWIDTH 6 0
BBX 7 10 -1 0
BITMAP
00000670
00000A00
00009900
0000FE00
0005B800
000B1B00
00740B00
01EFFF30
08500760
2C000590
ENDCHAR
STARTCHAR aringacute
ENCODING 507
SWIDTH 532 0
DWIDTH 5 0
BBX 5 9 0 0
BITMAP
0002B0
000830
004D00
005D00
08EE40
1615A0
2BEF80
A71950
5EDC40
ENDCHAR
STARTCHAR AEacute
ENCODING 508
SWIDTH 911 0
DWIDTH 9 0
BBX 11 10 -1 0
BITMAP
0000007A0000
000001B10000
000000000000
000009FFFF40
00005AD00000
0003A3B00000
001A16FFF500
00AFFF700000
077009400000
4C000BFFF700
ENDCHAR
STARTCHAR aeacute
ENCODING 509
SWIDTH 823 0
DWIDTH 8 0
BBX 8 8 0 0
BITMAP
00003D10
00009400
00000000
0AED7DE4
1517D22C
4DFFFFFD
C52B8110
7ED6BED3
ENDCHAR
STARTCHAR Oslashacute
ENCODING 510
SWIDTH 671 0
DWIDTH 7 0
BBX 7 11 0 -1
BITMAP
00007A00
0001B100
00000020
008EE960
09913F20
1D01A940
59092B30
67831E00
3D62B800
3CED8000
30000000
ENDCHAR
STARTCHAR oslashacute
ENCODING 511
SWIDTH 554 0
DWIDTH 6 0
BBX 6 9 0 -1
BITMAP
000A70
003A00
000040
06DDA0
4C39D0
9582D1
8967B0
3EEB10
410000
ENDCHAR
STARTCHAR uni0218
ENCODING 536
SWIDTH 580 0
DWIDTH 6 0
BBX 6 10 0 -3
BITMAP
03CEC2
0D406A
0D5002
02BE60
2002D2
A603D1
2BFD50
000000
02A000
074000
ENDCHAR
STARTCHAR uni0219
ENCODING 537
SWIDTH 504 0
DWIDTH 5 0
BBX 5 8 0 -3
BITMAP
09ED30
2D4440
07CD10
631B40
4DE900
000000
066000
091000
ENDCHAR
STARTCHAR uni021A
ENCODING 538
SWIDTH 583 0
DWIDTH 6 0
BBX 7 10 0 -3
BITMAP
2FFFFF30
001D0000
004A0000
00670000
00950000
00C20000
00D00000
00000000
04900000
08300000
ENDCHAR
STARTCHAR uni021B
ENCODING 539
SWIDTH 321 0
DWIDTH 3 0
BBX 4 9 0 -3
BITMAP
0860
9FF2
0C10
1C00
3A00
2E50
0000
0C00
4600
ENDCHAR
STARTCHAR uni0237
ENCODING 567
SWIDTH 249 0
DWIDTH 2 0
BBX 4 7 -2 -2
BITMAP
000D
001D
004A
0077
00A4
01E1
2E80
ENDCHAR
STARTCHAR uni0259
ENCODING 601
SWIDTH 516 0
DWIDTH 5 0
BBX 5 5 0 0
BITMAP
08ED30
0415A0
8FFFB0
871A60
2CE800
ENDCHAR
STARTCHAR uni02BC
ENCODING 700
SWIDTH 198 0
DWIDTH 2 0
BBX 3 2 0 6
BITMAP
0A30
2900
ENDCHAR
STARTCHAR circumflex
ENCODING 710
SWIDTH 461 0
DWIDTH 5 0
BBX 4 2 1 6
BITMAP
2BA0
A6A4
ENDCHAR
STARTCHAR caron
ENCODING 711
SWIDTH 435 0
DWIDTH 4 0
BBX 4 2 1 6
BITMAP
56A2
0C50
ENDCHAR
STARTCHAR uni02C9
ENCODING 713
SWIDTH 449 0
DWIDTH 5 0
BBX 4 1 1 6
BITMAP
BFF7
ENDCHAR
STARTCHAR breve
ENCODING 728
SWIDTH 418 0
DWIDTH 4 0
BBX 4 2 1 6
BITMAP
A3C1
4E80
ENDCHAR
STARTCHAR dotaccent
ENCODING 729
SWIDTH 240 0
DWIDTH 2 0
BBX 2 1 1 6
BITMAP
83
ENDCHAR
STARTCHAR ring
ENCODING 730
SWIDTH 329 0
DWIDTH 3 0
BBX 3 3 1 6
BITMAP
6D10
8640
7D10
ENDCHAR
STARTCHAR ogonek
ENCODING 731
SWIDTH 267 0
DWIDTH 3 0
BBX 3 3 -1 -2
BITMAP
0510
3800
3E20
ENDCHAR
STARTCHAR tilde
ENCODING 732
SWIDTH 462 0
DWIDTH 5 0
BBX 4 2 1 6
BITMAP
7B38
A3D3
ENDCHAR
STARTCHAR hungarumlaut
ENCODING 733
SWIDTH 366 0
DWIDTH 4 0
BBX 4 2 1 6
BITMAP
5BC4
B880
ENDCHAR
STARTCHAR uni02F3
ENCODING 755
SWIDTH 290 0
DWIDTH 3 0
BBX 2 2 0 -3
BITMAP
D5
D4
ENDCHAR
STARTCHAR gravecomb
ENCODING 768
SWIDTH 0 0
DWIDTH 0 0
BBX 3 2 -4 6
BITMAP
1D10
0730
ENDCHAR
STARTCHAR acutecomb
ENCODING 769
SWIDTH 0 0
DWIDTH 0 0
BBX 3 2 -3 6
BITMAP
0C50
5800
ENDCHAR
STARTCHAR tildecomb
ENCODING 771
SWIDTH 0 0
DWIDTH 0 0
BBX 4 2 -4 6
BITMAP
4D2A
93C6
ENDCHAR
STARTCHAR hookabovecomb
ENCODING 777
SWIDTH 0 0
DWIDTH 0 0
BBX 2 2 -3 6
BITMAP
5C
67
ENDCHAR
STARTCHAR uni030F
ENCODING 783
SWIDTH 0 0
DWIDTH 0 0
BBX 4 2 -4 6
BITMAP
9AD1
1C93
ENDCHAR
STARTCHAR dotbelowcomb
ENCODING 803
SWIDTH 0 0
DWIDTH 0 0
BBX 1 1 -4 -2
BITMAP
B0
ENDCHAR
STARTCHAR tonos
ENCODING 900
SWIDTH 253 0
DWIDTH 3 0
BBX 2 2 1 6
BITMAP
39
63
ENDCHAR
STARTCHAR dieresistonos
ENCODING 901
SWIDTH 495 0
DWIDTH 5 0
BBX 4 2 1 6
BITMAP
01A0
A21B
ENDCHAR
STARTCHAR Alphatonos
ENCODING 902
SWIDTH 637 0
DWIDTH 6 0
BBX 7 8 -1 0
BITMAP
00390000
0063C500
0005B800
000B1B00
00740B00
01EFFF30
08500760
2C000590
ENDCHAR
STARTCHAR anoteleia
ENCODING 903
SWIDTH 258 0
DWIDTH 3 0
BBX 2 1 0 3
BITMAP
1B
ENDCHAR
STARTCHAR Epsilontonos
ENCODING 904
SWIDTH 556 0
DWIDTH 6 0
BBX 7 8 -1 0
BITMAP
2B000000
448FFFC0
00B30000
00D00000
01FFFC00
04A00000
07700000
09FFFB00
ENDCHAR
STARTCHAR Etatonos
ENCODING 905
SWIDTH 696 0
DWIDTH 7 0
BBX 8 8 -1 0
BITMAP
1C000000
3585003B
00B30058
00D00086
01FFFFF3
04A000D1
077001D0
094003A0
ENDCHAR
STARTCHAR Iotatonos
ENCODING 906
SWIDTH 268 0
DWIDTH 3 0
BBX 4 8 -1 0
BITMAP
1C00
3676
00A3
00D1
01D0
03B0
0680
0850
ENDCHAR
STARTCHAR Omicrontonos
ENCODING 908
SWIDTH 681 0
DWIDTH 7 0
BBX 7 8 0 0
BITMAP
39000000
638EE700
08A12D20
0D100850
3A000950
4A000D10
1D219900
06EE9000
ENDCHAR
STARTCHAR Upsilontonos
ENCODING 910
SWIDTH 636 0
DWIDTH 6 0
BBX 8 8 -1 0
BITMAP
39000000
63870079
002C03C1
000C2C30
0006D700
0003C000
00059000
00076000
ENDCHAR
STARTCHAR Omegatonos
ENCODING 911
SWIDTH 659 0
DWIDTH 7 0
BBX 7 8 0 0
BITMAP
39000000
649ED400
0A913D00
1E000C20
4A000D00
39003A00
0B22A100
CF8DF700
ENDCHAR
STARTCHAR iotadieresistonos
ENCODING 912
SWIDTH 318 0
DWIDTH 3 0
BBX 4 8 0 0
BITMAP
01A0
A11B
0000
0B20
0D00
1B00
4A00
2E50
ENDCHAR
STARTCHAR Alpha
ENCODING 913
SWIDTH 637 0
DWIDTH 6 0
BBX 7 7 -1 0
BITMAP
0000C500
0005B800
000B1B00
00740B00
01EFFF30
08500760
2C000590
ENDCHAR
STARTCHAR Beta
ENCODING 914
SWIDTH 608 0
DWIDTH 6 0
BBX 6 7 0 0
BITMAP
08FFD3
0B306A
0E0187
1FFFC0
4A00B4
7702D3
9FFD70
ENDCHAR
STARTCHAR Gamma
ENCODING 915
SWIDTH 544 0
DWIDTH 5 0
BBX 6 7 0 0
BITMAP
08FFFB
0B4000
0D1000
1D0000
3B0000
680000
950000
ENDCHAR
STARTCHAR uni0394
ENCODING 916
SWIDTH 688 0
DWIDTH 7 0
BBX 7 7 -1 0
BITMAP
00008A00
0002BC00
000B3B20
00580850
00C10480
085001B0
2FFFFFE0
ENDCHAR
STARTCHAR Epsilon
ENCODING 917
SWIDTH 556 0
DWIDTH 6 0
BBX 6 7 0 0
BITMAP
08FFFC
0B3000
0D0000
1FFFC0
4A0000
770000
9FFFB0
ENDCHAR
STARTCHAR Zeta
ENCODING 918
SWIDTH 585 0
DWIDTH 6 0
BBX 7 7 -1 0
BITMAP
00DFFFE0
00000A50
0000A600
00097000
00880000
07900000
1FFFFF00
ENDCHAR
STARTCHAR Eta
ENCODING 919
SWIDTH 696 0
DWIDTH 7 0
BBX 7 7 0 0
BITMAP
085003B0
0B300580
0D000860
1FFFFF30
4A000D10
77001D00
94003A00
ENDCHAR
STARTCHAR Theta
ENCODING 920
SWIDTH 664 0
DWIDTH 7 0
BBX 7 7 0 0
BITMAP
019ED500
0A813D10
2C000B30
68CFAC20
77001D00
3C12B700
08EE7000
ENDCHAR
STARTCHAR Iota
ENCODING 921
SWIDTH 268 0
DWIDTH 3 0
BBX 3 7 0 0
BITMAP
0760
0A30
0D10
1D00
3B00
6800
8500
ENDCHAR
STARTCHAR Kappa
ENCODING 922
SWIDTH 612 0
DWIDTH 6 0
BBX 7 7 0 0
BITMAP
08503C30
0B33C200
0D4C2000
1EE80000
4C1D2000
7705A000
9400B400
ENDCHAR
STARTCHAR Lambda
ENCODING 923
SWIDTH 640 0
DWIDTH 6 0
BBX 7 7 -1 0
BITMAP
0000C500
0005D800
000D4B00
00690D00
01D10C10
07800A40
1D100770
ENDCHAR
STARTCHAR Mu
ENCODING 924
SWIDTH 851 0
DWIDTH 9 0
BBX 9 7 0 0
BITMAP
08C0002F50
0BD000AE20
0D9304AD00
1C670C4C00
4A2A685900
770DC17600
940B60A400
ENDCHAR
STARTCHAR Nu
ENCODING 925
SWIDTH 696 0
DWIDTH 7 0
BBX 7 7 0 0
BITMAP
08A003B0
0BE20580
0E690860
1C0D1B30
4A078D10
7701DD00
95008A00
ENDCHAR
STARTCHAR Xi
ENCODING 926
SWIDTH 558 0
DWIDTH 6 0
BBX 6 7 0 0
BITMAP
0BFFF9
000000
000000
0DFFA0
000000
000000
DFFF90
ENDCHAR
STARTCHAR Omicron
ENCODING 927
SWIDTH 671 0
DWIDTH 7 0
BBX 7 7 0 0
BITMAP
009EE600
09912D10
1D000A40
59000B30
58001D00
2D21A700
07EE8000
ENDCHAR
STARTCHAR Pi
ENCODING 928
SWIDTH 696 0
DWIDTH 7 0
BBX 7 7 0 0
BITMAP
08FFFFB0
0B400580
0D100850
1D000B30
3B000D00
68001C00
95004A00
ENDCHAR
STARTCHAR Rho
ENCODING 929
SWIDTH 616 0
DWIDTH 6 0
BBX 7 7 0 0
BITMAP
08FFE700
0B302E10
0D004D00
1FFFC400
49000000
77000000
94000000
ENDCHAR
STARTCHAR Sigma
ENCODING 931
SWIDTH 558 0
DWIDTH 6 0
BBX 7 7 -1 0
BITMAP
00FFFF90
00A60000
001C2000
00088000
006A0000
07900000
2FFFFB00
ENDCHAR
STARTCHAR Tau
ENCODING 932
SWIDTH 583 0
DWIDTH 6 0
BBX 7 7 0 0
BITMAP
2FFFFF30
001D0000
004A0000
00670000
00950000
00C20000
00D00000
ENDCHAR
STARTCHAR Upsilon
ENCODING 933
SWIDTH 587 0
DWIDTH 6 0
BBX 7 7 0 0
BITMAP
1D001D30
09509600
04A5B000
00DC1000
00A50000
00C20000
00E00000
ENDCHAR
STARTCHAR Phi
ENCODING 934
SWIDTH 699 0
DWIDTH 7 0
BBX 7 7 0 0
BITMAP
00059000
04CFFB10
2D4A5890
770D13A0
6A2D2B60
09EFD700
00680000
ENDCHAR
STARTCHAR Chi
ENCODING 935
SWIDTH 612 0
DWIDTH 6 0
BBX 7 7 0 0
BITMAP
0C402D20
04B0C400
00CB7000
008D0000
04CC2000
2D269000
C500D200
ENDCHAR
STARTCHAR Psi
ENCODING 936
SWIDTH 675 0
DWIDTH 7 0
BBX 7 7 0 0
BITMAP
0D1770E0
1D0A43B0
3B0D1680
2E4D4D30
06EFC400
00580000
00860000
ENDCHAR
STARTCHAR uni03A9
ENCODING 937
SWIDTH 649 0
DWIDTH 7 0
BBX 6 7 0 0
BITMAP
01AEC3
0B814C
2D000E
59000D
580048
1B13A1
DF7EF5
ENDCHAR
STARTCHAR Iotadieresis
ENCODING 938
SWIDTH 268 0
DWIDTH 3 0
BBX 4 9 0 0
BITMAP
392A
0000
0760
0A30
0D10
1D00
3B00
6800
8500
ENDCHAR
STARTCHAR Upsilondieresis
ENCODING 939
SWIDTH 587 0
DWIDTH 6 0
BBX 7 9 0 0
BITMAP
00838400
00000000
1D001D30
09509600
04A5B000
00DC1000
00A50000
00C20000
00E00000
ENDCHAR
STARTCHAR alphatonos
ENCODING 940
SWIDTH 552 0
DWIDTH 6 0
BBX 6 8 0 0
BITMAP
000760
000800
000000
06ECB2
3C23E0
7601B0
781890
2CE8E0
ENDCHAR
STARTCHAR epsilontonos
ENCODING 941
SWIDTH 527 0
DWIDTH 5 0
BBX 5 8 0 0
BITMAP
000C10
001800
000000
09EE60
3C1250
2DF800
A61530
5DFB10
ENDCHAR
STARTCHAR etatonos
ENCODING 942
SWIDTH 554 0
DWIDTH 6 0
BBX 5 10 0 -2
BITMAP
000A20
000900
000000
0DBE70
3D33C0
6902B0
850580
B20750
000A30
000D00
ENDCHAR
STARTCHAR iotatonos
ENCODING 943
SWIDTH 318 0
DWIDTH 3 0
BBX 3 8 0 0
BITMAP
01B0
0450
0000
0B20
0D00
1B00
4A00
2E50
ENDCHAR
STARTCHAR upsilondieresistonos
ENCODING 944
SWIDTH 533 0
DWIDTH 5 0
BBX 5 8 0 0
BITMAP
000A10
0840B0
000000
0D02B0
2B00D0
5802B0
691B60
1CE900
ENDCHAR
STARTCHAR alpha
ENCODING 945
SWIDTH 552 0
DWIDTH 6 0
BBX 6 5 0 0
BITMAP
06ECB2
3C23E0
7601B0
781890
2CE8E0
ENDCHAR
STARTCHAR beta
ENCODING 946
SWIDTH 579 0
DWIDTH 6 0
BBX 6 9 0 -2
BITMAP
01BEA0
0B61B4
0D01C1
2B6F70
5801D0
7804D0
ACED40
C10000
D00000
ENDCHAR
STARTCHAR gamma
ENCODING 947
SWIDTH 490 0
DWIDTH 5 0
BBX 5 7 0 -2
BITMAP
4902C0
1C0940
0C3B00
0AC300
079000
095000
0B2000
ENDCHAR
STARTCHAR delta
ENCODING 948
SWIDTH 554 0
DWIDTH 6 0
BBX 5 8 0 0
BITMAP
01BFB0
04B120
02DD30
1C25C0
7700E0
9401D0
791980
1BEA10
ENDCHAR
STARTCHAR epsilon
ENCODING 949
SWIDTH 527 0
DWIDTH 5 0
BBX 5 5 0 0
BITMAP
09EE60
3C1250
2DF800
A61530
5DFB10
ENDCHAR
STARTCHAR zeta
ENCODING 950
SWIDTH 507 0
DWIDTH 5 0
BBX 6 9 0 -2
BITMAP
0CFFF3
000780
008700
067000
1C0000
4B0000
1CD500
005A00
007300
ENDCHAR
STARTCHAR eta
ENCODING 951
SWIDTH 554 0
DWIDTH 6 0
BBX 5 7 0 -2
BITMAP
0DBE70
3D33C0
6902B0
850580
B20750
000A30
000D00
ENDCHAR
STARTCHAR theta
ENCODING 952
SWIDTH 557 0
DWIDTH 6 0
BBX 6 7 0 0
BITMAP
02CE80
0B51D1
2B00B2
5FFFF1
6701C0
5A1870
0BEA00
ENDCHAR
STARTCHAR iota
ENCODING 953
SWIDTH 318 0
DWIDTH 3 0
BBX 3 5 0 0
BITMAP
0B20
0D00
1B00
4A00
2E50
ENDCHAR
STARTCHAR kappa
ENCODING 954
SWIDTH 544 0
DWIDTH 5 0
BBX 6 5 0 0
BITMAP
0D05C1
2B6B10
5FE100
869800
A30C40
ENDCHAR
STARTCHAR lambda
ENCODING 955
SWIDTH 541 0
DWIDTH 5 0
BBX 6 7 -1 0
BITMAP
007C00
000D30
000B60
004DA0
00C3D0
0780D2
2D107A
ENDCHAR
STARTCHAR uni03BC
ENCODING 956
SWIDTH 554 0
DWIDTH 6 0
BBX 7 7 -1 -2
BITMAP
00D00C10
02B00D00
05803B00
07A19800
0ADEC500
0D100000
1D000000
ENDCHAR
STARTCHAR nu
ENCODING 957
SWIDTH 474 0
DWIDTH 5 0
BBX 5 5 0 0
BITMAP
5704A0
2A0B20
0C4900
0BB100
088000
ENDCHAR
STARTCHAR xi
ENCODING 958
SWIDTH 480 0
DWIDTH 5 0
BBX 5 9 0 -2
BITMAP
01BED0
088110
086000
04EF20
5A2000
891000
1AE900
001C00
005400
ENDCHAR
STARTCHAR omicron
ENCODING 959
SWIDTH 558 0
DWIDTH 6 0
BBX 6 5 0 0
BITMAP
07EE60
4C23E0
8500D1
7916B0
1BFB10
ENDCHAR
STARTCHAR pi
ENCODING 960
SWIDTH 582 0
DWIDTH 6 0
BBX 6 5 0 0
BITMAP
7FFFFB
0C11C0
1D0490
3A0670
6704E3
ENDCHAR
STARTCHAR rho
ENCODING 961
SWIDTH 554 0
DWIDTH 6 0
BBX 6 7 -1 -2
BITMAP
004DD5
01D32D
05800D
08717A
0BAEC1
0D0000
1C0000
ENDCHAR
STARTCHAR sigma1
ENCODING 962
SWIDTH 526 0
DWIDTH 5 0
BBX 5 7 0 -2
BITMAP
06EE50
3C23A0
760000
6A1000
09E700
002A00
006300
ENDCHAR
STARTCHAR sigma
ENCODING 963
SWIDTH 554 0
DWIDTH 6 0
BBX 6 5 0 0
BITMAP
07DFFC
4C13A0
9500D0
7817A0
1BEB10
ENDCHAR
STARTCHAR tau
ENCODING 964
SWIDTH 510 0
DWIDTH 5 0
BBX 5 5 0 0
BITMAP
4FFFF0
00C100
00C000
02A000
02E700
ENDCHAR
STARTCHAR upsilon
ENCODING 965
SWIDTH 533 0
DWIDTH 5 0
BBX 5 5 0 0
BITMAP
0D02B0
2B00D0
5802B0
691B60
1CE900
ENDCHAR
STARTCHAR phi
ENCODING 966
SWIDTH 688 0
DWIDTH 7 0
BBX 7 7 0 -2
BITMAP
0848E900
4A0E2A50
852D0760
6B6A5D20
19EFB300
00940000
00C10000
ENDCHAR
STARTCHAR chi
ENCODING 967
SWIDTH 485 0
DWIDTH 5 0
BBX 7 7 -1 -2
BITMAP
03D30C20
00698600
001DB000
001E3000
009C6000
04A2B000
1C10A800
ENDCHAR
STARTCHAR psi
ENCODING 968
SWIDTH 684 0
DWIDTH 7 0
BBX 7 7 0 -2
BITMAP
2B0B2860
580D0670
762C0960
5B696E10
09EFB300
00940000
00C10000
ENDCHAR
STARTCHAR omega
ENCODING 969
SWIDTH 803 0
DWIDTH 8 0
BBX 8 5 0 0
BITMAP
0B3000A4
3A035076
77086095
681B82D1
1CD2BE50
ENDCHAR
STARTCHAR iotadieresis
ENCODING 970
SWIDTH 318 0
DWIDTH 3 0
BBX 4 7 0 0
BITMAP
6657
0000
0B20
0D00
1B00
4A00
2E50
ENDCHAR
STARTCHAR upsilondieresis
ENCODING 971
SWIDTH 533 0
DWIDTH 5 0
BBX 5 7 0 0
BITMAP
038390
000000
0D02B0
2B00D0
5802B0
691B60
1CE900
ENDCHAR
STARTCHAR omicrontonos
ENCODING 972
SWIDTH 558 0
DWIDTH 6 0
BBX 6 8 0 0
BITMAP
000B10
000900
000000
07EE60
4C23E0
8500D1
7916B0
1BFB10
ENDCHAR
STARTCHAR upsilontonos
ENCODING 973
SWIDTH 533 0
DWIDTH 5 0
BBX 5 8 0 0
BITMAP
000C00
002700
000000
0D02B0
2B00D0
5802B0
691B60
1CE900
ENDCHAR
STARTCHAR omegatonos
ENCODING 974
SWIDTH 803 0
DWIDTH 8 0
BBX 8 8 0 0
BITMAP
00007600
00008100
00000000
0B3000A4
3A035076
77086095
681B82D1
1CD2BE50
ENDCHAR
STARTCHAR theta1
ENCODING 977
SWIDTH 565 0
DWIDTH 6 0
BBX 6 7 0 0
BITMAP
006EC0
00D2C2
00D3D1
364DF7
7603B0
791960
1BEA00
ENDCHAR
STARTCHAR Upsilon1
ENCODING 978
SWIDTH 520 0
DWIDTH 5 0
BBX 6 7 0 0
BITMAP
6C007D
0B43D1
068C40
02E900
00E100
01C000
04A000
ENDCHAR
STARTCHAR omega1
ENCODING 982
SWIDTH 766 0
DWIDTH 8 0
BBX 8 5 0 0
BITMAP
4FFFFFFB
1C0110C1
670A40D0
682E54B0
2DD5DD30
ENDCHAR
STARTCHAR uni0400
ENCODING 1024
SWIDTH 556 0
DWIDTH 6 0
BBX 6 10 0 0
BITMAP
003B00
000A10
000000
08FFFC
0B3000
0D0000
1FFFC0
4A0000
770000
9FFFB0
ENDCHAR
STARTCHAR uni0401
ENCODING 1025
SWIDTH 556 0
DWIDTH 6 0
BBX 6 9 0 0
BITMAP
008384
000000
08FFFC
0B3000
0D0000
1FFFC0
4A0000
770000
9FFFB0
ENDCHAR
STARTCHAR uni0402
ENCODING 1026
SWIDTH 731 0
DWIDTH 7 0
BBX 7 7 0 0
BITMAP
2FFFFF30
00590000
00860000
00BEFC30
00D305B0
01D01890
04A0DA10
ENDCHAR
STARTCHAR uni0403
ENCODING 1027
SWIDTH 544 0
DWIDTH 5 0
BBX 6 10 0 0
BITMAP
0001D3
000760
000000
08FFFB
0B4000
0D1000
1D0000
3B0000
680000
950000
ENDCHAR
STARTCHAR uni0404
ENCODING 1028
SWIDTH 658 0
DWIDTH 7 0
BBX 7 7 0 0
BITMAP
009EE600
09912D10
1D000410
4FFF5000
58001400
2C21A600
07EE7000
ENDCHAR
STARTCHAR uni0405
ENCODING 1029
SWIDTH 580 0
DWIDTH 6 0
BBX 6 7 0 0
BITMAP
03CEC2
0D406A
0D5002
02BE60
2002D2
A603D1
2BFD50
ENDCHAR
STARTCHAR uni0406
ENCODING 1030
SWIDTH 268 0
DWIDTH 3 0
BBX 3 7 0 0
BITMAP
0760
0A30
0D10
1D00
3B00
6800
8500
ENDCHAR
STARTCHAR uni0407
ENCODING 1031
SWIDTH 268 0
DWIDTH 3 0
BBX 4 9 0 0
BITMAP
392A
0000
0760
0A30
0D10
1D00
3B00
6800
8500
ENDCHAR
STARTCHAR uni0408
ENCODING 1032
SWIDTH 540 0
DWIDTH 5 0
BBX 6 7 0 0
BITMAP
0000A4
0000D1
0000E0
0003B0
100690
C31C40
5EE800
ENDCHAR
STARTCHAR uni0409
ENCODING 1033
SWIDTH 1043 0
DWIDTH 10 0
BBX 11 7 -1 0
BITMAP
0009FFF90000
000D20770000
001D00940000
004A00CFFD40
008600E004C0
03D202B017A0
3E6005FFEB10
ENDCHAR
STARTCHAR uni040A
ENCODING 1034
SWIDTH 1052 0
DWIDTH 11 0
BBX 10 7 0 0
BITMAP
086003B000
0B30068000
0D10096000
1FFFFFFFD5
3B000D103D
68001C006B
95004FFEB2
ENDCHAR
STARTCHAR uni040B
ENCODING 1035
SWIDTH 793 0
DWIDTH 8 0
BBX 7 7 0 0
BITMAP
1FFFFF50
004A0000
00770000
00ADEE60
00C403D0
00E001C0
03B004A0
ENDCHAR
STARTCHAR uni040C
ENCODING 1036
SWIDTH 612 0
DWIDTH 6 0
BBX 7 10 0 0
BITMAP
0002D200
00085000
00000000
08503C30
0B33C200
0D4C2000
1EE80000
4C1D2000
7705A000
9400B400
ENDCHAR
STARTCHAR uni040D
ENCODING 1037
SWIDTH 696 0
DWIDTH 7 0
BBX 7 10 0 0
BITMAP
000A5000
00038000
00000000
086008A0
0B306E80
0D13C950
1D1C2B20
3BB40D00
6E701C00
9A004A00
ENDCHAR
STARTCHAR uni040E
ENCODING 1038
SWIDTH 614 0
DWIDTH 6 0
BBX 7 10 0 0
BITMAP
00487600
001CC100
00000000
0B300C40
07706A00
02B1D200
00C87000
008C0000
01D40000
3E700000
ENDCHAR
STARTCHAR uni040F
ENCODING 1039
SWIDTH 696 0
DWIDTH 7 0
BBX 7 9 0 -2
BITMAP
086003A0
0B300680
0D000950
1C000C20
3A000E00
67002C00
9FFFFA00
00850000
00B30000
ENDCHAR
STARTCHAR uni0410
ENCODING 1040
SWIDTH 637 0
DWIDTH 6 0
BBX 7 7 -1 0
BITMAP
0000C500
0005B800
000B1B00
00740B00
01EFFF30
08500760
2C000590
ENDCHAR
STARTCHAR uni0411
ENCODING 1041
SWIDTH 616 0
DWIDTH 6 0
BBX 6 7 0 0
BITMAP
09FFFA
0C3000
0E0000
2FFFB1
5A0087
7601B6
AFFE80
ENDCHAR
STARTCHAR uni0412
ENCODING 1042
SWIDTH 608 0
DWIDTH 6 0
BBX 6 7 0 0
BITMAP
08FFD3
0B306A
0E0187
1FFFC0
4A00B4
7702D3
9FFD70
ENDCHAR
STARTCHAR uni0413
ENCODING 1043
SWIDTH 544 0
DWIDTH 5 0
BBX 6 7 0 0
BITMAP
08FFFB
0B4000
0D1000
1D0000
3B0000
680000
950000
ENDCHAR
STARTCHAR uni0414
ENCODING 1044
SWIDTH 734 0
DWIDTH 7 0
BBX 8 9 -1 -2
BITMAP
0006FFFB
000A5059
000D2076
002D00A3
008700D0
03C101D0
3FFFFFF8
59000076
860000A4
ENDCHAR
STARTCHAR uni0415
ENCODING 1045
SWIDTH 556 0
DWIDTH 6 0
BBX 6 7 0 0
BITMAP
08FFFC
0B3000
0D0000
1FFFC0
4A0000
770000
9FFFB0
ENDCHAR
STARTCHAR uni0416
ENCODING 1046
SWIDTH 885 0
DWIDTH 9 0
BBX 11 7 -1 0
BITMAP
00B406803C10
004B0851D200
000C2B3B4000
000AFFFA0000
006D2D1E1000
03D24A098000
2D406802E100
ENDCHAR
STARTCHAR uni0417
ENCODING 1047
SWIDTH 580 0
DWIDTH 6 0
BBX 6 7 0 0
BITMAP
03CEC2
0D4079
000197
00CFA0
1001C2
A603D1
2CFC50
ENDCHAR
STARTCHAR uni0418
ENCODING 1048
SWIDTH 696 0
DWIDTH 7 0
BBX 7 7 0 0
BITMAP
086008A0
0B306E80
0D13C950
1D1C2B20
3BB40D00
6E701C00
9A004A00
ENDCHAR
STARTCHAR uni0419
ENCODING 1049
SWIDTH 696 0
DWIDTH 7 0
BBX 7 10 0 0
BITMAP
000C2B00
0007E500
00000000
086008A0
0B306E80
0D13C950
1D1C2B20
3BB40D00
6E701C00
9A004A00
ENDCHAR
STARTCHAR uni041A
ENCODING 1050
SWIDTH 628 0
DWIDTH 6 0
BBX 7 7 0 0
BITMAP
08601C50
0B31C500
0D2C6000
1FFA0000
3B1D2000
6805B000
9500B500
ENDCHAR
STARTCHAR uni041B
ENCODING 1051
SWIDTH 691 0
DWIDTH 7 0
BBX 8 7 -1 0
BITMAP
0009FFFA
000D2067
001D0095
004A00C2
008600D0
03D202C0
3E600590
ENDCHAR
STARTCHAR uni041C
ENCODING 1052
SWIDTH 851 0
DWIDTH 9 0
BBX 9 7 0 0
BITMAP
08C0002F50
0BD000AE20
0D9304AD00
1C670C4C00
4A2A685900
770DC17600
940B60A400
ENDCHAR
STARTCHAR uni041D
ENCODING 1053
SWIDTH 696 0
DWIDTH 7 0
BBX 7 7 0 0
BITMAP
085003B0
0B300580
0D000860
1FFFFF30
4A000D10
77001D00
94003A00
ENDCHAR
STARTCHAR uni041E
ENCODING 1054
SWIDTH 671 0
DWIDTH 7 0
BBX 7 7 0 0
BITMAP
009EE600
09912D10
1D000A40
59000B30
58001D00
2D21A700
07EE8000
ENDCHAR
STARTCHAR uni041F
ENCODING 1055
SWIDTH 696 0
DWIDTH 7 0
BBX 7 7 0 0
BITMAP
08FFFFB0
0B400580
0D100850
1D000B30
3B000D00
68001C00
95004A00
ENDCHAR
STARTCHAR uni0420
ENCODING 1056
SWIDTH 616 0
DWIDTH 6 0
BBX 7 7 0 0
BITMAP
08FFE700
0B302E10
0D004D00
1FFFC400
49000000
77000000
94000000
ENDCHAR
STARTCHAR uni0421
ENCODING 1057
SWIDTH 636 0
DWIDTH 6 0
BBX 7 7 0 0
BITMAP
019EE600
09912D10
1D000310
59000000
68001200
3C11A600
08EE8000
ENDCHAR
STARTCHAR uni0422
ENCODING 1058
SWIDTH 583 0
DWIDTH 6 0
BBX 7 7 0 0
BITMAP
2FFFFF30
001D0000
004A0000
00670000
00950000
00C20000
00D00000
ENDCHAR
STARTCHAR uni0423
ENCODING 1059
SWIDTH 614 0
DWIDTH 6 0
BBX 7 7 0 0
BITMAP
0B300C40
07706A00
02B1D200
00C87000
008C0000
01D40000
3E700000
ENDCHAR
STARTCHAR uni0424
ENCODING 1060
SWIDTH 753 0
DWIDTH 8 0
BBX 8 7 0 0
BITMAP
0000D000
02BFFD60
2D4592D2
770850A3
5A1C26C0
09EFEA20
002C0000
ENDCHAR
STARTCHAR uni0425
ENCODING 1061
SWIDTH 612 0
DWIDTH 6 0
BBX 7 7 0 0
BITMAP
0C402D20
04B0C400
00CB7000
008D0000
04CC2000
2D269000
C500D200
ENDCHAR
STARTCHAR uni0426
ENCODING 1062
SWIDTH 713 0
DWIDTH 7 0
BBX 7 9 0 -2
BITMAP
086003A0
0B300680
0D000950
1C000C20
4A000E00
67002C00
9FFFFF50
00000B20
00000C00
ENDCHAR
STARTCHAR uni0427
ENCODING 1063
SWIDTH 668 0
DWIDTH 7 0
BBX 6 7 1 0
BITMAP
950077
C200A5
D402D2
5EFDE0
0002C0
000590
000760
ENDCHAR
STARTCHAR uni0428
ENCODING 1064
SWIDTH 917 0
DWIDTH 9 0
BBX 9 7 0 0
BITMAP
08604A00E0
0B306703B0
0D00940590
1C00C20860
3A00D00B30
6702B00E10
9FFFFFFD00
ENDCHAR
STARTCHAR uni0429
ENCODING 1065
SWIDTH 944 0
DWIDTH 9 0
BBX 9 9 0 -2
BITMAP
08604A00E0
0B306703B0
0D00940590
1C00C20860
3A00D00B30
6702B00D00
9FFFFFFF80
0000000760
0000000930
ENDCHAR
STARTCHAR uni042A
ENCODING 1066
SWIDTH 740 0
DWIDTH 7 0
BBX 7 7 0 0
BITMAP
4FF90000
00760000
00A40000
00DFFD30
01E005B0
03A01890
06FFEA10
ENDCHAR
STARTCHAR uni042B
ENCODING 1067
SWIDTH 843 0
DWIDTH 8 0
BBX 9 7 0 0
BITMAP
0860000C20
0B30000E00
0D10002C00
1FFFC25900
3B00797700
6701A7A400
9FFE90D100
ENDCHAR
STARTCHAR uni042C
ENCODING 1068
SWIDTH 613 0
DWIDTH 6 0
BBX 6 7 0 0
BITMAP
095000
0C2000
0E0000
2FFFB1
4A0087
7601B6
AFFE80
ENDCHAR
STARTCHAR uni042D
ENCODING 1069
SWIDTH 658 0
DWIDTH 7 0
BBX 7 7 0 0
BITMAP
019ED500
09813D10
05000B30
008FFF20
23001D00
4C12B600
08ED7000
ENDCHAR
STARTCHAR uni042E
ENCODING 1070
SWIDTH 872 0
DWIDTH 9 0
BBX 9 7 0 0
BITMAP
07607EE800
0A37B21C40
0D1E100770
1FFC000860
3B3B000C20
681E318A00
8505DE9100
ENDCHAR
STARTCHAR uni042F
ENCODING 1071
SWIDTH 622 0
DWIDTH 6 0
BBX 6 7 0 0
BITMAP
01AEFE
0A811C
0D0049
0D4067
04FFF4
0A50B1
A600D0
ENDCHAR
STARTCHAR uni0430
ENCODING 1072
SWIDTH 532 0
DWIDTH 5 0
BBX 5 5 0 0
BITMAP
08EE40
1615A0
2BEF80
A71950
5EDC40
ENDCHAR
STARTCHAR uni0431
ENCODING 1073
SWIDTH 541 0
DWIDTH 5 0
BBX 6 8 0 0
BITMAP
0003B4
02CB60
0B4000
3CDE50
7B13D0
9500D0
7817A0
0BEB10
ENDCHAR
STARTCHAR uni0432
ENCODING 1074
SWIDTH 559 0
DWIDTH 6 0
BBX 5 5 0 0
BITMAP
0EFE90
2C02D0
5FFF50
7605B0
AFFD50
ENDCHAR
STARTCHAR uni0433
ENCODING 1075
SWIDTH 411 0
DWIDTH 4 0
BBX 5 5 0 0
BITMAP
0EFF50
2C0000
590000
860000
A30000
ENDCHAR
STARTCHAR uni0434
ENCODING 1076
SWIDTH 590 0
DWIDTH 6 0
BBX 7 7 -1 -2
BITMAP
002FFF30
00690C00
00B41C00
05A04900
3FFFFF10
58000D00
76001C00
ENDCHAR
STARTCHAR uni0435
ENCODING 1077
SWIDTH 518 0
DWIDTH 5 0
BBX 5 5 0 0
BITMAP
06ED40
4C13B0
8FFFC0
770210
1BFB20
ENDCHAR
STARTCHAR uni0436
ENCODING 1078
SWIDTH 747 0
DWIDTH 7 0
BBX 9 5 -1 0
BITMAP
01D1671D30
008695C400
004FFF9000
02D3D2D100
2D32B08700
ENDCHAR
STARTCHAR uni0437
ENCODING 1079
SWIDTH 497 0
DWIDTH 5 0
BBX 5 5 0 0
BITMAP
09ED30
271970
06FD00
731C20
5DE900
ENDCHAR
STARTCHAR uni0438
ENCODING 1080
SWIDTH 564 0
DWIDTH 6 0
BBX 6 5 0 0
BITMAP
0D02E3
2B1BE0
59A5C0
7D6490
A80770
ENDCHAR
STARTCHAR uni0439
ENCODING 1081
SWIDTH 564 0
DWIDTH 6 0
BBX 6 8 0 0
BITMAP
00B2C0
006E60
000000
0D02E3
2B1BE0
59A5C0
7D6490
A80770
ENDCHAR
STARTCHAR uni043A
ENCODING 1082
SWIDTH 528 0
DWIDTH 5 0
BBX 6 5 0 0
BITMAP
0D04C1
2B5C10
5FF200
767900
A30C40
ENDCHAR
STARTCHAR uni043B
ENCODING 1083
SWIDTH 565 0
DWIDTH 6 0
BBX 7 5 -1 0
BITMAP
005FFF30
00860C00
00C21C00
03D03A00
4E406700
ENDCHAR
STARTCHAR uni043C
ENCODING 1084
SWIDTH 724 0
DWIDTH 7 0
BBX 7 5 0 0
BITMAP
0E6009C0
2DA03E90
59C0B960
769A6A30
A35B0D10
ENDCHAR
STARTCHAR uni043D
ENCODING 1085
SWIDTH 564 0
DWIDTH 6 0
BBX 6 5 0 0
BITMAP
0D00B3
2B00D0
5FFFC0
760490
A30770
ENDCHAR
STARTCHAR uni043E
ENCODING 1086
SWIDTH 558 0
DWIDTH 6 0
BBX 6 5 0 0
BITMAP
07EE60
4C23E0
8500D1
7916B0
1BFB10
ENDCHAR
STARTCHAR uni043F
ENCODING 1087
SWIDTH 564 0
DWIDTH 6 0
BBX 6 5 0 0
BITMAP
0EFFF3
2C00C0
5901C0
760390
A30670
ENDCHAR
STARTCHAR uni0440
ENCODING 1088
SWIDTH 549 0
DWIDTH 6 0
BBX 6 7 -1 -2
BITMAP
01DCE6
03C22D
06700D
097189
0BAEC1
0D0000
2C0000
ENDCHAR
STARTCHAR uni0441
ENCODING 1089
SWIDTH 512 0
DWIDTH 5 0
BBX 5 5 0 0
BITMAP
06EE50
4C2390
850000
881540
1CEA10
ENDCHAR
STARTCHAR uni0442
ENCODING 1090
SWIDTH 470 0
DWIDTH 5 0
BBX 5 5 0 0
BITMAP
7FFFC0
00D000
02B000
058000
085000
ENDCHAR
STARTCHAR uni0443
ENCODING 1091
SWIDTH 463 0
DWIDTH 5 0
BBX 6 7 -1 -2
BITMAP
06805A
03A0C2
00C580
00BC10
009700
03D100
6E4000
ENDCHAR
STARTCHAR uni0444
ENCODING 1092
SWIDTH 708 0
DWIDTH 7 0
BBX 7 10 0 -2
BITMAP
0004A000
00068000
00086000
08EEED20
4C1C2870
851D0670
974A1C40
3EEEE800
00850000
00B20000
ENDCHAR
STARTCHAR uni0445
ENCODING 1093
SWIDTH 485 0
DWIDTH 5 0
BBX 6 5 -1 0
BITMAP
02C088
0099A0
004E10
02CA50
1C32C0
ENDCHAR
STARTCHAR uni0446
ENCODING 1094
SWIDTH 579 0
DWIDTH 6 0
BBX 6 7 0 -2
BITMAP
0D00B3
2B00D0
5802C0
750590
AFFFF0
0000C0
0002A0
ENDCHAR
STARTCHAR uni0447
ENCODING 1095
SWIDTH 532 0
DWIDTH 5 0
BBX 5 5 0 0
BITMAP
2B01D0
4A05B0
1CEE80
000850
000B30
ENDCHAR
STARTCHAR uni0448
ENCODING 1096
SWIDTH 789 0
DWIDTH 8 0
BBX 8 5 0 0
BITMAP
0D03A077
2B0670A4
580940D1
750C11D0
AFFFFFB0
ENDCHAR
STARTCHAR uni0449
ENCODING 1097
SWIDTH 807 0
DWIDTH 8 0
BBX 8 7 0 -2
BITMAP
0D04A086
3A0770B3
670A40D0
840D11C0
BFFFFFF5
000000A3
000000C0
ENDCHAR
STARTCHAR uni044A
ENCODING 1098
SWIDTH 606 0
DWIDTH 6 0
BBX 6 5 0 0
BITMAP
8FD000
02B000
05FFD3
085097
0BFFB2
ENDCHAR
STARTCHAR uni044B
ENCODING 1099
SWIDTH 757 0
DWIDTH 8 0
BBX 7 5 0 0
BITMAP
0D0000D0
2C0001C0
5FFD4490
76089760
AFFC2940
ENDCHAR
STARTCHAR uni044C
ENCODING 1100
SWIDTH 531 0
DWIDTH 5 0
BBX 5 5 0 0
BITMAP
0D0000
2C0000
5FFD40
760890
AFFC20
ENDCHAR
STARTCHAR uni044D
ENCODING 1101
SWIDTH 526 0
DWIDTH 5 0
BBX 5 5 0 0
BITMAP
08EC20
391690
02FF90
951A50
3DE700
ENDCHAR
STARTCHAR uni044E
ENCODING 1102
SWIDTH 796 0
DWIDTH 8 0
BBX 8 5 0 0
BITMAP
0D03CEA0
2B0D51A6
5FFB0076
763D13D2
A308ED50
ENDCHAR
STARTCHAR uni044F
ENCODING 1103
SWIDTH 537 0
DWIDTH 5 0
BBX 6 5 -1 0
BITMAP
01AEFE
05B13B
01DFF8
03C185
1C20B3
ENDCHAR
STARTCHAR uni0450
ENCODING 1104
SWIDTH 518 0
DWIDTH 5 0
BBX 5 8 0 0
BITMAP
00C300
004600
000000
06ED40
4C13B0
8FFFC0
770210
1BFB20
ENDCHAR
STARTCHAR uni0451
ENCODING 1105
SWIDTH 518 0
DWIDTH 5 0
BBX 5 7 0 0
BITMAP
0292A0
000000
06ED40
4C13B0
8FFFC0
770210
1BFB20
ENDCHAR
STARTCHAR uni0452
ENCODING 1106
SWIDTH 539 0
DWIDTH 5 0
BBX 5 10 0 -2
BITMAP
094000
8FF700
0D0000
1EBE60
4D34B0
6803A0
950670
B20940
001D20
02E800
ENDCHAR
STARTCHAR uni0453
ENCODING 1107
SWIDTH 411 0
DWIDTH 4 0
BBX 5 8 0 0
BITMAP
003D10
009300
000000
0EFF50
2C0000
590000
860000
A30000
ENDCHAR
STARTCHAR uni0454
ENCODING 1108
SWIDTH 526 0
DWIDTH 5 0
BBX 5 5 0 0
BITMAP
06DE50
3B22C0
7FF500
681650
1BEA10
ENDCHAR
STARTCHAR uni0455
ENCODING 1109
SWIDTH 504 0
DWIDTH 5 0
BBX 5 5 0 0
BITMAP
09ED30
2D4440
07CD10
631B40
4DE900
ENDCHAR
STARTCHAR uni0456
ENCODING 1110
SWIDTH 240 0
DWIDTH 2 0
BBX 3 7 0 0
BITMAP
0830
0000
0D00
2B00
5900
7600
A300
ENDCHAR
STARTCHAR uni0457
ENCODING 1111
SWIDTH 244 0
DWIDTH 2 0
BBX 4 7 0 0
BITMAP
8384
0000
0D00
2B00
5900
8600
A300
ENDCHAR
STARTCHAR uni0458
ENCODING 1112
SWIDTH 236 0
DWIDTH 2 0
BBX 5 9 -2 -2
BITMAP
000930
000000
000D00
003B00
006800
009500
00B300
02E000
2E8000
ENDCHAR
STARTCHAR uni0459
ENCODING 1113
SWIDTH 827 0
DWIDTH 8 0
BBX 9 5 -1 0
BITMAP
005FFF0000
00960C0000
00C23FFE50
04D0670790
4E409FFC30
ENDCHAR
STARTCHAR uni045A
ENCODING 1114
SWIDTH 840 0
DWIDTH 8 0
BBX 8 5 0 0
BITMAP
0D00B300
2C00D000
5FFFFFE6
7703905C
A306FFD4
ENDCHAR
STARTCHAR uni045B
ENCODING 1115
SWIDTH 554 0
DWIDTH 6 0
BBX 5 8 0 0
BITMAP
094000
6FF900
0D0000
1EBE60
4D34B0
6803A0
950670
B20940
ENDCHAR
STARTCHAR uni045C
ENCODING 1116
SWIDTH 528 0
DWIDTH 5 0
BBX 6 8 0 0
BITMAP
000A70
003A00
000000
0D04C1
2B5C10
5FF200
767900
A30C40
ENDCHAR
STARTCHAR uni045D
ENCODING 1117
SWIDTH 564 0
DWIDTH 6 0
BBX 6 8 0 0
BITMAP
00A500
002800
000000
0D02E3
2B1BE0
59A5C0
7D6490
A80770
ENDCHAR
STARTCHAR uni045E
ENCODING 1118
SWIDTH 463 0
DWIDTH 5 0
BBX 6 10 -1 -2
BITMAP
003967
000BD1
000000
06805A
03A0C2
00C580
00BC10
009700
03D100
6E4000
ENDCHAR
STARTCHAR uni045F
ENCODING 1119
SWIDTH 564 0
DWIDTH 6 0
BBX 6 7 0 -2
BITMAP
0D00B3
2B00D0
5802C0
750590
AFFF70
03A000
058000
ENDCHAR
STARTCHAR uni0460
ENCODING 1120
SWIDTH 857 0
DWIDTH 9 0
BBX 9 7 0 0
BITMAP
0950870680
0B20A40950
0D00D10C30
1C01D00E00
4904B02C00
5B1AC18900
1BE78EB100
ENDCHAR
STARTCHAR uni0461
ENCODING 1121
SWIDTH 752 0
DWIDTH 8 0
BBX 8 5 0 0
BITMAP
1C0580A4
3A0850D1
670B21D0
873F36A0
3DD8ED30
ENDCHAR
STARTCHAR uni0462
ENCODING 1122
SWIDTH 613 0
DWIDTH 6 0
BBX 6 7 0 0
BITMAP
095000
BFF400
0D0000
1FFFB1
4A0087
7601B6
AFFE80
ENDCHAR
STARTCHAR uni0463
ENCODING 1123
SWIDTH 530 0
DWIDTH 5 0
BBX 5 8 0 0
BITMAP
086000
0A3000
BFF900
0D0000
2FFD30
580690
850870
AFFB10
ENDCHAR
STARTCHAR uni0464
ENCODING 1124
SWIDTH 874 0
DWIDTH 9 0
BBX 9 7 0 0
BITMAP
07607DE700
0A47B21C30
0D1D100320
1FFFFF5000
3B3A001400
692D219800
8606EE9000
ENDCHAR
STARTCHAR uni0465
ENCODING 1125
SWIDTH 728 0
DWIDTH 7 0
BBX 7 5 0 0
BITMAP
0D07EE60
2B4C2280
5FFFF600
86871640
A32CEA10
ENDCHAR
STARTCHAR uni0466
ENCODING 1126
SWIDTH 589 0
DWIDTH 6 0
BBX 7 7 -1 0
BITMAP
0000D400
0006C700
001C4900
00761C00
01EFFE00
087A4B20
2D0C1950
ENDCHAR
STARTCHAR uni0467
ENCODING 1127
SWIDTH 522 0
DWIDTH 5 0
BBX 6 5 -1 0
BITMAP
000B60
005BA0
01C1D0
08FFF2
3C5986
ENDCHAR
STARTCHAR uni0468
ENCODING 1128
SWIDTH 858 0
DWIDTH 9 0
BBX 8 7 0 0
BITMAP
068006C0
09501CD0
0C2077A2
0E01C085
2FFFFFF7
4A1D3C4A
7786591D
ENDCHAR
STARTCHAR uni0469
ENCODING 1129
SWIDTH 737 0
DWIDTH 7 0
BBX 7 5 0 0
BITMAP
0C109800
0D03BC00
2B0C2C10
5FFFFF40
87B4B670
ENDCHAR
STARTCHAR uni046A
ENCODING 1130
SWIDTH 831 0
DWIDTH 8 0
BBX 8 7 0 0
BITMAP
00BFFFF5
00490580
000C5B00
08EFFEA0
5B1591B5
96086095
B30B30C2
ENDCHAR
STARTCHAR uni046B
ENCODING 1131
SWIDTH 717 0
DWIDTH 7 0
BBX 7 5 0 0
BITMAP
01EFFC10
00859100
1AEFE800
792C2E00
B3490D00
ENDCHAR
STARTCHAR uni046C
ENCODING 1132
SWIDTH 1098 0
DWIDTH 11 0
BBX 11 7 0 0
BITMAP
07601FFFFE20
0A300940A400
0D1003B86000
1FFFFFFFE700
3B0881A43E00
680D10D10E00
851D01D01C00
ENDCHAR
STARTCHAR uni046D
ENCODING 1133
SWIDTH 952 0
DWIDTH 10 0
BBX 9 5 0 0
BITMAP
0D00AFFF40
2B00397500
5FFFFFFB10
861C1B3A50
A3580D0850
ENDCHAR
STARTCHAR uni046E
ENCODING 1134
SWIDTH 506 0
DWIDTH 5 0
BBX 6 12 -1 -2
BITMAP
00084B
0001D2
000000
00BFC2
00005A
000188
008FB0
0001B3
0002D2
0BFD50
3B0000
0A1000
ENDCHAR
STARTCHAR uni046F
ENCODING 1135
SWIDTH 472 0
DWIDTH 5 0
BBX 6 10 -1 -2
BITMAP
003893
000A70
000000
01FFB1
0001C2
00CF80
0003D0
1BFD50
3B0000
0A1000
ENDCHAR
STARTCHAR uni0470
ENCODING 1136
SWIDTH 675 0
DWIDTH 7 0
BBX 7 7 0 0
BITMAP
0D1770E0
1D0A43B0
3B0D1680
2E4D4D30
06EFC400
00580000
00860000
ENDCHAR
STARTCHAR uni0471
ENCODING 1137
SWIDTH 684 0
DWIDTH 7 0
BBX 7 7 0 -2
BITMAP
2B0B2860
580D0670
762C0960
5B696E10
09EFB300
00940000
00C10000
ENDCHAR
STARTCHAR uni0472
ENCODING 1138
SWIDTH 664 0
DWIDTH 7 0
BBX 7 7 0 0
BITMAP
019ED500
0A713D10
2B000B30
6FFFFF20
77001D00
3C12A700
08EE7000
ENDCHAR
STARTCHAR uni0473
ENCODING 1139
SWIDTH 555 0
DWIDTH 6 0
BBX 6 5 0 0
BITMAP
06EE60
4C22D0
8FFFF1
8705B0
1CFB10
ENDCHAR
STARTCHAR uni0474
ENCODING 1140
SWIDTH 615 0
DWIDTH 6 0
BBX 7 7 0 0
BITMAP
1D000A80
0D005B10
0B20C300
0945A000
067C2000
04C90000
01F20000
ENDCHAR
STARTCHAR uni0475
ENCODING 1141
SWIDTH 491 0
DWIDTH 5 0
BBX 6 5 0 0
BITMAP
4903E3
1B0C50
0C4A00
0BB200
087000
ENDCHAR
STARTCHAR uni0476
ENCODING 1142
SWIDTH 615 0
DWIDTH 6 0
BBX 7 10 0 0
BITMAP
05DC4000
00A87000
00000000
1D000A80
0D005B10
0B20C300
0945A000
067C2000
04C90000
01F20000
ENDCHAR
STARTCHAR uni0477
ENCODING 1143
SWIDTH 491 0
DWIDTH 5 0
BBX 6 8 0 0
BITMAP
1EA800
068A00
000000
4903E3
1B0C50
0C4A00
0BB200
087000
ENDCHAR
STARTCHAR uni0478
ENCODING 1144
SWIDTH 1135 0
DWIDTH 11 0
BBX 12 9 0 -2
BITMAP
009EE6000000
09912D100000
1D000A4A4095
59000B3762C0
58001D049940
2D21A701DB00
07EE8000D300
00000007A000
000000AC1000
ENDCHAR
STARTCHAR uni0479
ENCODING 1145
SWIDTH 1021 0
DWIDTH 10 0
BBX 11 7 0 -2
BITMAP
07EE60C20B30
4C23E0944A00
8500D166B200
7916B03C9000
1BFB101E1000
000001980000
00000CB00000
ENDCHAR
STARTCHAR uni047A
ENCODING 1146
SWIDTH 664 0
DWIDTH 7 0
BBX 7 9 0 -1
BITMAP
00034000
019EE500
0A855E10
2C000B30
68000C20
77001D00
4B44B700
09FE7000
00720000
ENDCHAR
STARTCHAR uni047B
ENCODING 1147
SWIDTH 554 0
DWIDTH 6 0
BBX 6 7 0 -1
BITMAP
001600
06EF70
3C55D1
8500C1
7875C0
1CFB20
016000
ENDCHAR
STARTCHAR uni047C
ENCODING 1148
SWIDTH 854 0
DWIDTH 9 0
BBX 9 10 0 0
BITMAP
0001DC4000
000473C500
0000470000
02C5006900
0B60001D10
0E00000C10
2C01D00D00
5904A03B00
5A1AB19700
1BE8AEB100
ENDCHAR
STARTCHAR uni047D
ENCODING 1149
SWIDTH 749 0
DWIDTH 8 0
BBX 7 8 0 0
BITMAP
0008E600
000B1990
0001A000
08A00680
3C1001D0
670820D0
773E36A0
3DD8ED20
ENDCHAR
STARTCHAR uni047E
ENCODING 1150
SWIDTH 857 0
DWIDTH 9 0
BBX 9 10 0 0
BITMAP
0009FFF400
0000390000
0000000000
0950870680
0B20A40950
0D00D10C30
1C01D00E00
4904B02C00
5B1AC18900
1BE99EB100
ENDCHAR
STARTCHAR uni047F
ENCODING 1151
SWIDTH 752 0
DWIDTH 8 0
BBX 8 8 0 0
BITMAP
006FFF60
0001B000
00000000
1C0580A4
3A0850D1
670B21D0
873F36A0
3DD8ED30
ENDCHAR
STARTCHAR uni0480
ENCODING 1152
SWIDTH 634 0
DWIDTH 6 0
BBX 6 9 0 -2
BITMAP
01AED5
0A813E
2D0005
590000
680000
4C1000
09F500
00B200
00D000
ENDCHAR
STARTCHAR uni0481
ENCODING 1153
SWIDTH 523 0
DWIDTH 5 0
BBX 5 7 0 -2
BITMAP
06EE40
3C23B0
850000
780000
1CB000
049000
067000
ENDCHAR
STARTCHAR uni0482
ENCODING 1154
SWIDTH 609 0
DWIDTH 6 0
BBX 6 7 0 0
BITMAP
000048
0078B1
000BB2
235824
1BD000
0A9900
580100
ENDCHAR
STARTCHAR uni0483
ENCODING 1155
SWIDTH 0 0
DWIDTH 0 0
BBX 4 3 -4 5
BITMAP
0006
BFFA
7000
ENDCHAR
STARTCHAR uni0484
ENCODING 1156
SWIDTH 0 0
DWIDTH 0 0
BBX 4 2 -4 6
BITMAP
06D8
A91A
ENDCHAR
STARTCHAR uni0485
ENCODING 1157
SWIDTH 0 0
DWIDTH 0 0
BBX 2 2 -3 6
BITMAP
57
17
ENDCHAR
STARTCHAR uni0486
ENCODING 1158
SWIDTH 0 0
DWIDTH 0 0
BBX 3 2 -3 6
BITMAP
0C10
1800
ENDCHAR
STARTCHAR uni0488
ENCODING 1160
SWIDTH 0 0
DWIDTH 0 0
BBX 10 10 -8 -3
BITMAP
0000099000
008A0542E3
0054000334
0000000000
0C60000099
1440000054
07B0001D40
0540002340
0001D50000
0002340000
ENDCHAR
STARTCHAR uni0489
ENCODING 1161
SWIDTH 0 0
DWIDTH 0 0
BBX 9 9 -7 -2
BITMAP
0000260000
0250614910
0080001000
0000000000
9500000A50
0000000000
0200025000
5816107000
0009000000
ENDCHAR
STARTCHAR uni048A
ENCODING 1162
SWIDTH 736 0
DWIDTH 7 0
BBX 7 11 0 -1
BITMAP
000C2B00
0008E400
00000000
086008A0
0B306E80
0D13C950
1D1C2B20
3BB40D00
6E701C00
9A004F60
00000A10
ENDCHAR
STARTCHAR uni048B
ENCODING 1163
SWIDTH 602 0
DWIDTH 6 0
BBX 6 9 0 -1
BITMAP
00C2B0
007E50
000000
0D02E3
2B1BE0
59A5C0
7D64A0
A807F3
000290
ENDCHAR
STARTCHAR uni048C
ENCODING 1164
SWIDTH 613 0
DWIDTH 6 0
BBX 6 7 0 0
BITMAP
095000
BFF400
0D0000
1FFFB1
4A0087
7601B6
AFFE80
ENDCHAR
STARTCHAR uni048D
ENCODING 1165
SWIDTH 530 0
DWIDTH 5 0
BBX 5 8 0 0
BITMAP
066000
8FFC00
0B2000
0C0000
2FFD30
580690
850870
AFFB10
ENDCHAR
STARTCHAR uni048E
ENCODING 1166
SWIDTH 624 0
DWIDTH 6 0
BBX 7 7 0 0
BITMAP
09FFD700
0B302E10
0D01AD00
2FFED800
49000300
77000000
94000000
ENDCHAR
STARTCHAR uni048F
ENCODING 1167
SWIDTH 554 0
DWIDTH 6 0
BBX 6 7 -1 -2
BITMAP
01DCE6
03C22D
06701D
0972D9
0BBEE4
0D0011
2C0000
ENDCHAR
STARTCHAR uni0490
ENCODING 1168
SWIDTH 536 0
DWIDTH 5 0
BBX 6 9 0 0
BITMAP
00000D
00001C
09FFFA
0C3000
0E0000
2C0000
590000
770000
A40000
ENDCHAR
STARTCHAR uni0491
ENCODING 1169
SWIDTH 437 0
DWIDTH 4 0
BBX 5 7 0 0
BITMAP
000580
000760
0FFF40
3B0000
680000
850000
B20000
ENDCHAR
STARTCHAR uni0492
ENCODING 1170
SWIDTH 544 0
DWIDTH 5 0
BBX 6 7 0 0
BITMAP
08FFFB
0B4000
0D1000
DFF200
3B0000
680000
950000
ENDCHAR
STARTCHAR uni0493
ENCODING 1171
SWIDTH 411 0
DWIDTH 4 0
BBX 6 5 -1 0
BITMAP
00EFF5
02C000
1FFE00
076000
0A3000
ENDCHAR
STARTCHAR uni0494
ENCODING 1172
SWIDTH 593 0
DWIDTH 6 0
BBX 6 8 0 -1
BITMAP
08FFFB
0B4000
0D1000
1FFD50
3B03D1
6800C2
9505C0
007C30
ENDCHAR
STARTCHAR uni0495
ENCODING 1173
SWIDTH 492 0
DWIDTH 5 0
BBX 5 6 0 -1
BITMAP
0FFF40
3B0000
6FE700
861D20
B34D10
01D400
ENDCHAR
STARTCHAR uni0496
ENCODING 1174
SWIDTH 930 0
DWIDTH 9 0
BBX 11 9 -1 -2
BITMAP
00B406803C10
004B0851D200
000C2B3B4000
000AFFFA0000
006D2D1E1000
03D24A098000
2D406802FB00
000000006800
000000008600
ENDCHAR
STARTCHAR uni0497
ENCODING 1175
SWIDTH 778 0
DWIDTH 8 0
BBX 9 7 -1 -2
BITMAP
01D1671D30
008695C400
004FFF9000
02D3D2D100
2D32B08F20
0000000D00
0000001D00
ENDCHAR
STARTCHAR uni0498
ENCODING 1176
SWIDTH 580 0
DWIDTH 6 0
BBX 6 9 0 -2
BITMAP
03CEC2
0D4079
000197
00CFA0
1001C2
A603D1
2DFC50
03A000
058000
ENDCHAR
STARTCHAR uni0499
ENCODING 1177
SWIDTH 497 0
DWIDTH 5 0
BBX 5 7 0 -2
BITMAP
09ED30
271970
06FD00
731C20
5FF900
0A4000
0C2000
ENDCHAR
STARTCHAR uni049A
ENCODING 1178
SWIDTH 684 0
DWIDTH 7 0
BBX 7 9 0 -2
BITMAP
08601C50
0B31C500
0D2C6000
1FFA0000
3B1D2000
6805B000
9500BF00
00001C00
00004A00
ENDCHAR
STARTCHAR uni049B
ENCODING 1179
SWIDTH 577 0
DWIDTH 6 0
BBX 6 7 0 -2
BITMAP
0D04C1
2B5C10
5FF200
767900
A30CF0
0000D0
0002B0
ENDCHAR
STARTCHAR uni049C
ENCODING 1180
SWIDTH 615 0
DWIDTH 6 0
BBX 7 7 0 0
BITMAP
09500C40
0C418700
0D86B000
2FFF3000
4AB78000
7722E000
A400B500
ENDCHAR
STARTCHAR uni049D
ENCODING 1181
SWIDTH 549 0
DWIDTH 6 0
BBX 6 5 0 0
BITMAP
0D10C4
2BA960
5FFC00
889C30
A306A0
ENDCHAR
STARTCHAR uni049E
ENCODING 1182
SWIDTH 638 0
DWIDTH 6 0
BBX 7 7 0 0
BITMAP
06701C60
9FF7C700
0B3B7000
0EFC0000
2C1D3000
4904C000
77009700
ENDCHAR
STARTCHAR uni049F
ENCODING 1183
SWIDTH 508 0
DWIDTH 5 0
BBX 5 8 0 0
BITMAP
076000
BFF400
0C2000
0D05B0
2C4C10
4FF300
777900
A40C30
ENDCHAR
STARTCHAR uni04A0
ENCODING 1184
SWIDTH 798 0
DWIDTH 8 0
BBX 8 7 1 0
BITMAP
FFF204D2
00D03D20
02B3D300
04FF6000
0774D000
0A409700
0D101D20
ENDCHAR
STARTCHAR uni04A1
ENCODING 1185
SWIDTH 673 0
DWIDTH 7 0
BBX 7 5 0 0
BITMAP
6FF70A60
0094B600
00CF9000
00D1D200
03B04C00
ENDCHAR
STARTCHAR uni04A2
ENCODING 1186
SWIDTH 731 0
DWIDTH 7 0
BBX 7 9 0 -2
BITMAP
085003B0
0B300580
0D000860
1FFFFF30
4A000D10
77001D00
94003F60
00000940
00000B20
ENDCHAR
STARTCHAR uni04A3
ENCODING 1187
SWIDTH 592 0
DWIDTH 6 0
BBX 6 7 0 -2
BITMAP
0D00B3
2B00D0
5FFFC0
760490
A307F3
0000D1
0000D0
ENDCHAR
STARTCHAR uni04A4
ENCODING 1188
SWIDTH 951 0
DWIDTH 10 0
BBX 10 7 0 0
BITMAP
095003FFFC
0B30059000
0E00086000
2FFFFF3000
4A000D1000
77001D0000
94003A0000
ENDCHAR
STARTCHAR uni04A5
ENCODING 1189
SWIDTH 696 0
DWIDTH 7 0
BBX 7 5 0 0
BITMAP
0D00CFE0
3A00E000
6FFFC000
85059000
B2076000
ENDCHAR
STARTCHAR uni04A6
ENCODING 1190
SWIDTH 998 0
DWIDTH 10 0
BBX 10 8 0 -1
BITMAP
08FFFFA000
0B40058000
0D10085000
1D000BFD50
3A000D13D1
68001D00B2
95004A05D0
0000007C30
ENDCHAR
STARTCHAR uni04A7
ENCODING 1191
SWIDTH 848 0
DWIDTH 8 0
BBX 8 6 0 -1
BITMAP
0FFFF200
3B00C000
6801FFC3
8504906B
B2076189
000007A1
ENDCHAR
STARTCHAR uni04A8
ENCODING 1192
SWIDTH 723 0
DWIDTH 7 0
BBX 8 7 0 0
BITMAP
02C6AE70
0B6791E0
2C0C20D1
590E00D0
681E0490
3D2C5C30
06EEFE50
ENDCHAR
STARTCHAR uni04A9
ENCODING 1193
SWIDTH 589 0
DWIDTH 6 0
BBX 6 5 0 0
BITMAP
088CD2
4B7886
769485
6987C1
1AEFE2
ENDCHAR
STARTCHAR uni04AA
ENCODING 1194
SWIDTH 636 0
DWIDTH 6 0
BBX 7 9 0 -2
BITMAP
019EE600
09912D10
1D000310
59000000
68001200
3C11A600
08FF8000
00D00000
00D00000
ENDCHAR
STARTCHAR uni04AB
ENCODING 1195
SWIDTH 512 0
DWIDTH 5 0
BBX 5 7 0 -2
BITMAP
06EE50
4C2390
850000
881540
1FFA10
086000
0A3000
ENDCHAR
STARTCHAR uni04AC
ENCODING 1196
SWIDTH 583 0
DWIDTH 6 0
BBX 7 9 0 -2
BITMAP
2FFFFF30
001D0000
004A0000
00670000
00950000
00C20000
00FA0000
00670000
00850000
ENDCHAR
STARTCHAR uni04AD
ENCODING 1197
SWIDTH 470 0
DWIDTH 5 0
BBX 5 7 0 -2
BITMAP
7FFFC0
00D000
02B000
058000
08F100
00D000
01C000
ENDCHAR
STARTCHAR uni04AE
ENCODING 1198
SWIDTH 587 0
DWIDTH 6 0
BBX 7 7 0 0
BITMAP
1D001D30
09509600
04A5B000
00DC1000
00A50000
00C20000
00E00000
ENDCHAR
STARTCHAR uni04AF
ENCODING 1199
SWIDTH 490 0
DWIDTH 5 0
BBX 5 7 0 -2
BITMAP
4902C0
1C0940
0C3B00
0AC300
079000
095000
0B2000
ENDCHAR
STARTCHAR uni04B0
ENCODING 1200
SWIDTH 587 0
DWIDTH 6 0
BBX 7 7 0 0
BITMAP
1E001D30
0A509700
05A5C000
00DD2000
09FF6000
00B30000
00E00000
ENDCHAR
STARTCHAR uni04B1
ENCODING 1201
SWIDTH 490 0
DWIDTH 5 0
BBX 5 7 0 -2
BITMAP
4902C0
1C0930
0C3900
09B100
7FF800
095000
0B2000
ENDCHAR
STARTCHAR uni04B2
ENCODING 1202
SWIDTH 622 0
DWIDTH 6 0
BBX 7 9 0 -2
BITMAP
0C402D20
04B0C400
00CB7000
008D0000
04CC2000
2D269000
C500FB00
00007700
00009400
ENDCHAR
STARTCHAR uni04B3
ENCODING 1203
SWIDTH 509 0
DWIDTH 5 0
BBX 6 7 -1 -2
BITMAP
02C088
0099A0
004E10
02CA50
1C32F7
000094
0000B2
ENDCHAR
STARTCHAR uni04B4
ENCODING 1204
SWIDTH 874 0
DWIDTH 9 0
BBX 8 9 0 -2
BITMAP
1FFFF61D
0077003B
00A40068
00C10095
01D000B2
03A000E0
06FFFFF8
00000085
000000A2
ENDCHAR
STARTCHAR uni04B5
ENCODING 1205
SWIDTH 654 0
DWIDTH 7 0
BBX 6 7 0 -2
BITMAP
8FFD0D
06703A
094067
0B1094
0EFFFB
000048
000066
ENDCHAR
STARTCHAR uni04B6
ENCODING 1206
SWIDTH 700 0
DWIDTH 7 0
BBX 6 9 1 -2
BITMAP
950077
C200A5
D402D2
5EFDE0
0002C0
000590
0007F2
0000D0
0001C0
ENDCHAR
STARTCHAR uni04B7
ENCODING 1207
SWIDTH 561 0
DWIDTH 6 0
BBX 5 7 0 -2
BITMAP
2B01D0
4A05B0
1CEE80
000850
000BF0
0003B0
000590
ENDCHAR
STARTCHAR uni04B8
ENCODING 1208
SWIDTH 663 0
DWIDTH 7 0
BBX 6 7 1 0
BITMAP
A40087
D150B4
E3B2E1
6EFDE0
0193B0
001680
000860
ENDCHAR
STARTCHAR uni04B9
ENCODING 1209
SWIDTH 540 0
DWIDTH 5 0
BBX 6 5 0 0
BITMAP
0C31D1
2C94D0
0BFEA0
007670
000940
ENDCHAR
STARTCHAR uni04BA
ENCODING 1210
SWIDTH 663 0
DWIDTH 7 0
BBX 6 7 0 0
BITMAP
0B3000
0D1000
1D0000
4EEFC2
6A1088
960067
C30095
ENDCHAR
STARTCHAR uni04BB
ENCODING 1211
SWIDTH 539 0
DWIDTH 5 0
BBX 5 8 0 0
BITMAP
094000
0C2000
0E0000
2EBE60
4D34B0
7803A0
950670
B20940
ENDCHAR
STARTCHAR uni04BC
ENCODING 1212
SWIDTH 754 0
DWIDTH 8 0
BBX 8 7 0 0
BITMAP
0007EE50
116B22D1
39C200A3
0AFFFFF2
02C00000
01E30300
005DEC10
ENDCHAR
STARTCHAR uni04BD
ENCODING 1213
SWIDTH 579 0
DWIDTH 6 0
BBX 6 5 0 0
BITMAP
12BEA0
AB51A4
6FFFF5
1D2270
07ED40
ENDCHAR
STARTCHAR uni04BE
ENCODING 1214
SWIDTH 754 0
DWIDTH 8 0
BBX 8 9 0 -2
BITMAP
0007EE50
116B22D1
39C200A3
0AFFFFF2
02C00000
01E30300
005FFC10
00086000
000A4000
ENDCHAR
STARTCHAR uni04BF
ENCODING 1215
SWIDTH 579 0
DWIDTH 6 0
BBX 6 7 0 -2
BITMAP
12BEA0
AB51A4
6FFFF5
1D2270
07FF40
00B200
00D000
ENDCHAR
STARTCHAR uni04C0
ENCODING 1216
SWIDTH 268 0
DWIDTH 3 0
BBX 3 7 0 0
BITMAP
0760
0A30
0D10
1D00
3B00
6800
8500
ENDCHAR
STARTCHAR uni04C1
ENCODING 1217
SWIDTH 885 0
DWIDTH 9 0
BBX 11 10 -1 0
BITMAP
00000C2B0000
000008E40000
000000000000
00B406803C10
004B0851D200
000C2B3B4000
000AFFFA0000
006D2D1E1000
03D24A098000
2D406802E100
ENDCHAR
STARTCHAR uni04C2
ENCODING 1218
SWIDTH 747 0
DWIDTH 7 0
BBX 9 8 -1 0
BITMAP
0000C2B000
00008E4000
0000000000
01D1671D30
008695C400
004FFF9000
02D3D2D100
2D32B08700
ENDCHAR
STARTCHAR uni04C3
ENCODING 1219
SWIDTH 615 0
DWIDTH 6 0
BBX 7 8 0 -1
BITMAP
09502C20
0C22C200
0E2C2000
2FFE9000
4A01B600
77007700
A402D300
002D6000
ENDCHAR
STARTCHAR uni04C4
ENCODING 1220
SWIDTH 532 0
DWIDTH 5 0
BBX 6 6 0 -1
BITMAP
0D05B1
2B6A00
5FFB10
860880
A31A60
009800
ENDCHAR
STARTCHAR uni04C5
ENCODING 1221
SWIDTH 731 0
DWIDTH 7 0
BBX 8 8 -1 -1
BITMAP
0009FFFA
000D2067
001D0095
004A00C2
008600D0
03D202C0
3E6005F5
000001A0
ENDCHAR
STARTCHAR uni04C6
ENCODING 1222
SWIDTH 603 0
DWIDTH 6 0
BBX 7 6 -1 -1
BITMAP
005FFF30
00860C00
00C21C00
03D03A00
4E406F30
00002900
ENDCHAR
STARTCHAR uni04C7
ENCODING 1223
SWIDTH 695 0
DWIDTH 7 0
BBX 7 9 0 -2
BITMAP
086003A0
0B300680
0D000950
1FFFFF20
3B000D00
68002C00
95004A00
00009700
000CC100
ENDCHAR
STARTCHAR uni04C8
ENCODING 1224
SWIDTH 554 0
DWIDTH 6 0
BBX 6 7 0 -2
BITMAP
0D00C2
3A00D0
6FFFB0
850590
B20860
001C30
01EA00
ENDCHAR
STARTCHAR uni04C9
ENCODING 1225
SWIDTH 740 0
DWIDTH 7 0
BBX 7 8 0 -1
BITMAP
085003B0
0B300580
0D000860
1FFFFF30
4A000D10
77001D10
94003F70
00000A10
ENDCHAR
STARTCHAR uni04CA
ENCODING 1226
SWIDTH 601 0
DWIDTH 6 0
BBX 6 6 0 -1
BITMAP
0D00B3
2B00D0
5FFFC0
7604A0
A307F3
000290
ENDCHAR
STARTCHAR uni04CB
ENCODING 1227
SWIDTH 668 0
DWIDTH 7 0
BBX 6 9 1 -2
BITMAP
950077
C200A5
D402D2
5EFDE0
0002C0
000590
005F60
007600
009400
ENDCHAR
STARTCHAR uni04CC
ENCODING 1228
SWIDTH 532 0
DWIDTH 5 0
BBX 5 7 0 -2
BITMAP
2B01D0
4A05B0
1CEE80
000850
009F30
00B200
00D000
ENDCHAR
STARTCHAR uni04CD
ENCODING 1229
SWIDTH 891 0
DWIDTH 9 0
BBX 9 8 0 -1
BITMAP
08C0002F50
0BD000AE20
0D9304AD00
1C670C4C00
4A2A685900
770DC17700
940B60AF00
0000005600
ENDCHAR
STARTCHAR uni04CE
ENCODING 1230
SWIDTH 761 0
DWIDTH 8 0
BBX 7 6 0 -1
BITMAP
0E6009C0
2DA03E90
59C0B960
769A6A40
A35B0ED0
00000740
ENDCHAR
STARTCHAR uni04CF
ENCODING 1231
SWIDTH 268 0
DWIDTH 3 0
BBX 3 7 0 0
BITMAP
0760
0A30
0D10
1D00
3B00
6800
8500
ENDCHAR
STARTCHAR uni04D0
ENCODING 1232
SWIDTH 637 0
DWIDTH 6 0
BBX 7 10 -1 0
BITMAP
00039570
0000BD20
00000000
0000C500
0005B800
000B1B00
00740B00
01EFFF30
08500760
2C000590
ENDCHAR
STARTCHAR uni04D1
ENCODING 1233
SWIDTH 532 0
DWIDTH 5 0
BBX 5 8 0 0
BITMAP
00B2B0
007E50
000000
08EE40
1615A0
2BEF80
A71950
5EDC40
ENDCHAR
STARTCHAR uni04D2
ENCODING 1234
SWIDTH 637 0
DWIDTH 6 0
BBX 7 9 -1 0
BITMAP
00057480
00000000
0000C500
0005B800
000B1B00
00740B00
01EFFF30
08500760
2C000590
ENDCHAR
STARTCHAR uni04D3
ENCODING 1235
SWIDTH 532 0
DWIDTH 5 0
BBX 5 7 0 0
BITMAP
01B0B0
000000
08EE40
1615A0
2BEF80
A71950
5EDC40
ENDCHAR
STARTCHAR uni04D4
ENCODING 1236
SWIDTH 911 0
DWIDTH 9 0
BBX 11 7 -1 0
BITMAP
000009FFFF40
00005AD00000
0003A3B00000
001A16FFF500
00AFFF700000
077009400000
4C000BFFF700
ENDCHAR
STARTCHAR uni04D5
ENCODING 1237
SWIDTH 823 0
DWIDTH 8 0
BBX 8 5 0 0
BITMAP
0AED7DE4
1517D22C
4DFFFFFD
C52B8110
7ED6BED3
ENDCHAR
STARTCHAR uni04D6
ENCODING 1238
SWIDTH 556 0
DWIDTH 6 0
BBX 6 10 0 0
BITMAP
006694
002DB0
000000
08FFFC
0B3000
0D0000
1FFFC0
4A0000
770000
9FFFB0
ENDCHAR
STARTCHAR uni04D7
ENCODING 1239
SWIDTH 518 0
DWIDTH 5 0
BBX 5 8 0 0
BITMAP
00C3A0
008E40
000000
06ED40
4C13B0
8FFFC0
770210
1BFB20
ENDCHAR
STARTCHAR uni04D8
ENCODING 1240
SWIDTH 675 0
DWIDTH 7 0
BBX 7 7 0 0
BITMAP
01BED500
01313D20
00000950
7FFFFF40
76000D10
4B11A800
08EE8000
ENDCHAR
STARTCHAR uni04D9
ENCODING 1241
SWIDTH 516 0
DWIDTH 5 0
BBX 5 5 0 0
BITMAP
08ED30
0415A0
8FFFB0
871A60
2CE800
ENDCHAR
STARTCHAR uni04DA
ENCODING 1242
SWIDTH 675 0
DWIDTH 7 0
BBX 7 9 0 0
BITMAP
00847500
00000000
01BED500
01313D20
00000950
7FFFFF40
76000D10
4B11A800
08EE8000
ENDCHAR
STARTCHAR uni04DB
ENCODING 1243
SWIDTH 516 0
DWIDTH 5 0
BBX 5 7 0 0
BITMAP
02A1A0
000000
08ED30
0415A0
8FFFB0
871A60
2CE800
ENDCHAR
STARTCHAR uni04DC
ENCODING 1244
SWIDTH 885 0
DWIDTH 9 0
BBX 11 9 -1 0
BITMAP
00001A1B0000
000000000000
00B406803C10
004B0851D200
000C2B3B4000
000AFFFA0000
006D2D1E1000
03D24A098000
2D406802E100
ENDCHAR
STARTCHAR uni04DD
ENCODING 1245
SWIDTH 747 0
DWIDTH 7 0
BBX 9 7 -1 0
BITMAP
0002A1A000
0000000000
01D1671D30
008695C400
004FFF9000
02D3D2D100
2D32B08700
ENDCHAR
STARTCHAR uni04DE
ENCODING 1246
SWIDTH 580 0
DWIDTH 6 0
BBX 6 9 0 0
BITMAP
009384
000000
03CEC2
0D4079
000197
00CFA0
1001C2
A603D1
2CFC50
ENDCHAR
STARTCHAR uni04DF
ENCODING 1247
SWIDTH 497 0
DWIDTH 5 0
BBX 5 7 0 0
BITMAP
057480
000000
09ED30
271970
06FD00
731C20
5DE900
ENDCHAR
STARTCHAR uni04E0
ENCODING 1248
SWIDTH 569 0
DWIDTH 6 0
BBX 6 7 0 0
BITMAP
09FFF8
0003A1
003900
00DE50
1003D0
8705C0
2CFB20
ENDCHAR
STARTCHAR uni04E1
ENCODING 1249
SWIDTH 569 0
DWIDTH 6 0
BBX 6 7 0 -2
BITMAP
0EFFF3
000870
009700
03FB10
100780
D31970
5EE900
ENDCHAR
STARTCHAR uni04E2
ENCODING 1250
SWIDTH 696 0
DWIDTH 7 0
BBX 7 9 0 0
BITMAP
003FFF00
00000000
086008A0
0B306E80
0D13C950
1D1C2B20
3BB40D00
6E701C00
9A004A00
ENDCHAR
STARTCHAR uni04E3
ENCODING 1251
SWIDTH 564 0
DWIDTH 6 0
BBX 6 7 0 0
BITMAP
02FFF1
000000
0D02E3
2B1BE0
59A5C0
7D6490
A80770
ENDCHAR
STARTCHAR uni04E4
ENCODING 1252
SWIDTH 696 0
DWIDTH 7 0
BBX 7 9 0 0
BITMAP
001B0B00
00000000
086008A0
0B306E80
0D13C950
1D1C2B20
3BB40D00
6E701C00
9A004A00
ENDCHAR
STARTCHAR uni04E5
ENCODING 1253
SWIDTH 564 0
DWIDTH 6 0
BBX 6 7 0 0
BITMAP
00B0C0
000000
0D02E3
2B1BE0
59A5C0
7D6490
A80770
ENDCHAR
STARTCHAR uni04E6
ENCODING 1254
SWIDTH 671 0
DWIDTH 7 0
BBX 7 9 0 0
BITMAP
00292A00
00000000
009EE600
09912D10
1D000A40
59000B30
58001D00
2D21A700
07EE8000
ENDCHAR
STARTCHAR uni04E7
ENCODING 1255
SWIDTH 558 0
DWIDTH 6 0
BBX 6 7 0 0
BITMAP
02A1A0
000000
07EE60
4C23E0
8500D1
7916B0
1BFB10
ENDCHAR
STARTCHAR uni04E8
ENCODING 1256
SWIDTH 664 0
DWIDTH 7 0
BBX 7 7 0 0
BITMAP
019ED500
0A713D10
2B000B30
6FFFFF20
77001D00
3C12A700
08EE7000
ENDCHAR
STARTCHAR uni04E9
ENCODING 1257
SWIDTH 555 0
DWIDTH 6 0
BBX 6 5 0 0
BITMAP
06EE60
4C22D0
8FFFF1
8705B0
1CFB10
ENDCHAR
STARTCHAR uni04EA
ENCODING 1258
SWIDTH 664 0
DWIDTH 7 0
BBX 7 9 0 0
BITMAP
002A1A00
00000000
019ED500
0A713D10
2B000B30
6FFFFF20
77001D00
3C12A700
08EE7000
ENDCHAR
STARTCHAR uni04EB
ENCODING 1259
SWIDTH 555 0
DWIDTH 6 0
BBX 6 7 0 0
BITMAP
02A1A0
000000
06EE60
4C22D0
8FFFF1
8705B0
1CFB10
ENDCHAR
STARTCHAR uni04EC
ENCODING 1260
SWIDTH 658 0
DWIDTH 7 0
BBX 7 9 0 0
BITMAP
00392900
00000000
019ED500
09813D10
05000B30
008FFF20
23001D00
4C12B600
08ED7000
ENDCHAR
STARTCHAR uni04ED
ENCODING 1261
SWIDTH 526 0
DWIDTH 5 0
BBX 5 7 0 0
BITMAP
0392A0
000000
08EC20
391690
02FF90
951A50
3DE700
ENDCHAR
STARTCHAR uni04EE
ENCODING 1262
SWIDTH 614 0
DWIDTH 6 0
BBX 7 9 0 0
BITMAP
009FF900
00000000
0B300C40
07706A00
02B1D200
00C87000
008C0000
01D40000
3E700000
ENDCHAR
STARTCHAR uni04EF
ENCODING 1263
SWIDTH 463 0
DWIDTH 5 0
BBX 6 9 -1 -2
BITMAP
008FFA
000000
06805A
03A0C2
00C580
00BC10
009700
03D100
6E4000
ENDCHAR
STARTCHAR uni04F0
ENCODING 1264
SWIDTH 614 0
DWIDTH 6 0
BBX 7 9 0 0
BITMAP
00656600
00000000
0B300C40
07706A00
02B1D200
00C87000
008C0000
01D40000
3E700000
ENDCHAR
STARTCHAR uni04F1
ENCODING 1265
SWIDTH 463 0
DWIDTH 5 0
BBX 6 9 -1 -2
BITMAP
005657
000000
06805A
03A0C2
00C580
00BC10
009700
03D100
6E4000
ENDCHAR
STARTCHAR uni04F2
ENCODING 1266
SWIDTH 614 0
DWIDTH 6 0
BBX 7 10 0 0
BITMAP
000A9D10
002AA400
00000000
0B300C40
07706A00
02B1D200
00C87000
008C0000
01D40000
3E700000
ENDCHAR
STARTCHAR uni04F3
ENCODING 1267
SWIDTH 463 0
DWIDTH 5 0
BBX 7 10 -1 -2
BITMAP
00089D20
001BA500
00000000
06805A00
03A0C200
00C58000
00BC1000
00970000
03D10000
6E400000
ENDCHAR
STARTCHAR uni04F4
ENCODING 1268
SWIDTH 668 0
DWIDTH 7 0
BBX 6 9 1 0
BITMAP
038390
000000
950077
C200A5
D402D2
5EFDE0
0002C0
000590
000760
ENDCHAR
STARTCHAR uni04F5
ENCODING 1269
SWIDTH 532 0
DWIDTH 5 0
BBX 5 7 0 0
BITMAP
047480
000000
2B01D0
4A05B0
1CEE80
000850
000B30
ENDCHAR
STARTCHAR uni04F6
ENCODING 1270
SWIDTH 544 0
DWIDTH 5 0
BBX 6 9 0 -2
BITMAP
08FFFB
0B4000
0D1000
1D0000
3B0000
680000
9F1000
0D0000
2B0000
ENDCHAR
STARTCHAR uni04F7
ENCODING 1271
SWIDTH 411 0
DWIDTH 4 0
BBX 5 7 0 -2
BITMAP
0EFF50
2C0000
590000
860000
AF0000
2C0000
4A0000
ENDCHAR
STARTCHAR uni04F8
ENCODING 1272
SWIDTH 843 0
DWIDTH 8 0
BBX 9 9 0 0
BITMAP
0004838000
0000000000
0860000B20
0A30000D00
0D10002C00
1FFFC24900
3B00797700
6801A7A400
9FFE90C100
ENDCHAR
STARTCHAR uni04F9
ENCODING 1273
SWIDTH 757 0
DWIDTH 8 0
BBX 7 7 0 0
BITMAP
001B1B00
00000000
0D0000D0
2C0001C0
5FFD4490
76089760
AFFC2A40
ENDCHAR
STARTCHAR uni04FA
ENCODING 1274
SWIDTH 576 0
DWIDTH 6 0
BBX 7 9 0 -2
BITMAP
03FFFF10
06900000
08600000
8FF70000
0D100000
1D000000
4F600000
1C300000
E9000000
ENDCHAR
STARTCHAR uni04FB
ENCODING 1275
SWIDTH 449 0
DWIDTH 5 0
BBX 6 7 -1 -2
BITMAP
009FFA
00B300
0BFF50
02C000
05F500
01D200
1E8000
ENDCHAR
STARTCHAR uni04FC
ENCODING 1276
SWIDTH 632 0
DWIDTH 6 0
BBX 7 9 0 -2
BITMAP
0C402D20
04B0C400
00CB7000
008D0000
04CC2000
2D269000
C500FC00
00008700
000AC100
ENDCHAR
STARTCHAR uni04FD
ENCODING 1277
SWIDTH 520 0
DWIDTH 5 0
BBX 6 7 -1 -2
BITMAP
02C088
0099A0
004E10
02CA50
1C32F8
0001A5
000CB0
ENDCHAR
STARTCHAR uni04FE
ENCODING 1278
SWIDTH 612 0
DWIDTH 6 0
BBX 7 7 0 0
BITMAP
0B402D20
04B0C400
00CB7000
05FFA000
02CC1000
1C269000
B500D200
ENDCHAR
STARTCHAR uni04FF
ENCODING 1279
SWIDTH 485 0
DWIDTH 5 0
BBX 6 5 -1 0
BITMAP
02C088
008990
02FFD0
01B940
1B32C0
ENDCHAR
STARTCHAR uni0500
ENCODING 1280
SWIDTH 606 0
DWIDTH 6 0
BBX 6 7 0 0
BITMAP
00000D
00001C
00003A
19EFF7
891084
9600C2
2CFFE0
ENDCHAR
STARTCHAR uni0501
ENCODING 1281
SWIDTH 551 0
DWIDTH 6 0
BBX 6 8 0 0
BITMAP
000067
000085
0000A3
08ECD0
4C12C0
8502A0
871880
2DEC50
ENDCHAR
STARTCHAR uni0502
ENCODING 1282
SWIDTH 802 0
DWIDTH 8 0
BBX 8 7 0 0
BITMAP
00000D00
00001D00
00003A00
19EFF724
8910843A
9600C298
2CFFFFA1
ENDCHAR
STARTCHAR uni0503
ENCODING 1283
SWIDTH 840 0
DWIDTH 8 0
BBX 8 8 0 0
BITMAP
00006700
00009400
0000B200
08ECD003
3C23C01B
8503903B
8719A1B6
2DD7DE80
ENDCHAR
STARTCHAR uni0504
ENCODING 1284
SWIDTH 772 0
DWIDTH 8 0
BBX 7 7 0 0
BITMAP
1FFC3000
0006A000
00197070
0BFA00D0
002E00E0
000D27A0
0008EB10
ENDCHAR
STARTCHAR uni0505
ENCODING 1285
SWIDTH 631 0
DWIDTH 6 0
BBX 6 5 0 0
BITMAP
6FD400
007915
6FE11C
00B47A
007FC2
ENDCHAR
STARTCHAR uni0506
ENCODING 1286
SWIDTH 524 0
DWIDTH 5 0
BBX 5 8 0 -1
BITMAP
0EEA10
000A50
002B30
1FF600
005B00
002B00
002F50
001A00
ENDCHAR
STARTCHAR uni0507
ENCODING 1287
SWIDTH 493 0
DWIDTH 5 0
BBX 5 7 0 -2
BITMAP
1FE900
002D00
2FF500
006900
004F40
000D10
003700
ENDCHAR
STARTCHAR uni0508
ENCODING 1288
SWIDTH 944 0
DWIDTH 9 0
BBX 10 7 -1 0
BITMAP
0008FFF900
000B307600
000E00A306
003B00C10D
007800D01D
02D302D199
2E7000BEA1
ENDCHAR
STARTCHAR uni0509
ENCODING 1289
SWIDTH 787 0
DWIDTH 8 0
BBX 9 5 -1 0
BITMAP
003FFF1000
00770C0670
00A42A0770
03D05A1D30
2E502DE700
ENDCHAR
STARTCHAR uni050A
ENCODING 1290
SWIDTH 972 0
DWIDTH 10 0
BBX 9 7 0 0
BITMAP
0850059000
0B30086000
0D000B3070
1FFFFF10D0
4A000D01D0
77002D1990
95000BEA10
ENDCHAR
STARTCHAR uni050B
ENCODING 1291
SWIDTH 808 0
DWIDTH 8 0
BBX 8 5 0 0
BITMAP
0D00B200
3A00D048
6FFFB058
8503B1C4
B201CE80
ENDCHAR
STARTCHAR uni050C
ENCODING 1292
SWIDTH 606 0
DWIDTH 6 0
BBX 6 7 0 0
BITMAP
019EE5
0A9112
2D0000
590046
770067
4C12C4
08EE70
ENDCHAR
STARTCHAR uni050D
ENCODING 1293
SWIDTH 503 0
DWIDTH 5 0
BBX 5 5 0 0
BITMAP
06DE30
3C2110
860330
791A50
1BEA10
ENDCHAR
STARTCHAR uni050E
ENCODING 1294
SWIDTH 692 0
DWIDTH 7 0
BBX 7 7 0 0
BITMAP
3FFFFF40
001C0000
004A0430
00770850
00A40A40
00B44D00
006EC300
ENDCHAR
STARTCHAR uni050F
ENCODING 1295
SWIDTH 626 0
DWIDTH 6 0
BBX 6 5 0 0
BITMAP
5FFFF0
00C124
00D049
02C1A6
00CE90
ENDCHAR
STARTCHAR uni0510
ENCODING 1296
SWIDTH 658 0
DWIDTH 7 0
BBX 7 7 0 0
BITMAP
01ADE900
09811A40
09500000
05FF6000
3C200000
6A117B00
19EEA200
ENDCHAR
STARTCHAR uni0511
ENCODING 1297
SWIDTH 527 0
DWIDTH 5 0
BBX 5 5 0 0
BITMAP
09EE60
3C1250
2DF800
A61530
5DFB10
ENDCHAR
STARTCHAR uni0512
ENCODING 1298
SWIDTH 733 0
DWIDTH 7 0
BBX 8 9 -1 -2
BITMAP
0009FFFA
000D2067
001D0095
004A00C2
008600D0
03D202C0
3E6005F6
000001B4
00000EA0
ENDCHAR
STARTCHAR uni0513
ENCODING 1299
SWIDTH 604 0
DWIDTH 6 0
BBX 7 7 -1 -2
BITMAP
005FFF30
00860C00
00C21C00
03D03A00
4E406F40
00001D20
0001E800
ENDCHAR
STARTCHAR uni1E00
ENCODING 7680
SWIDTH 637 0
DWIDTH 6 0
BBX 7 10 -1 -3
BITMAP
0000C500
0005B800
000B1B00
00740B00
01EFFF30
08500760
2C000590
00000000
002E2000
002E2000
ENDCHAR
STARTCHAR uni1E01
ENCODING 7681
SWIDTH 532 0
DWIDTH 5 0
BBX 5 8 0 -3
BITMAP
08EE40
1615A0
2BEF80
A71950
5EDC40
000000
1D4000
1E4000
ENDCHAR
STARTCHAR uni1E3E
ENCODING 7742
SWIDTH 851 0
DWIDTH 9 0
BBX 9 10 0 0
BITMAP
00000B6000
0000390000
0000000000
08C0002F50
0BD000AE20
0D9304AD00
1C670C4C00
4A2A685900
770DC17600
940B60A400
ENDCHAR
STARTCHAR uni1E3F
ENCODING 7743
SWIDTH 854 0
DWIDTH 9 0
BBX 8 8 0 0
BITMAP
00001D40
00006700
00000000
1ECE8BE8
3D24E32D
6803A01C
95067049
C2094076
ENDCHAR
STARTCHAR Wgrave
ENCODING 7808
SWIDTH 865 0
DWIDTH 9 0
BBX 8 10 1 0
BITMAP
000D2000
00055000
00000000
D009701D
D01D8077
D077A0C1
C2C0B3A0
A870B940
9D10BC00
89009700
ENDCHAR
STARTCHAR wgrave
ENCODING 7809
SWIDTH 733 0
DWIDTH 7 0
BBX 8 8 0 0
BITMAP
000C3000
00056000
00000000
580970A4
392C92B0
1A93A840
0DA0BB00
0D30B500
ENDCHAR
STARTCHAR Wacute
ENCODING 7810
SWIDTH 865 0
DWIDTH 9 0
BBX 8 10 1 0
BITMAP
0000A700
0002A000
00000000
D009701D
D01D8077
D077A0C1
C2C0B3A0
A870B940
9D10BC00
89009700
ENDCHAR
STARTCHAR wacute
ENCODING 7811
SWIDTH 733 0
DWIDTH 7 0
BBX 8 8 0 0
BITMAP
00009800
0002B000
00000000
580970A4
392C92B0
1A93A840
0DA0BB00
0D30B500
ENDCHAR
STARTCHAR Wdieresis
ENCODING 7812
SWIDTH 865 0
DWIDTH 9 0
BBX 8 9 1 0
BITMAP
00393900
00000000
D009701D
D01D8077
D077A0C1
C2C0B3A0
A870B940
9D10BC00
89009700
ENDCHAR
STARTCHAR wdieresis
ENCODING 7813
SWIDTH 733 0
DWIDTH 7 0
BBX 8 7 0 0
BITMAP
00292A00
00000000
580970A4
392C92B0
1A93A840
0DA0BB00
0D30B500
ENDCHAR
STARTCHAR uni1EA0
ENCODING 7840
SWIDTH 637 0
DWIDTH 6 0
BBX 7 9 -1 -2
BITMAP
0000C500
0005B800
000B1B00
00740B00
01EFFF30
08500760
2C000590
00000000
000C0000
ENDCHAR
STARTCHAR uni1EA1
ENCODING 7841
SWIDTH 532 0
DWIDTH 5 0
BBX 5 7 0 -2
BITMAP
08EE40
1615A0
2BEF80
A71950
5EDC40
000000
0B1000
ENDCHAR
STARTCHAR uni1EA2
ENCODING 7842
SWIDTH 637 0
DWIDTH 6 0
BBX 7 10 -1 0
BITMAP
00001D20
00003910
00000000
0000C500
0005B800
000B1B00
00740B00
01EFFF30
08500760
2C000590
ENDCHAR
STARTCHAR uni1EA3
ENCODING 7843
SWIDTH 532 0
DWIDTH 5 0
BBX 5 8 0 0
BITMAP
000B50
000A30
000000
08EE40
1615A0
2BEF80
A71950
5EDC40
ENDCHAR
STARTCHAR uni1EA4
ENCODING 7844
SWIDTH 637 0
DWIDTH 6 0
BBX 9 10 -1 0
BITMAP
0000AB3A10
0006866000
0000000000
0000C50000
0005B80000
000B1B0000
00740B0000
01EFFF3000
0850076000
2C00059000
ENDCHAR
STARTCHAR uni1EA5
ENCODING 7845
SWIDTH 532 0
DWIDTH 5 0
BBX 7 8 0 0
BITMAP
006D4A30
03B2A000
00000000
08EE4000
1615A000
2BEF8000
A7195000
5EDC4000
ENDCHAR
STARTCHAR uni1EA6
ENCODING 7846
SWIDTH 637 0
DWIDTH 6 0
BBX 7 12 -1 0
BITMAP
00660000
00180000
0000AB10
00068660
00000000
0000C500
0005B800
000B1B00
00740B00
01EFFF30
08500760
2C000590
ENDCHAR
STARTCHAR uni1EA7
ENCODING 7847
SWIDTH 532 0
DWIDTH 5 0
BBX 5 10 0 0
BITMAP
2B0000
090000
007D30
03B2A0
000000
08EE40
1615A0
2BEF80
A71950
5EDC40
ENDCHAR
STARTCHAR uni1EA8
ENCODING 7848
SWIDTH 637 0
DWIDTH 6 0
BBX 8 13 -1 0
BITMAP
00000057
00000019
00000083
0001BB10
00076460
00000000
0000C500
0005B800
000B1B00
00740B00
01EFFF30
08500760
2C000590
ENDCHAR
STARTCHAR uni1EA9
ENCODING 7849
SWIDTH 532 0
DWIDTH 5 0
BBX 6 11 0 0
BITMAP
00001B
00000A
000038
007C40
03A1A0
000000
08EE40
1615A0
2BEF80
A71950
5EDC40
ENDCHAR
STARTCHAR uni1EAA
ENCODING 7850
SWIDTH 637 0
DWIDTH 6 0
BBX 7 12 -1 0
BITMAP
0000CF50
00000000
0001AA10
00076560
00000000
0000C500
0005B800
000B1B00
00740B00
01EFFF30
08500760
2C000590
ENDCHAR
STARTCHAR uni1EAB
ENCODING 7851
SWIDTH 532 0
DWIDTH 5 0
BBX 5 10 0 0
BITMAP
007F90
000000
007B30
03A190
000000
08EE40
1615A0
2BEF80
A71950
5EDC40
ENDCHAR
STARTCHAR uni1EAC
ENCODING 7852
SWIDTH 637 0
DWIDTH 6 0
BBX 7 12 -1 -2
BITMAP
0001AB20
00069770
00000000
0000C500
0005B800
000B1B00
00740B00
01EFFF30
08500760
2C000590
00000000
000C0000
ENDCHAR
STARTCHAR uni1EAD
ENCODING 7853
SWIDTH 532 0
DWIDTH 5 0
BBX 5 10 0 -2
BITMAP
007D40
02D3B0
000000
08EE40
1615A0
2BEF80
A71950
5EDC40
000000
0B1000
ENDCHAR
STARTCHAR uni1EAE
ENCODING 7854
SWIDTH 637 0
DWIDTH 6 0
BBX 7 13 -1 0
BITMAP
00000A20
00001800
00000000
00048670
0000BD20
00000000
0000C500
0005B800
000B1B00
00740B00
01EFFF30
08500760
2C000590
ENDCHAR
STARTCHAR uni1EAF
ENCODING 7855
SWIDTH 532 0
DWIDTH 5 0
BBX 5 11 0 0
BITMAP
000660
000800
000000
00C2B0
007E50
000000
08EE40
1615A0
2BEF80
A71950
5EDC40
ENDCHAR
STARTCHAR uni1EB0
ENCODING 7856
SWIDTH 637 0
DWIDTH 6 0
BBX 7 11 -1 0
BITMAP
00004400
00048670
0000BD20
00000000
0000C500
0005B800
000B1B00
00740B00
01EFFF30
08500760
2C000590
ENDCHAR
STARTCHAR uni1EB1
ENCODING 7857
SWIDTH 532 0
DWIDTH 5 0
BBX 5 9 0 0
BITMAP
001700
00C2B0
007E50
000000
08EE40
1615A0
2BEF80
A71950
5EDC40
ENDCHAR
STARTCHAR uni1EB2
ENCODING 7858
SWIDTH 637 0
DWIDTH 6 0
BBX 7 12 -1 0
BITMAP
00000E30
00001A10
00038760
0000CD10
00000000
0000C500
0005B800
000B1B00
00740B00
01EFFF30
08500760
2C000590
ENDCHAR
STARTCHAR uni1EB3
ENCODING 7859
SWIDTH 532 0
DWIDTH 5 0
BBX 5 10 0 0
BITMAP
000A70
000930
00B3A0
007E40
000000
08EE40
1615A0
2BEF80
A71950
5EDC40
ENDCHAR
STARTCHAR uni1EB4
ENCODING 7860
SWIDTH 637 0
DWIDTH 6 0
BBX 7 11 -1 0
BITMAP
0000CF70
00039670
0000BD10
00000000
0000C500
0005B800
000B1B00
00740B00
01EFFF30
08500760
2C000590
ENDCHAR
STARTCHAR uni1EB5
ENCODING 7861
SWIDTH 532 0
DWIDTH 5 0
BBX 5 9 0 0
BITMAP
007FC0
00B2B0
007E40
000000
08EE40
1615A0
2BEF80
A71950
5EDC40
ENDCHAR
STARTCHAR uni1EB6
ENCODING 7862
SWIDTH 637 0
DWIDTH 6 0
BBX 7 12 -1 -2
BITMAP
00039570
0000BD20
00000000
0000C500
0005B800
000B1B00
00740B00
01EFFF30
08500760
2C000590
00000000
000C0000
ENDCHAR
STARTCHAR uni1EB7
ENCODING 7863
SWIDTH 532 0
DWIDTH 5 0
BBX 5 10 0 -2
BITMAP
00B2B0
007E50
000000
08EE40
1615A0
2BEF80
A71950
5EDC40
000000
0B1000
ENDCHAR
STARTCHAR uni1EB8
ENCODING 7864
SWIDTH 556 0
DWIDTH 6 0
BBX 6 9 0 -2
BITMAP
08FFFC
0B3000
0D0000
1FFFC0
4A0000
770000
9FFFB0
000000
039000
ENDCHAR
STARTCHAR uni1EB9
ENCODING 7865
SWIDTH 518 0
DWIDTH 5 0
BBX 5 7 0 -2
BITMAP
06ED40
4C13B0
8FFFC0
770210
1BFB20
000000
066000
ENDCHAR
STARTCHAR uni1EBA
ENCODING 7866
SWIDTH 556 0
DWIDTH 6 0
BBX 6 10 0 0
BITMAP
0005C0
000670
000000
08FFFC
0B3000
0D0000
1FFFC0
4A0000
770000
9FFFB0
ENDCHAR
STARTCHAR uni1EBB
ENCODING 7867
SWIDTH 518 0
DWIDTH 5 0
BBX 5 8 0 0
BITMAP
000D40
001A20
000000
06ED40
4C13B0
8FFFC0
770210
1BFB20
ENDCHAR
STARTCHAR uni1EBC
ENCODING 7868
SWIDTH 556 0
DWIDTH 6 0
BBX 6 10 0 0
BITMAP
007C38
00A3D3
000000
08FFFC
0B3000
0D0000
1FFFC0
4A0000
770000
9FFFB0
ENDCHAR
STARTCHAR uni1EBD
ENCODING 7869
SWIDTH 518 0
DWIDTH 5 0
BBX 5 8 0 0
BITMAP
02D4A0
065A90
000000
06ED40
4C13B0
8FFFC0
770210
1BFB20
ENDCHAR
STARTCHAR uni1EBE
ENCODING 7870
SWIDTH 556 0
DWIDTH 6 0
BBX 7 10 0 0
BITMAP
002BA580
00A49300
00000000
08FFFC00
0B300000
0D000000
1FFFC000
4A000000
77000000
9FFFB000
ENDCHAR
STARTCHAR uni1EBF
ENCODING 7871
SWIDTH 518 0
DWIDTH 5 0
BBX 7 8 0 0
BITMAP
008C3B20
04A38000
00000000
06ED4000
4C13B000
8FFFC000
77021000
1BFB2000
ENDCHAR
STARTCHAR uni1EC0
ENCODING 7872
SWIDTH 556 0
DWIDTH 6 0
BBX 6 12 0 0
BITMAP
0A3000
054000
002BA0
00A493
000000
08FFFC
0B3000
0D0000
1FFFC0
4A0000
770000
9FFFB0
ENDCHAR
STARTCHAR uni1EC1
ENCODING 7873
SWIDTH 518 0
DWIDTH 5 0
BBX 5 10 0 0
BITMAP
490000
090000
008C20
04A380
000000
06ED40
4C13B0
8FFFC0
770210
1BFB20
ENDCHAR
STARTCHAR uni1EC2
ENCODING 7874
SWIDTH 556 0
DWIDTH 6 0
BBX 7 13 0 0
BITMAP
00000940
00000470
00000A10
002BA000
00A38300
00000000
08FFFC00
0B300000
0D000000
1FFFC000
4A000000
77000000
9FFFB000
ENDCHAR
STARTCHAR uni1EC3
ENCODING 7875
SWIDTH 518 0
DWIDTH 5 0
BBX 6 11 0 0
BITMAP
000039
00001A
000055
009B20
059280
000000
06ED40
4C13B0
8FFFC0
770210
1BFB20
ENDCHAR
STARTCHAR uni1EC4
ENCODING 7876
SWIDTH 556 0
DWIDTH 6 0
BBX 6 12 0 0
BITMAP
001EE2
000000
002A80
00A382
000000
08FFFC
0B3000
0D0000
1FFFC0
4A0000
770000
9FFFB0
ENDCHAR
STARTCHAR uni1EC5
ENCODING 7877
SWIDTH 518 0
DWIDTH 5 0
BBX 5 10 0 0
BITMAP
009F80
000000
008B20
058280
000000
06ED40
4C13B0
8FFFC0
770210
1BFB20
ENDCHAR
STARTCHAR uni1EC6
ENCODING 7878
SWIDTH 556 0
DWIDTH 6 0
BBX 6 12 0 -2
BITMAP
002BA0
00A5B3
000000
08FFFC
0B3000
0D0000
1FFFC0
4A0000
770000
9FFFB0
000000
039000
ENDCHAR
STARTCHAR uni1EC7
ENCODING 7879
SWIDTH 518 0
DWIDTH 5 0
BBX 5 10 0 -2
BITMAP
008C30
04C490
000000
06ED40
4C13B0
8FFFC0
770210
1BFB20
000000
066000
ENDCHAR
STARTCHAR uni1EC8
ENCODING 7880
SWIDTH 268 0
DWIDTH 3 0
BBX 4 10 0 0
BITMAP
00D4
01A2
0000
0760
0A30
0D10
1D00
3B00
6800
8500
ENDCHAR
STARTCHAR uni1EC9
ENCODING 7881
SWIDTH 244 0
DWIDTH 2 0
BBX 3 8 0 0
BITMAP
05C0
0670
0000
0D00
2B00
5900
8600
A300
ENDCHAR
STARTCHAR uni1ECA
ENCODING 7882
SWIDTH 268 0
DWIDTH 3 0
BBX 3 9 0 -2
BITMAP
0760
0A30
0D10
1D00
3B00
6800
8500
0000
B000
ENDCHAR
STARTCHAR uni1ECB
ENCODING 7883
SWIDTH 240 0
DWIDTH 2 0
BBX 3 9 0 -2
BITMAP
0830
0000
0D00
2B00
5900
7600
A300
0000
B000
ENDCHAR
STARTCHAR uni1ECC
ENCODING 7884
SWIDTH 671 0
DWIDTH 7 0
BBX 7 9 0 -2
BITMAP
009EE600
09912D10
1D000A40
59000B30
58001D00
2D21A700
07EE8000
00000000
00B10000
ENDCHAR
STARTCHAR uni1ECD
ENCODING 7885
SWIDTH 558 0
DWIDTH 6 0
BBX 6 7 0 -2
BITMAP
07EE60
4C23E0
8500D1
7916B0
1BFB10
000000
057000
ENDCHAR
STARTCHAR uni1ECE
ENCODING 7886
SWIDTH 671 0
DWIDTH 7 0
BBX 7 10 0 0
BITMAP
0000D400
0001A200
00000000
009EE600
09912D10
1D000A40
59000B30
58001D00
2D21A700
07EE8000
ENDCHAR
STARTCHAR uni1ECF
ENCODING 7887
SWIDTH 558 0
DWIDTH 6 0
BBX 6 8 0 0
BITMAP
000C40
000A20
000000
07EE60
4C23E0
8500D1
7916B0
1BFB10
ENDCHAR
STARTCHAR uni1ED0
ENCODING 7888
SWIDTH 671 0
DWIDTH 7 0
BBX 8 10 0 0
BITMAP
0008C3B2
004A3800
00000000
009EE600
09912D10
1D000A40
59000B30
58001D00
2D21A700
07EE8000
ENDCHAR
STARTCHAR uni1ED1
ENCODING 7889
SWIDTH 558 0
DWIDTH 6 0
BBX 7 8 0 0
BITMAP
007D3A20
03B39000
00000000
07EE6000
4C23E000
8500D100
7916B000
1BFB1000
ENDCHAR
STARTCHAR uni1ED2
ENCODING 7890
SWIDTH 671 0
DWIDTH 7 0
BBX 7 12 0 0
BITMAP
04900000
00900000
0009C200
004A4800
00000000
009EE600
09912D10
1D000A40
59000B30
58001D00
2D21A700
07EE8000
ENDCHAR
STARTCHAR uni1ED3
ENCODING 7891
SWIDTH 558 0
DWIDTH 6 0
BBX 6 10 0 0
BITMAP
3A0000
090000
008C30
04B390
000000
07EE60
4C23E0
8500D1
7916B0
1BFB10
ENDCHAR
STARTCHAR uni1ED4
ENCODING 7892
SWIDTH 671 0
DWIDTH 7 0
BBX 7 13 0 0
BITMAP
00000390
000001A0
00000650
0009B200
00582800
00000000
009EE600
09912D10
1D000A40
59000B30
58001D00
2D21A700
07EE8000
ENDCHAR
STARTCHAR uni1ED5
ENCODING 7893
SWIDTH 558 0
DWIDTH 6 0
BBX 6 11 0 0
BITMAP
00002A
00001A
000056
009B30
049190
000000
07EE60
4C23E0
8500D1
7916B0
1BFB10
ENDCHAR
STARTCHAR uni1ED6
ENCODING 7894
SWIDTH 671 0
DWIDTH 7 0
BBX 7 12 0 0
BITMAP
000AF700
00000000
0008B200
00583800
00000000
009EE600
09912D10
1D000A40
59000B30
58001D00
2D21A700
07EE8000
ENDCHAR
STARTCHAR uni1ED7
ENCODING 7895
SWIDTH 558 0
DWIDTH 6 0
BBX 6 10 0 0
BITMAP
009F80
000000
008B20
049290
000000
07EE60
4C23E0
8500D1
7916B0
1BFB10
ENDCHAR
STARTCHAR uni1ED8
ENCODING 7896
SWIDTH 671 0
DWIDTH 7 0
BBX 7 12 0 -2
BITMAP
0008C300
004B5900
00000000
009EE600
09912D10
1D000A40
59000B30
58001D00
2D21A700
07EE8000
00000000
00B10000
ENDCHAR
STARTCHAR uni1ED9
ENCODING 7897
SWIDTH 558 0
DWIDTH 6 0
BBX 6 10 0 -2
BITMAP
008D30
03C4A0
000000
07EE60
4C23E0
8500D1
7916B0
1BFB10
000000
057000
ENDCHAR
STARTCHAR uni1EDA
ENCODING 7898
SWIDTH 670 0
DWIDTH 7 0
BBX 8 10 0 0
BITMAP
00009800
0002B000
00000013
019ED486
0A813EB1
2C000B20
68000C20
77001E00
3C12B800
07EE8000
ENDCHAR
STARTCHAR uni1EDB
ENCODING 7899
SWIDTH 559 0
DWIDTH 6 0
BBX 7 8 0 0
BITMAP
0007A000
001B1000
00000110
06DD4A10
4C22E800
8500D100
8816D000
1CFC3000
ENDCHAR
STARTCHAR uni1EDC
ENCODING 7900
SWIDTH 670 0
DWIDTH 7 0
BBX 8 10 0 0
BITMAP
000C2000
00056000
00000013
019ED486
0A813EB1
2C000B20
68000C20
77001E00
3C12B800
07EE8000
ENDCHAR
STARTCHAR uni1EDD
ENCODING 7901
SWIDTH 559 0
DWIDTH 6 0
BBX 7 8 0 0
BITMAP
00A50000
00280000
00000110
06DD4A10
4C22E800
8500D100
8816D000
1CFC3000
ENDCHAR
STARTCHAR uni1EDE
ENCODING 7902
SWIDTH 670 0
DWIDTH 7 0
BBX 8 10 0 0
BITMAP
0000D300
0001A200
00000013
019ED486
0A813EB1
2C000B20
68000C20
77001E00
3C12B800
07EE8000
ENDCHAR
STARTCHAR uni1EDF
ENCODING 7903
SWIDTH 559 0
DWIDTH 6 0
BBX 7 8 0 0
BITMAP
000B5000
000A3000
00000110
06DD4A10
4C22E800
8500D100
8816D000
1CFC3000
ENDCHAR
STARTCHAR uni1EE0
ENCODING 7904
SWIDTH 670 0
DWIDTH 7 0
BBX 8 10 0 0
BITMAP
002D4A00
0074B800
00000013
019ED486
0A813EB1
2C000B20
68000C20
77001E00
3C12B800
07EE8000
ENDCHAR
STARTCHAR uni1EE1
ENCODING 7905
SWIDTH 559 0
DWIDTH 6 0
BBX 7 8 0 0
BITMAP
01D69100
0469B000
00000110
06DD4A10
4C22E800
8500D100
8816D000
1CFC3000
ENDCHAR
STARTCHAR uni1EE2
ENCODING 7906
SWIDTH 670 0
DWIDTH 7 0
BBX 8 10 0 -2
BITMAP
00000013
019ED486
0A813EB1
2C000B20
68000C20
77001E00
3C12B800
07EE8000
00000000
00C00000
ENDCHAR
STARTCHAR uni1EE3
ENCODING 7907
SWIDTH 559 0
DWIDTH 6 0
BBX 7 8 0 -2
BITMAP
00000110
06DD4A10
4C22E800
8500D100
8816D000
1CFC3000
00000000
06600000
ENDCHAR
STARTCHAR uni1EE4
ENCODING 7908
SWIDTH 633 0
DWIDTH 6 0
BBX 7 9 0 -2
BITMAP
0A300950
0D100C20
1D000E00
3A002C00
68005900
5B12C400
0AED6000
00000000
00B00000
ENDCHAR
STARTCHAR uni1EE5
ENCODING 7909
SWIDTH 539 0
DWIDTH 5 0
BBX 6 7 0 -2
BITMAP
0D00C1
2A01D0
5804A0
781A80
3DED50
000000
0A1000
ENDCHAR
STARTCHAR uni1EE6
ENCODING 7910
SWIDTH 633 0
DWIDTH 6 0
BBX 7 10 0 0
BITMAP
0002D200
00039100
00000000
0A300950
0D100C20
1D000E00
3A002C00
68005900
5B12C400
0AED6000
ENDCHAR
STARTCHAR uni1EE7
ENCODING 7911
SWIDTH 539 0
DWIDTH 5 0
BBX 6 8 0 0
BITMAP
000C50
000A20
000000
0D00C1
2A01D0
5804A0
781A80
3DED50
ENDCHAR
STARTCHAR uni1EE8
ENCODING 7912
SWIDTH 679 0
DWIDTH 7 0
BBX 9 10 0 0
BITMAP
0000A70000
0002A00000
0000000410
0A40087C10
0C100BE500
0D000E1000
3B002D0000
58005A0000
4C12C60000
09EE700000
ENDCHAR
STARTCHAR uni1EE9
ENCODING 7913
SWIDTH 604 0
DWIDTH 6 0
BBX 7 8 0 0
BITMAP
0007A000
001B1000
00000010
0D00D570
2B01FC10
5803D000
781A9000
3DED5000
ENDCHAR
STARTCHAR uni1EEA
ENCODING 7914
SWIDTH 679 0
DWIDTH 7 0
BBX 9 10 0 0
BITMAP
000D200000
0005500000
0000000410
0A40087C10
0C100BE500
0D000E1000
3B002D0000
58005A0000
4C12C60000
09EE700000
ENDCHAR
STARTCHAR uni1EEB
ENCODING 7915
SWIDTH 604 0
DWIDTH 6 0
BBX 7 8 0 0
BITMAP
00A40000
00380000
00000010
0D00D570
2B01FC10
5803D000
781A9000
3DED5000
ENDCHAR
STARTCHAR uni1EEC
ENCODING 7916
SWIDTH 679 0
DWIDTH 7 0
BBX 9 10 0 0
BITMAP
0000E30000
0002A10000
0000000410
0A40087C10
0C100BE500
0D000E1000
3B002D0000
58005A0000
4C12C60000
09EE700000
ENDCHAR
STARTCHAR uni1EED
ENCODING 7917
SWIDTH 604 0
DWIDTH 6 0
BBX 7 8 0 0
BITMAP
000C5000
000A3000
00000010
0D00D570
2B01FC10
5803D000
781A9000
3DED5000
ENDCHAR
STARTCHAR uni1EEE
ENCODING 7918
SWIDTH 679 0
DWIDTH 7 0
BBX 9 10 0 0
BITMAP
002D3A0000
0074B80000
0000000410
0A40087C10
0C100BE500
0D000E1000
3B002D0000
58005A0000
4C12C60000
09EE700000
ENDCHAR
STARTCHAR uni1EEF
ENCODING 7919
SWIDTH 604 0
DWIDTH 6 0
BBX 7 8 0 0
BITMAP
01D59100
0569A000
00000010
0D00D570
2B01FC10
5803D000
781A9000
3DED5000
ENDCHAR
STARTCHAR uni1EF0
ENCODING 7920
SWIDTH 679 0
DWIDTH 7 0
BBX 9 10 0 -2
BITMAP
0000000410
0A40087C10
0C100BE500
0D000E1000
3B002D0000
58005A0000
4C12C60000
09EE700000
0000000000
00C0000000
ENDCHAR
STARTCHAR uni1EF1
ENCODING 7921
SWIDTH 604 0
DWIDTH 6 0
BBX 7 8 0 -2
BITMAP
00000010
0D00D570
2B01FC10
5803D000
781A9000
3DED5000
00000000
07500000
ENDCHAR
STARTCHAR Ygrave
ENCODING 7922
SWIDTH 587 0
DWIDTH 6 0
BBX 7 10 0 0
BITMAP
004B0000
000A1000
00000000
1D001D30
09509600
04A5B000
00DC1000
00A50000
00C20000
00E00000
ENDCHAR
STARTCHAR ygrave
ENCODING 7923
SWIDTH 463 0
DWIDTH 5 0
BBX 6 10 -1 -2
BITMAP
001D10
000730
000000
06805A
03A0C2
00C580
00BC10
009700
03D100
6E4000
ENDCHAR
STARTCHAR uni1EF4
ENCODING 7924
SWIDTH 587 0
DWIDTH 6 0
BBX 7 9 0 -2
BITMAP
1D001D30
09509600
04A5B000
00DC1000
00A50000
00C20000
00E00000
00000000
03800000
ENDCHAR
STARTCHAR uni1EF5
ENCODING 7925
SWIDTH 463 0
DWIDTH 5 0
BBX 6 8 -1 -3
BITMAP
06805A
03A0C2
00C580
00BC10
009700
03D100
6E4000
000C00
ENDCHAR
STARTCHAR uni1EF6
ENCODING 7926
SWIDTH 587 0
DWIDTH 6 0
BBX 7 10 0 0
BITMAP
0005B000
00067000
00000000
1D001D30
09509600
04A5B000
00DC1000
00A50000
00C20000
00E00000
ENDCHAR
STARTCHAR uni1EF7
ENCODING 7927
SWIDTH 463 0
DWIDTH 5 0
BBX 6 10 -1 -2
BITMAP
0002D1
000390
000000
06805A
03A0C2
00C580
00BC10
009700
03D100
6E4000
ENDCHAR
STARTCHAR uni1EF8
ENCODING 7928
SWIDTH 587 0
DWIDTH 6 0
BBX 7 10 0 0
BITMAP
007B3800
00A3D300
00000000
1D001D30
09509600
04A5B000
00DC1000
00A50000
00C20000
00E00000
ENDCHAR
STARTCHAR uni1EF9
ENCODING 7929
SWIDTH 463 0
DWIDTH 5 0
BBX 6 10 -1 -2
BITMAP
004D2A
0093C6
000000
06805A
03A0C2
00C580
00BC10
009700
03D100
6E4000
ENDCHAR
STARTCHAR uni1F4D
ENCODING 8013
SWIDTH 706 0
DWIDTH 7 0
BBX 9 8 -2 0
BITMAP
75B2000000
38605DEA00
0004C31A60
000A300490
000E000580
000D000A40
000C516C00
0003DEB200
ENDCHAR
STARTCHAR uni2000
ENCODING 8192
SWIDTH 499 0
DWIDTH 5 0
BBX 1 1 0 0
BITMAP
00
ENDCHAR
STARTCHAR uni2001
ENCODING 8193
SWIDTH 994 0
DWIDTH 10 0
BBX 1 1 0 0
BITMAP
00
ENDCHAR
STARTCHAR uni2002
ENCODING 8194
SWIDTH 499 0
DWIDTH 5 0
BBX 1 1 0 0
BITMAP
00
ENDCHAR
STARTCHAR uni2003
ENCODING 8195
SWIDTH 994 0
DWIDTH 10 0
BBX 1 1 0 0
BITMAP
00
ENDCHAR
STARTCHAR uni2004
ENCODING 8196
SWIDTH 334 0
DWIDTH 3 0
BBX 1 1 0 0
BITMAP
00
ENDCHAR
STARTCHAR uni2005
ENCODING 8197
SWIDTH 251 0
DWIDTH 3 0
BBX 1 1 0 0
BITMAP
00
ENDCHAR
STARTCHAR uni2006
ENCODING 8198
SWIDTH 169 0
DWIDTH 2 0
BBX 1 1 0 0
BITMAP
00
ENDCHAR
STARTCHAR uni2007
ENCODING 8199
SWIDTH 549 0
DWIDTH 6 0
BBX 1 1 0 0
BITMAP
00
ENDCHAR
STARTCHAR uni2008
ENCODING 8200
SWIDTH 270 0
DWIDTH 3 0
BBX 1 1 0 0
BITMAP
00
ENDCHAR
STARTCHAR uni2009
ENCODING 8201
SWIDTH 202 0
DWIDTH 2 0
BBX 1 1 0 0
BITMAP
00
ENDCHAR
STARTCHAR uni200A
ENCODING 8202
SWIDTH 104 0
DWIDTH 1 0
BBX 1 1 0 0
BITMAP
00
ENDCHAR
STARTCHAR uni200B
ENCODING 8203
SWIDTH 0 0
DWIDTH 0 0
BBX 1 1 0 0
BITMAP
00
ENDCHAR
STARTCHAR uni2010
ENCODING 8208
SWIDTH 271 0
DWIDTH 3 0
BBX 3 1 0 2
BITMAP
CF80
ENDCHAR
STARTCHAR uni2011
ENCODING 8209
SWIDTH 271 0
DWIDTH 3 0
BBX 3 1 0 2
BITMAP
CF80
ENDCHAR
STARTCHAR endash
ENCODING 8211
SWIDTH 641 0
DWIDTH 6 0
BBX 6 1 0 3
BITMAP
2FFFFA
ENDCHAR
STARTCHAR emdash
ENCODING 8212
SWIDTH 762 0
DWIDTH 8 0
BBX 8 1 0 3
BITMAP
2FFFFFF3
ENDCHAR
STARTCHAR uni2015
ENCODING 8213
SWIDTH 762 0
DWIDTH 8 0
BBX 8 1 0 3
BITMAP
2FFFFFF3
ENDCHAR
STARTCHAR underscoredbl
ENCODING 8215
SWIDTH 446 0
DWIDTH 4 0
BBX 5 3 -1 -3
BITMAP
8FFFC0
000000
BFFF90
ENDCHAR
STARTCHAR quoteleft
ENCODING 8216
SWIDTH 198 0
DWIDTH 2 0
BBX 3 2 0 6
BITMAP
0740
1C00
ENDCHAR
STARTCHAR quoteright
ENCODING 8217
SWIDTH 198 0
DWIDTH 2 0
BBX 3 2 0 6
BITMAP
0A30
2900
ENDCHAR
STARTCHAR quotesinglbase
ENCODING 8218
SWIDTH 197 0
DWIDTH 2 0
BBX 3 2 -1 -1
BITMAP
0C10
4700
ENDCHAR
STARTCHAR quotereversed
ENCODING 8219
SWIDTH 198 0
DWIDTH 2 0
BBX 2 2 1 6
BITMAP
D0
A1
ENDCHAR
STARTCHAR quotedblleft
ENCODING 8220
SWIDTH 347 0
DWIDTH 3 0
BBX 3 2 1 6
BITMAP
66A0
D860
ENDCHAR
STARTCHAR quotedblright
ENCODING 8221
SWIDTH 351 0
DWIDTH 4 0
BBX 4 2 0 6
BITMAP
096B
1A83
ENDCHAR
STARTCHAR quotedblbase
ENCODING 8222
SWIDTH 338 0
DWIDTH 3 0
BBX 4 4 -1 -2
BITMAP
0210
0C78
1C94
55A0
ENDCHAR
STARTCHAR dagger
ENCODING 8224
SWIDTH 539 0
DWIDTH 5 0
BBX 6 7 0 0
BITMAP
003A00
005800
5FFFF5
009400
00C100
00D000
02B000
ENDCHAR
STARTCHAR daggerdbl
ENCODING 8225
SWIDTH 557 0
DWIDTH 6 0
BBX 6 9 0 -2
BITMAP
002B00
004900
4FFFF6
008500
00B200
00D000
FFFFB0
04A000
067000
ENDCHAR
STARTCHAR bullet
ENCODING 8226
SWIDTH 331 0
DWIDTH 3 0
BBX 3 3 0 2
BITMAP
1D80
2F80
0100
ENDCHAR
STARTCHAR twodotenleader
ENCODING 8229
SWIDTH 461 0
DWIDTH 5 0
BBX 4 1 0 0
BITMAP
9485
ENDCHAR
STARTCHAR ellipsis
ENCODING 8230
SWIDTH 653 0
DWIDTH 7 0
BBX 6 1 0 0
BITMAP
948584
ENDCHAR
STARTCHAR uni2027
ENCODING 8231
SWIDTH 186 0
DWIDTH 2 0
BBX 2 1 0 3
BITMAP
75
ENDCHAR
STARTCHAR perthousand
ENCODING 8240
SWIDTH 934 0
DWIDTH 9 0
BBX 9 7 0 0
BITMAP
0AE5000000
3939180000
1DE4910000
0009100000
0093CEAE60
073485A3A0
0002DCCE40
ENDCHAR
STARTCHAR minute
ENCODING 8242
SWIDTH 173 0
DWIDTH 2 0
BBX 2 2 0 6
BITMAP
0B
19
ENDCHAR
STARTCHAR second
ENCODING 8243
SWIDTH 314 0
DWIDTH 3 0
BBX 3 3 1 5
BITMAP
A640
9810
8900
ENDCHAR
STARTCHAR guilsinglleft
ENCODING 8249
SWIDTH 295 0
DWIDTH 3 0
BBX 3 4 0 1
BITMAP
0470
3A00
4700
0A00
ENDCHAR
STARTCHAR guilsinglright
ENCODING 8250
SWIDTH 295 0
DWIDTH 3 0
BBX 3 4 0 1
BITMAP
1900
0930
0B20
8300
ENDCHAR
STARTCHAR exclamdbl
ENCODING 8252
SWIDTH 508 0
DWIDTH 5 0
BBX 5 7 0 0
BITMAP
0950D0
0B23A0
0D0580
1C0850
390A20
000000
841B00
ENDCHAR
STARTCHAR fraction
ENCODING 8260
SWIDTH 445 0
DWIDTH 4 0
BBX 5 5 0 1
BITMAP
000460
003800
029000
290000
910000
ENDCHAR
STARTCHAR uni2074
ENCODING 8308
SWIDTH 360 0
DWIDTH 4 0
BBX 4 4 0 3
BITMAP
01B6
19A3
7FF9
00B0
ENDCHAR
STARTCHAR uni207F
ENCODING 8319
SWIDTH 414 0
DWIDTH 4 0
BBX 4 4 0 3
BITMAP
0BCC
0D2D
2B0C
581B
ENDCHAR
STARTCHAR franc
ENCODING 8355
SWIDTH 541 0
DWIDTH 5 0
BBX 7 7 -1 0
BITMAP
008FFFB0
00B30000
00D00000
01FFFB00
04A00000
2FFD0000
09400000
ENDCHAR
STARTCHAR lira
ENCODING 8356
SWIDTH 568 0
DWIDTH 6 0
BBX 6 7 0 0
BITMAP
01AED3
079178
6FFE00
0B3000
AFFA00
2C0000
FFFFD0
ENDCHAR
STARTCHAR uni20A6
ENCODING 8358
SWIDTH 772 0
DWIDTH 8 0
BBX 8 7 0 0
BITMAP
03E200C1
07DA01D0
AFFFFFFC
0B387590
DFFFFFF8
1D00BD40
3A003F10
ENDCHAR
STARTCHAR peseta
ENCODING 8359
SWIDTH 800 0
DWIDTH 8 0
BBX 8 7 0 0
BITMAP
09FE7000
0B32E2C0
0E00CFF9
2D05D670
4FFD3940
78000C20
940009C0
ENDCHAR
STARTCHAR uni20A8
ENCODING 8360
SWIDTH 1030 0
DWIDTH 10 0
BBX 10 7 0 0
BITMAP
09FFD40000
0B304C0000
0D017A6EE6
2FFFB1E636
4907704BE3
7702C45187
9400C4CEB1
ENDCHAR
STARTCHAR uni20A9
ENCODING 8361
SWIDTH 722 0
DWIDTH 7 0
BBX 8 7 0 0
BITMAP
0D05B086
0D0AB0D0
9FFFFFF4
0C56B940
DFFFFFF0
0CA0D900
0B50E200
ENDCHAR
STARTCHAR uni20AA
ENCODING 8362
SWIDTH 752 0
DWIDTH 8 0
BBX 8 5 0 0
BITMAP
1FFFA0B2
3B12E0D0
6876C2C0
95A22890
B2DFFC20
ENDCHAR
STARTCHAR dong
ENCODING 8363
SWIDTH 566 0
DWIDTH 6 0
BBX 7 10 0 -2
BITMAP
00006700
000BFF40
0000A300
08ECD000
4C12C000
8502A000
87188000
2DEC5000
00000000
EFFF6000
ENDCHAR
STARTCHAR Euro
ENCODING 8364
SWIDTH 549 0
DWIDTH 6 0
BBX 6 7 0 0
BITMAP
005DF8
03C311
5FFF40
095000
8FFF00
0A5110
03CE70
ENDCHAR
STARTCHAR uni20B1
ENCODING 8369
SWIDTH 714 0
DWIDTH 7 0
BBX 8 7 0 0
BITMAP
04FFE700
05802E20
FFFFFFF9
0C207D00
0FFFC300
2D000000
59000000
ENDCHAR
STARTCHAR uni20B9
ENCODING 8377
SWIDTH 505 0
DWIDTH 5 0
BBX 6 7 0 0
BITMAP
1FFFF6
002D20
5FFFF1
004E10
8FD400
0A2000
02C200
ENDCHAR
STARTCHAR uni20BA
ENCODING 8378
SWIDTH 544 0
DWIDTH 5 0
BBX 5 7 0 0
BITMAP
01D000
03DB00
4DB200
48C8D0
8E84C0
4C3C40
1FD600
ENDCHAR
STARTCHAR uni20BC
ENCODING 8380
SWIDTH 645 0
DWIDTH 6 0
BBX 6 5 0 0
BITMAP
000D00
05DFA0
4C6A97
B37749
D0A358
ENDCHAR
STARTCHAR uni20BD
ENCODING 8381
SWIDTH 648 0
DWIDTH 6 0
BBX 8 7 -1 0
BITMAP
004FFEA1
007801A5
00A402C4
0CFFFD70
00E00000
1FFF6000
04A00000
ENDCHAR
STARTCHAR uni2105
ENCODING 8453
SWIDTH 720 0
DWIDTH 7 0
BBX 6 7 1 0
BITMAP
7E7000
B13190
AE5910
009200
084CE3
645767
002DD2
ENDCHAR
STARTCHAR uni2113
ENCODING 8467
SWIDTH 466 0
DWIDTH 5 0
BBX 5 8 0 0
BITMAP
006E50
00D5A0
02B670
059C20
08F600
8E7000
095000
04D000
ENDCHAR
STARTCHAR uni2116
ENCODING 8470
SWIDTH 1002 0
DWIDTH 10 0
BBX 10 7 0 0
BITMAP
09900C1AE6
0CD00D591C
0D843A673B
2B39582DD3
590C850000
7608E3BFF3
A303F00000
ENDCHAR
STARTCHAR trademark
ENCODING 8482
SWIDTH 611 0
DWIDTH 6 0
BBX 5 3 1 4
BITMAP
CFA1A0
439870
607860
ENDCHAR
STARTCHAR uni03A9.dup2
ENCODING 8486
SWIDTH 649 0
DWIDTH 7 0
BBX 6 7 0 0
BITMAP
01AEC3
0B814C
2D000E
59000D
580048
1B13A1
DF7EF5
ENDCHAR
STARTCHAR estimated
ENCODING 8494
SWIDTH 622 0
DWIDTH 6 0
BBX 6 5 0 0
BITMAP
02BFA0
0D4176
4FFFF8
3C1000
07ED60
ENDCHAR
STARTCHAR oneeighth
ENCODING 8539
SWIDTH 750 0
DWIDTH 8 0
BBX 7 7 0 0
BITMAP
04900000
1D903700
03729000
07699E90
0191AF60
0812B580
0001CE40
ENDCHAR
STARTCHAR threeeighths
ENCODING 8540
SWIDTH 833 0
DWIDTH 8 0
BBX 8 7 0 0
BITMAP
07E90000
08F50460
25583800
1CE59CE6
00291DF3
00915785
00003ED1
ENDCHAR
STARTCHAR fiveeighths
ENCODING 8541
SWIDTH 830 0
DWIDTH 8 0
BBX 8 7 0 0
BITMAP
0AFB0000
0BE40640
01675600
2DD68CE5
00381EE2
01906794
00003EC1
ENDCHAR
STARTCHAR seveneighths
ENCODING 8542
SWIDTH 782 0
DWIDTH 8 0
BBX 7 7 1 0
BITMAP
EFF00000
04719000
1A191000
A396ED10
0835FB00
640B2C00
0008E800
ENDCHAR
STARTCHAR partialdiff
ENCODING 8706
SWIDTH 557 0
DWIDTH 6 0
BBX 6 7 0 0
BITMAP
03DE70
0112D1
07EDC3
4C22D3
8500D0
791890
1BEA10
ENDCHAR
STARTCHAR uni0394.dup3
ENCODING 8710
SWIDTH 688 0
DWIDTH 7 0
BBX 7 7 -1 0
BITMAP
00008A00
0002BC00
000B3B20
00580850
00C10480
085001B0
2FFFFFE0
ENDCHAR
STARTCHAR product
ENCODING 8719
SWIDTH 678 0
DWIDTH 7 0
BBX 7 8 0 -1
BITMAP
09FFFF80
0C200750
0E000A30
2C000C10
4A000D00
67002B00
95005800
B2007600
ENDCHAR
STARTCHAR summation
ENCODING 8721
SWIDTH 572 0
DWIDTH 6 0
BBX 7 8 -1 -1
BITMAP
00FFFFE0
00950000
001C2000
0003B000
00069000
00880000
0A600000
5FFFFF00
ENDCHAR
STARTCHAR minus
ENCODING 8722
SWIDTH 559 0
DWIDTH 6 0
BBX 5 1 0 3
BITMAP
2FFFD0
ENDCHAR
STARTCHAR radical
ENCODING 8730
SWIDTH 583 0
DWIDTH 6 0
BBX 7 7 0 0
BITMAP
00000C10
00006700
0001C100
9F076000
0A4C0000
07D50000
04C00000
ENDCHAR
STARTCHAR infinity
ENCODING 8734
SWIDTH 1002 0
DWIDTH 10 0
BBX 10 5 0 0
BITMAP
05DE51AEA0
3D22CA5196
7600980076
6816AC23D2
1BEA16ED40
ENDCHAR
STARTCHAR integral
ENCODING 8747
SWIDTH 252 0
DWIDTH 3 0
BBX 6 10 -2 -2
BITMAP
0003DA
000A60
000D10
000E00
002B00
005900
007700
009500
01D200
1E9000
ENDCHAR
STARTCHAR approxequal
ENCODING 8776
SWIDTH 551 0
DWIDTH 6 0
BBX 6 4 0 1
BITMAP
2DC342
423DC1
6E9150
517E70
ENDCHAR
STARTCHAR notequal
ENCODING 8800
SWIDTH 537 0
DWIDTH 5 0
BBX 5 6 0 1
BITMAP
000010
000370
1FFFE0
008200
6FFF90
180000
ENDCHAR
STARTCHAR lessequal
ENCODING 8804
SWIDTH 498 0
DWIDTH 5 0
BBX 6 5 -1 0
BITMAP
000014
015AA3
06C400
0017B1
2FFFC0
ENDCHAR
STARTCHAR greaterequal
ENCODING 8805
SWIDTH 512 0
DWIDTH 5 0
BBX 5 6 0 0
BITMAP
050000
06A820
015A90
6A5100
000000
CFFF20
ENDCHAR
STARTCHAR lozenge
ENCODING 9674
SWIDTH 493 0
DWIDTH 5 0
BBX 5 7 0 0
BITMAP
008A00
04AB10
1C1760
8504A0
480C20
0C8600
08A000
ENDCHAR
STARTCHAR uniEE01
ENCODING 60929
SWIDTH 283 0
DWIDTH 3 0
BBX 3 5 0 1
BITMAP
0840
0000
0000
0000
4800
ENDCHAR
STARTCHAR uniEE02
ENCODING 60930
SWIDTH 314 0
DWIDTH 3 0
BBX 3 2 0 3
BITMAP
38A0
55A0
ENDCHAR
STARTCHAR uniF6C3
ENCODING 63171
SWIDTH 249 0
DWIDTH 2 0
BBX 2 2 0 -1
BITMAP
A3
A0
ENDCHAR
STARTCHAR uniFB01
ENCODING 64257
SWIDTH 541 0
DWIDTH 5 0
BBX 5 8 0 0
BITMAP
009EA0
05A120
095000
8FF4D0
0D12B0
1C0590
490860
760A30
ENDCHAR
STARTCHAR uniFB02
ENCODING 64258
SWIDTH 555 0
DWIDTH 6 0
BBX 6 8 0 0
BITMAP
009ED5
03C194
0770B2
6FF6D0
0B21C0
0D03A0
2C0670
590850
ENDCHAR
STARTCHAR uniFB03
ENCODING 64259
SWIDTH 833 0
DWIDTH 8 0
BBX 8 8 0 0
BITMAP
009E2AE9
04B16912
0770A300
6FFFFF3C
0B20D03A
0D02B067
2C058094
590850C1
ENDCHAR
STARTCHAR uniFB04
ENCODING 64260
SWIDTH 833 0
DWIDTH 8 0
BBX 9 8 0 0
BITMAP
009E2BEC20
03C1780C10
0770A30C00
6FFFFF4B00
0B20D04900
0D02B07600
2C05809400
590850C100
ENDCHAR
STARTCHAR uniFEFF
ENCODING 65279
SWIDTH 0 0
DWIDTH 0 0
BBX 1 1 0 0
BITMAP
00
ENDCHAR
STARTCHAR uniFFFC
ENCODING 65532
SWIDTH 999 0
DWIDTH 10 0
BBX 12 9 -1 -2
BITMAP
00E9D7E6F6F4
000000000052
044000000080
002D9AD10730
08548DE33680
003E8FD3D320
080000000430
000000000800
4F6F7D8CAD00
ENDCHAR
STARTCHAR uniFFFD
ENCODING 65533
SWIDTH 1025 0
DWIDTH 10 0
BBX 10 10 0 -2
BITMAP
0000590000
0004FF8000
004FFFF700
03ED33AF60
2EFED87FF5
2EFFB4EFF5
03EFFFFF60
004F87F700
0004FF8000
0000590000
ENDCHAR
STARTCHAR .notdef
ENCODING -1
SWIDTH 448 0
DWIDTH 4 0
BBX 4 7 0 0
BITMAP
7FFD
4104
4334
4164
4334
4104
7FFD
ENDCHAR
STARTCHAR glyph369
ENCODING -1
SWIDTH 383 0
DWIDTH 4 0
BBX 3 2 1 6
BITMAP
B1C0
7830
ENDCHAR
STARTCHAR uni2009.locl
ENCODING -1
SWIDTH 125 0
DWIDTH 1 0
BBX 1 1 0 0
BITMAP
00
ENDCHAR
STARTCHAR f_f.dlig
ENCODING -1
SWIDTH 604 0
DWIDTH 6 0
BBX 7 8 0 0
BITMAP
009E3CA0
03C19700
0770C100
6FFFFF10
0B21C000
0D049000
2C076000
590A3000
ENDCHAR
STARTCHAR longs_t.dlig
ENCODING -1
SWIDTH 602 0
DWIDTH 6 0
BBX 6 8 0 0
BITMAP
009EB2
04B1B3
0760C1
6F3DFE
0B11C0
0C0480
2B0760
5805E2
ENDCHAR
STARTCHAR s_t.dlig
ENCODING -1
SWIDTH 805 0
DWIDTH 8 0
BBX 8 8 0 0
BITMAP
00008E90
0002B1D2
000480B2
08EE9BFF
2D4450D0
07CD13A0
631B3580
4DE803E3
ENDCHAR
STARTCHAR two.dnom
ENCODING -1
SWIDTH 360 0
DWIDTH 4 0
BBX 4 4 -1 0
BITMAP
03EC
065B
0591
1FFC
ENDCHAR
STARTCHAR one.dnom
ENCODING -1
SWIDTH 360 0
DWIDTH 4 0
BBX 3 4 0 0
BITMAP
1750
6D40
0910
0B00
ENDCHAR
STARTCHAR zero.dnom
ENCODING -1
SWIDTH 360 0
DWIDTH 4 0
BBX 4 4 0 0
BITMAP
4EB0
A3B1
B1C0
7E70
ENDCHAR
STARTCHAR nine.c2sc
ENCODING -1
SWIDTH 497 0
DWIDTH 5 0
BBX 5 6 0 0
BITMAP
08EC10
4B1960
691970
1CED30
016B00
2EA100
ENDCHAR
STARTCHAR eight.c2sc
ENCODING -1
SWIDTH 497 0
DWIDTH 5 0
BBX 5 6 0 0
BITMAP
09ED30
1D2870
0CFB00
871C20
B51D20
4DE700
ENDCHAR
STARTCHAR seven.c2sc
ENCODING -1
SWIDTH 497 0
DWIDTH 5 0
BBX 5 6 0 0
BITMAP
4FFFE0
000670
002B00
00B300
078000
2C0000
ENDCHAR
STARTCHAR six.c2sc
ENCODING -1
SWIDTH 496 0
DWIDTH 5 0
BBX 5 6 0 0
BITMAP
01AE10
0C6100
4DEC10
881A50
871C30
1DE800
ENDCHAR
STARTCHAR five.c2sc
ENCODING -1
SWIDTH 497 0
DWIDTH 5 0
BBX 5 6 0 0
BITMAP
08FFB0
0C1000
1EEB10
131A50
541B40
3DE800
ENDCHAR
STARTCHAR four.c2sc
ENCODING -1
SWIDTH 497 0
DWIDTH 5 0
BBX 5 6 0 0
BITMAP
002E40
00BD20
094D00
771C00
FFFF80
006800
ENDCHAR
STARTCHAR three.c2sc
ENCODING -1
SWIDTH 497 0
DWIDTH 5 0
BBX 5 6 0 0
BITMAP
09ED30
271970
05FB00
001C10
822D10
6ED500
ENDCHAR
STARTCHAR two.c2sc
ENCODING -1
SWIDTH 497 0
DWIDTH 5 0
BBX 5 6 0 0
BITMAP
09ED20
491870
001C20
03C400
4B2000
EFFF20
ENDCHAR
STARTCHAR one.c2sc
ENCODING -1
SWIDTH 497 0
DWIDTH 5 0
BBX 3 6 1 0
BITMAP
3970
CC60
0930
0C10
0D00
2B00
ENDCHAR
STARTCHAR zero.c2sc
ENCODING -1
SWIDTH 497 0
DWIDTH 5 0
BBX 5 6 0 0
BITMAP
07EC10
3C1870
760670
940850
872D10
2DE600
ENDCHAR
STARTCHAR Z.c2sc
ENCODING -1
SWIDTH 506 0
DWIDTH 5 0
BBX 6 6 -1 0
BITMAP
03FFFF
0000A5
000960
008700
078000
2FFFF4
ENDCHAR
STARTCHAR Y.c2sc
ENCODING -1
SWIDTH 510 0
DWIDTH 5 0
BBX 6 6 0 0
BITMAP
4A00C3
0D1870
088B00
03E200
03A000
058000
ENDCHAR
STARTCHAR X.c2sc
ENCODING -1
SWIDTH 529 0
DWIDTH 5 0
BBX 7 6 -1 0
BITMAP
01D01D30
0096B500
002E8000
005E5000
03C3C000
1D30A500
ENDCHAR
STARTCHAR W.c2sc
ENCODING -1
SWIDTH 742 0
DWIDTH 7 0
BBX 8 6 0 0
BITMAP
3906A068
290BA0B2
1A47A2A0
0BA1A840
0C90AB00
0D309700
ENDCHAR
STARTCHAR V.c2sc
ENCODING -1
SWIDTH 538 0
DWIDTH 5 0
BBX 6 6 0 0
BITMAP
590077
2B01D1
0D0770
0B2C00
08B600
05D000
ENDCHAR
STARTCHAR U.c2sc
ENCODING -1
SWIDTH 548 0
DWIDTH 5 0
BBX 6 6 0 0
BITMAP
0D0085
3A00B3
5800D0
7501D0
881890
2CEB10
ENDCHAR
STARTCHAR T.c2sc
ENCODING -1
SWIDTH 507 0
DWIDTH 5 0
BBX 6 6 0 0
BITMAP
6FFFF4
00A300
00C100
00D000
03A000
058000
ENDCHAR
STARTCHAR S.c2sc
ENCODING -1
SWIDTH 504 0
DWIDTH 5 0
BBX 5 6 0 0
BITMAP
08ED40
3C13C0
1DA400
116D40
C31A50
4DEA00
ENDCHAR
STARTCHAR R.c2sc
ENCODING -1
SWIDTH 524 0
DWIDTH 5 0
BBX 5 6 0 0
BITMAP
0EFE60
2C02D0
4904C0
7FFD30
951D00
C20950
ENDCHAR
STARTCHAR Q.c2sc
ENCODING -1
SWIDTH 578 0
DWIDTH 6 0
BBX 6 7 0 -1
BITMAP
04DE70
2D31C2
770094
9500B2
7915C0
1BEF20
000660
ENDCHAR
STARTCHAR P.c2sc
ENCODING -1
SWIDTH 533 0
DWIDTH 5 0
BBX 6 6 0 0
BITMAP
0EFE80
2C01D1
4902D1
7FFD50
950000
C20000
ENDCHAR
STARTCHAR O.c2sc
ENCODING -1
SWIDTH 578 0
DWIDTH 6 0
BBX 6 6 0 0
BITMAP
04DE80
2D31C2
670094
8500B2
6A15C0
1BEB20
ENDCHAR
STARTCHAR N.c2sc
ENCODING -1
SWIDTH 597 0
DWIDTH 6 0
BBX 6 6 0 0
BITMAP
0E303A
2EA068
49B285
7749B3
940CE0
C205D0
ENDCHAR
STARTCHAR M.c2sc
ENCODING -1
SWIDTH 733 0
DWIDTH 7 0
BBX 8 6 0 0
BITMAP
0E5005F1
2D900CD0
48C078B0
76B2C580
948C5860
C14B0A30
ENDCHAR
STARTCHAR L.c2sc
ENCODING -1
SWIDTH 454 0
DWIDTH 5 0
BBX 4 6 0 0
BITMAP
0D00
2B00
4900
7600
9400
CFFD
ENDCHAR
STARTCHAR K.c2sc
ENCODING -1
SWIDTH 529 0
DWIDTH 5 0
BBX 6 6 0 0
BITMAP
0D02C3
2B3D30
4CE300
7DB400
942C00
C20970
ENDCHAR
STARTCHAR J.c2sc
ENCODING -1
SWIDTH 466 0
DWIDTH 5 0
BBX 5 6 0 0
BITMAP
000760
000A40
000C10
000E00
D16B00
6ED300
ENDCHAR
STARTCHAR I.c2sc
ENCODING -1
SWIDTH 235 0
DWIDTH 2 0
BBX 2 6 0 0
BITMAP
0D
1C
3A
68
85
B3
ENDCHAR
STARTCHAR H.c2sc
ENCODING -1
SWIDTH 597 0
DWIDTH 6 0
BBX 6 6 0 0
BITMAP
0D004A
2A0078
4FFFF5
7600C3
9400E0
C201D0
ENDCHAR
STARTCHAR G.c2sc
ENCODING -1
SWIDTH 571 0
DWIDTH 6 0
BBX 6 6 0 0
BITMAP
04DE90
2D31A3
670000
852FF1
6A02D0
1AED60
ENDCHAR
STARTCHAR F.c2sc
ENCODING -1
SWIDTH 464 0
DWIDTH 5 0
BBX 5 6 0 0
BITMAP
0EFFC0
2C0000
4A0000
7FFF00
950000
C20000
ENDCHAR
STARTCHAR dollar.c2sc
ENCODING -1
SWIDTH 504 0
DWIDTH 5 0
BBX 5 10 0 -2
BITMAP
000100
003800
08EE50
3C1390
1DA300
016C30
921A60
5EFA10
056000
010000
ENDCHAR
STARTCHAR sterling.c2sc
ENCODING -1
SWIDTH 514 0
DWIDTH 5 0
BBX 5 6 0 0
BITMAP
02DE40
0B54A0
0D0000
CFFB00
490000
EFFF50
ENDCHAR
STARTCHAR yen.c2sc
ENCODING -1
SWIDTH 444 0
DWIDTH 4 0
BBX 5 6 0 0
BITMAP
490680
0C1B00
0A9300
AFFC00
CFFA00
0A3000
ENDCHAR
STARTCHAR Gamma.c2sc
ENCODING -1
SWIDTH 451 0
DWIDTH 5 0
BBX 5 6 0 0
BITMAP
0EFFA0
2C0000
4A0000
770000
940000
C20000
ENDCHAR
STARTCHAR uni0394.c2sc
ENCODING -1
SWIDTH 538 0
DWIDTH 5 0
BBX 6 6 -1 0
BITMAP
0007A0
001AD0
0083C1
02A0A4
092077
2FFFFA
ENDCHAR
STARTCHAR Theta.c2sc
ENCODING -1
SWIDTH 578 0
DWIDTH 6 0
BBX 6 6 0 0
BITMAP
03CE90
1D31C3
6AFF95
7600A3
5A15C0
0AEC20
ENDCHAR
STARTCHAR Lambda.c2sc
ENCODING -1
SWIDTH 538 0
DWIDTH 5 0
BBX 6 6 -1 0
BITMAP
0007A0
001BD0
0084C1
02B0A4
094077
2B005A
ENDCHAR
STARTCHAR Xi.c2sc
ENCODING -1
SWIDTH 433 0
DWIDTH 4 0
BBX 6 6 -1 0
BITMAP
04FFF6
000000
06FFA0
000000
000000
2FFF80
ENDCHAR
STARTCHAR Pi.c2sc
ENCODING -1
SWIDTH 587 0
DWIDTH 6 0
BBX 6 6 0 0
BITMAP
0EFFF9
2C0076
4A0094
7700C1
9400D0
C202B0
ENDCHAR
STARTCHAR Sigma.c2sc
ENCODING -1
SWIDTH 481 0
DWIDTH 5 0
BBX 6 6 -1 0
BITMAP
04FFFC
01D100
006A00
009800
098000
2FFFF2
ENDCHAR
STARTCHAR Phi.c2sc
ENCODING -1
SWIDTH 660 0
DWIDTH 7 0
BBX 7 6 0 0
BITMAP
000B3000
06DFE600
5B2D2D10
78594D00
1BFFB300
00950000
ENDCHAR
STARTCHAR Psi.c2sc
ENCODING -1
SWIDTH 622 0
DWIDTH 6 0
BBX 7 6 0 0
BITMAP
2B0D0B20
492C0D00
59492B00
3D78B600
08FE7000
00B20000
ENDCHAR
STARTCHAR uni03A9.c2sc
ENCODING -1
SWIDTH 604 0
DWIDTH 6 0
BBX 6 6 0 0
BITMAP
04CEA0
1D41A5
680067
670093
3B1590
DF6FF0
ENDCHAR
STARTCHAR uni0402.c2sc
ENCODING -1
SWIDTH 665 0
DWIDTH 7 0
BBX 6 6 0 0
BITMAP
6FFFD0
00C000
01EEE7
03B11D
06803D
0855D5
ENDCHAR
STARTCHAR uni0404.c2sc
ENCODING -1
SWIDTH 548 0
DWIDTH 5 0
BBX 6 6 0 0
BITMAP
04DE80
2A21C2
6FF700
850000
7905A0
1BEB20
ENDCHAR
STARTCHAR uni0409.c2sc
ENCODING -1
SWIDTH 884 0
DWIDTH 9 0
BBX 10 6 -1 0
BITMAP
003FFF8000
0068085000
00950AFF90
00C20C00B3
04C00C02D2
4D403FFE60
ENDCHAR
STARTCHAR uni040A.c2sc
ENCODING -1
SWIDTH 891 0
DWIDTH 9 0
BBX 9 6 0 0
BITMAP
0D00580000
2A00860000
4FFFFFFA00
7600D10A40
9400D01C30
C202FFE700
ENDCHAR
STARTCHAR uni040B.c2sc
ENCODING -1
SWIDTH 666 0
DWIDTH 7 0
BBX 6 6 0 0
BITMAP
6FFFE0
00D000
01EEE7
03B12E
06800D
08501D
ENDCHAR
STARTCHAR uni040F.c2sc
ENCODING -1
SWIDTH 586 0
DWIDTH 6 0
BBX 6 8 0 -2
BITMAP
0D0059
2B0076
4900A4
7600D1
9400D0
CFFFB0
02C000
049000
ENDCHAR
STARTCHAR uni0411.c2sc
ENCODING -1
SWIDTH 532 0
DWIDTH 5 0
BBX 5 6 0 0
BITMAP
0EFFB0
2B0000
4FFD30
7606A0
940780
BFEA10
ENDCHAR
STARTCHAR uni0414.c2sc
ENCODING -1
SWIDTH 628 0
DWIDTH 6 0
BBX 7 8 -1 -2
BITMAP
001FFFA0
003A0570
00770850
00B20B20
06A00D00
3FFFFF80
68000860
86000A30
ENDCHAR
STARTCHAR uni0416.c2sc
ENCODING -1
SWIDTH 737 0
DWIDTH 7 0
BBX 9 6 -1 0
BITMAP
00D2672D20
006996D300
003FFF7000
00B6D4B000
06B1C0D100
2E23A09700
ENDCHAR
STARTCHAR uni0417.c2sc
ENCODING -1
SWIDTH 519 0
DWIDTH 5 0
BBX 5 6 0 0
BITMAP
09ED40
2815B0
000690
03FD10
921A50
5EEA10
ENDCHAR
STARTCHAR uni0418.c2sc
ENCODING -1
SWIDTH 601 0
DWIDTH 6 0
BBX 6 6 0 0
BITMAP
0D007B
2B04D8
492A86
77B1A3
9D30C1
B600D0
ENDCHAR
STARTCHAR uni041A.c2sc
ENCODING -1
SWIDTH 526 0
DWIDTH 5 0
BBX 6 6 0 0
BITMAP
0D05B1
2B6B10
4FD000
76C400
944B00
C20C40
ENDCHAR
STARTCHAR uni041B.c2sc
ENCODING -1
SWIDTH 581 0
DWIDTH 6 0
BBX 7 6 -1 0
BITMAP
003FFF80
00680850
00940A30
00C10D00
04C00C00
4D303A00
ENDCHAR
STARTCHAR uni0423.c2sc
ENCODING -1
SWIDTH 504 0
DWIDTH 5 0
BBX 6 6 0 0
BITMAP
3B00D2
0E0780
0B4C10
07D600
06C000
8D3000
ENDCHAR
STARTCHAR uni0426.c2sc
ENCODING -1
SWIDTH 629 0
DWIDTH 6 0
BBX 6 8 0 -2
BITMAP
0D0059
2B0076
4900A3
7600D1
9400D0
CFFFF8
000076
000093
ENDCHAR
STARTCHAR uni0427.c2sc
ENCODING -1
SWIDTH 540 0
DWIDTH 5 0
BBX 6 6 0 0
BITMAP
4900B2
6700D0
6903C0
1CEDA0
000670
000850
ENDCHAR
STARTCHAR uni0428.c2sc
ENCODING -1
SWIDTH 770 0
DWIDTH 8 0
BBX 8 6 0 0
BITMAP
0D03A076
2B0670A4
490950C1
760B20D0
940D02B0
CFFFFF90
ENDCHAR
STARTCHAR uni0429.c2sc
ENCODING -1
SWIDTH 813 0
DWIDTH 8 0
BBX 8 8 0 -2
BITMAP
0D03A076
2B0670A3
490950C1
760B20D0
940D02B0
CFFFFFF6
00000093
000000B1
ENDCHAR
STARTCHAR uni042A.c2sc
ENCODING -1
SWIDTH 625 0
DWIDTH 6 0
BBX 6 6 0 0
BITMAP
8FD000
02B000
04FFD3
076079
093077
0CFEA1
ENDCHAR
STARTCHAR uni042B.c2sc
ENCODING -1
SWIDTH 725 0
DWIDTH 7 0
BBX 7 6 0 0
BITMAP
0D0000D0
2B0002C0
4FFD3490
7606A770
94078940
BFEA1B20
ENDCHAR
STARTCHAR uni042C.c2sc
ENCODING -1
SWIDTH 526 0
DWIDTH 5 0
BBX 5 6 0 0
BITMAP
0D0000
2B0000
4FFD30
7606A0
940780
BFEA10
ENDCHAR
STARTCHAR uni042D.c2sc
ENCODING -1
SWIDTH 548 0
DWIDTH 5 0
BBX 5 6 0 0
BITMAP
08ED40
4B12C0
01FFF0
0002D0
A41A80
3DE900
ENDCHAR
STARTCHAR uni042E.c2sc
ENCODING -1
SWIDTH 788 0
DWIDTH 8 0
BBX 8 6 0 0
BITMAP
0D05DE90
2B3E31B4
4FF80076
767600A3
945A14D0
C209EC30
ENDCHAR
STARTCHAR uni042F.c2sc
ENCODING -1
SWIDTH 553 0
DWIDTH 6 0
BBX 6 6 0 0
BITMAP
06EFF3
1D20C1
1C10D0
09FFB0
1C2490
B40760
ENDCHAR
STARTCHAR uni0492.c2sc
ENCODING -1
SWIDTH 498 0
DWIDTH 5 0
BBX 6 6 0 0
BITMAP
08FFF2
0B3000
EFF100
0D0000
3B0000
580000
ENDCHAR
STARTCHAR uni0496.c2sc
ENCODING -1
SWIDTH 766 0
DWIDTH 8 0
BBX 9 8 -1 -2
BITMAP
00D2672D20
006996D300
003FFF7000
00B6D5B000
06B1C0E200
2E23A09F00
0000000C00
0000001B00
ENDCHAR
STARTCHAR uni049A.c2sc
ENCODING -1
SWIDTH 547 0
DWIDTH 5 0
BBX 6 8 0 -2
BITMAP
0D05B1
2B6B10
4FD000
76C400
944C00
C20CC0
0002A0
000570
ENDCHAR
STARTCHAR uni049C.c2sc
ENCODING -1
SWIDTH 615 0
DWIDTH 6 0
BBX 7 6 0 0
BITMAP
0C106B10
2AA8A000
4FFC0000
7A7D2000
9406A000
C200D200
ENDCHAR
STARTCHAR uni04A0.c2sc
ENCODING -1
SWIDTH 637 0
DWIDTH 6 0
BBX 7 6 0 0
BITMAP
6FF14C20
00B5C100
02FE1000
057A5000
0753D000
0A30A600
ENDCHAR
STARTCHAR uni04A8.c2sc
ENCODING -1
SWIDTH 703 0
DWIDTH 7 0
BBX 7 6 0 0
BITMAP
05D6ED20
1D3D3870
682B0670
772A0930
4B1B4800
08EFFF20
ENDCHAR
STARTCHAR uni04B0.c2sc
ENCODING -1
SWIDTH 534 0
DWIDTH 5 0
BBX 6 6 0 0
BITMAP
4A00C3
0D1870
088B00
2FFF00
03A000
058000
ENDCHAR
STARTCHAR uni04B2.c2sc
ENCODING -1
SWIDTH 569 0
DWIDTH 6 0
BBX 7 8 -1 -2
BITMAP
01D01C30
0095A400
002E7000
005F6000
03D4D100
1D30AE00
00000C00
00002A00
ENDCHAR
STARTCHAR uni04B4.c2sc
ENCODING -1
SWIDTH 778 0
DWIDTH 8 0
BBX 7 8 0 -2
BITMAP
6FFFD2C0
00D00490
01C00770
03A00940
06700C20
08FFFFB0
00000490
00000660
ENDCHAR
STARTCHAR uni04B8.c2sc
ENCODING -1
SWIDTH 540 0
DWIDTH 5 0
BBX 6 6 0 0
BITMAP
4900B2
6720D0
69B3C0
1CFDA0
01A670
000850
ENDCHAR
STARTCHAR uni04BA.c2sc
ENCODING -1
SWIDTH 540 0
DWIDTH 5 0
BBX 5 6 0 0
BITMAP
0D0000
2B0000
4EED40
7814C0
9501C0
C204A0
ENDCHAR
STARTCHAR uni04BC.c2sc
ENCODING -1
SWIDTH 703 0
DWIDTH 7 0
BBX 7 6 0 0
BITMAP
001BEB10
10B71970
A5C00490
3EFFFF90
05A11200
00AEE500
ENDCHAR
STARTCHAR uni04D8.c2sc
ENCODING -1
SWIDTH 585 0
DWIDTH 6 0
BBX 6 6 0 0
BITMAP
04DE80
0211C4
000076
8FFFF4
8713B0
2CEB20
ENDCHAR
STARTCHAR uni04E0.c2sc
ENCODING -1
SWIDTH 519 0
DWIDTH 5 0
BBX 5 6 0 0
BITMAP
1FFFD0
005A20
01F900
000950
921B50
5EE800
ENDCHAR
STARTCHAR uni04E8.c2sc
ENCODING -1
SWIDTH 578 0
DWIDTH 6 0
BBX 6 6 0 0
BITMAP
03CE90
1B21A3
6FFFF5
7500B3
5A16D0
0AEC20
ENDCHAR
STARTCHAR lira.c2sc
ENCODING -1
SWIDTH 514 0
DWIDTH 5 0
BBX 5 6 0 0
BITMAP
04DE40
0C34A0
BFFC00
1C0000
EFF900
EFFF50
ENDCHAR
STARTCHAR Euro.c2sc
ENCODING -1
SWIDTH 476 0
DWIDTH 5 0
BBX 5 6 0 0
BITMAP
01AEA0
097010
9FFE00
0D0000
CFFC00
0BFC00
ENDCHAR
STARTCHAR uni2116.c2sc
ENCODING -1
SWIDTH 991 0
DWIDTH 10 0
BBX 10 6 0 0
BITMAP
0E303A3DD2
2EA068A467
49B285B286
7749B35EB1
940CE00000
C205D0EFB0
ENDCHAR
STARTCHAR uni20BD.c2sc
ENCODING -1
SWIDTH 570 0
DWIDTH 6 0
BBX 7 6 -1 0
BITMAP
008FFC20
00C30970
0CFDEC20
03C22000
2FFE0000
05800000
ENDCHAR
STARTCHAR three.dnom
ENCODING -1
SWIDTH 360 0
DWIDTH 4 0
BBX 3 4 0 0
BITMAP
3EC0
4F90
62B0
9E60
ENDCHAR
STARTCHAR four.dnom
ENCODING -1
SWIDTH 360 0
DWIDTH 4 0
BBX 4 4 -1 0
BITMAP
005D
068A
1FFF
0066
ENDCHAR
STARTCHAR five.dnom
ENCODING -1
SWIDTH 360 0
DWIDTH 4 0
BBX 4 4 0 0
BITMAP
4FF2
6E90
11C0
9E70
ENDCHAR
STARTCHAR six.dnom
ENCODING -1
SWIDTH 360 0
DWIDTH 4 0
BBX 3 4 0 0
BITMAP
1BB0
9FB0
B2D0
7F70
ENDCHAR
STARTCHAR seven.dnom
ENCODING -1
SWIDTH 360 0
DWIDTH 4 0
BBX 4 4 0 0
BITMAP
9FF4
01A0
0920
6600
ENDCHAR
STARTCHAR eight.dnom
ENCODING -1
SWIDTH 360 0
DWIDTH 4 0
BBX 3 4 0 0
BITMAP
5EC0
6FA0
C2C0
9E70
ENDCHAR
STARTCHAR nine.dnom
ENCODING -1
SWIDTH 360 0
DWIDTH 4 0
BBX 3 4 0 0
BITMAP
4EA0
A3C0
6EC0
7C30
ENDCHAR
STARTCHAR glyph550
ENCODING -1
SWIDTH 439 0
DWIDTH 4 0
BBX 4 1 0 3
BITMAP
3FFC
ENDCHAR
STARTCHAR glyph551
ENCODING -1
SWIDTH 333 0
DWIDTH 3 0
BBX 3 4 1 5
BITMAP
0590
0A10
7B00
8A00
ENDCHAR
STARTCHAR E.c2sc
ENCODING -1
SWIDTH 477 0
DWIDTH 5 0
BBX 5 6 0 0
BITMAP
0EFFD0
2B0000
4FFF10
760000
940000
CFFF00
ENDCHAR
STARTCHAR g.ss01
ENCODING -1
SWIDTH 517 0
DWIDTH 5 0
BBX 7 7 -1 -2
BITMAP
01AEFF40
05A18900
02EFC300
06600000
09FFC100
5A02C400
3CFD7000
ENDCHAR
STARTCHAR alpha.ss02
ENCODING -1
SWIDTH 582 0
DWIDTH 6 0
BBX 6 5 0 0
BITMAP
08EC77
3C25F1
8501B0
981AB0
3DE7B0
ENDCHAR
STARTCHAR R.ss03
ENCODING -1
SWIDTH 646 0
DWIDTH 6 0
BBX 6 7 0 0
BITMAP
08FFE7
0B402E
0D104C
1FFFE1
3A00B5
680085
950095
ENDCHAR
STARTCHAR K.ss04
ENCODING -1
SWIDTH 628 0
DWIDTH 6 0
BBX 7 7 0 0
BITMAP
08601C50
0B31C500
0D2C6000
1FFA0000
3B1D2000
6805B000
9500B500
ENDCHAR
STARTCHAR k.ss04
ENCODING -1
SWIDTH 499 0
DWIDTH 5 0
BBX 5 8 0 0
BITMAP
094000
0B2000
0E0000
1D06A0
4B6B00
6FF100
968800
B31C20
ENDCHAR
STARTCHAR K.ss05
ENCODING -1
SWIDTH 640 0
DWIDTH 6 0
BBX 7 7 0 0
BITMAP
08603C30
0B35C200
0D6C1000
1EE10000
3A790000
680B6000
9501D200
ENDCHAR
STARTCHAR k.ss05
ENCODING -1
SWIDTH 497 0
DWIDTH 5 0
BBX 5 8 0 0
BITMAP
095000
0B2000
0D0000
1C2B60
4CC400
6D9000
95B400
B22C10
ENDCHAR
STARTCHAR D.c2sc
ENCODING -1
SWIDTH 550 0
DWIDTH 6 0
BBX 5 6 0 0
BITMAP
0EFD30
2C04C0
4900D0
7601C0
942A70
CFD700
ENDCHAR
STARTCHAR C.c2sc
ENCODING -1
SWIDTH 548 0
DWIDTH 5 0
BBX 6 6 0 0
BITMAP
04DE80
2D31C2
670000
850000
7805A0
1BEB20
ENDCHAR
STARTCHAR B.c2sc
ENCODING -1
SWIDTH 527 0
DWIDTH 5 0
BBX 5 6 0 0
BITMAP
0EFE60
2B04B0
4FFE20
760770
940960
CFFA10
ENDCHAR
STARTCHAR A.c2sc
ENCODING -1
SWIDTH 552 0
DWIDTH 6 0
BBX 6 6 -1 0
BITMAP
0007B0
001CC0
0086B2
02D085
09FFF8
3C102B
ENDCHAR
STARTCHAR glyph564
ENCODING -1
SWIDTH 246 0
DWIDTH 2 0
BBX 2 2 1 6
BITMAP
47
A3
ENDCHAR
STARTCHAR glyph565
ENCODING -1
SWIDTH 446 0
DWIDTH 4 0
BBX 4 3 1 6
BITMAP
0800
93B2
3EA0
ENDCHAR
STARTCHAR glyph566
ENCODING -1
SWIDTH 0 0
DWIDTH 0 0
BBX 4 5 -4 6
BITMAP
00B1
0470
0000
3B62
64C0
ENDCHAR
STARTCHAR glyph567
ENCODING -1
SWIDTH 481 0
DWIDTH 5 0
BBX 5 2 1 6
BITMAP
1BA590
958300
ENDCHAR
STARTCHAR glyph568
ENCODING -1
SWIDTH 483 0
DWIDTH 5 0
BBX 5 4 0 6
BITMAP
A30000
450000
02BA00
095930
ENDCHAR
STARTCHAR glyph569
ENCODING -1
SWIDTH 496 0
DWIDTH 5 0
BBX 5 5 1 6
BITMAP
000850
000380
000A10
2BA000
A47400
ENDCHAR
STARTCHAR glyph570
ENCODING -1
SWIDTH 484 0
DWIDTH 5 0
BBX 4 4 1 6
BITMAP
1EE3
0000
1A90
9473
ENDCHAR
STARTCHAR uni0490.c2sc
ENCODING -1
SWIDTH 451 0
DWIDTH 5 0
BBX 5 8 0 0
BITMAP
000070
0001D0
0EFFB0
2C0000
4A0000
770000
940000
C20000
ENDCHAR
STARTCHAR glyph572
ENCODING -1
SWIDTH 443 0
DWIDTH 4 0
BBX 4 5 1 6
BITMAP
01B0
0540
0000
93B2
3EA0
ENDCHAR
STARTCHAR glyph573
ENCODING -1
SWIDTH 443 0
DWIDTH 4 0
BBX 3 4 1 6
BITMAP
06B0
0660
93C0
3E80
ENDCHAR
STARTCHAR zero.numr
ENCODING -1
SWIDTH 360 0
DWIDTH 4 0
BBX 4 4 0 3
BITMAP
09E5
2B39
3958
1DD2
ENDCHAR
STARTCHAR four.numr
ENCODING -1
SWIDTH 360 0
DWIDTH 4 0
BBX 4 4 0 3
BITMAP
01B6
19A3
7FF9
00B0
ENDCHAR
STARTCHAR five.numr
ENCODING -1
SWIDTH 360 0
DWIDTH 4 0
BBX 4 4 0 3
BITMAP
0AFB
0BE3
0177
2DD2
ENDCHAR
STARTCHAR six.numr
ENCODING -1
SWIDTH 360 0
DWIDTH 4 0
BBX 4 4 0 3
BITMAP
05D5
1FF4
3A68
1DD2
ENDCHAR
STARTCHAR seven.numr
ENCODING -1
SWIDTH 360 0
DWIDTH 4 0
BBX 4 4 0 3
BITMAP
1FFD
0065
0290
0B10
ENDCHAR
STARTCHAR eight.numr
ENCODING -1
SWIDTH 360 0
DWIDTH 4 0
BBX 4 4 0 3
BITMAP
0BE6
0CF3
4886
2DD2
ENDCHAR
STARTCHAR nine.numr
ENCODING -1
SWIDTH 360 0
DWIDTH 4 0
BBX 4 4 0 3
BITMAP
09E4
1B49
0CF6
0D90
ENDCHAR
STARTCHAR C.ss06
ENCODING -1
SWIDTH 672 0
DWIDTH 7 0
BBX 7 7 0 0
BITMAP
007EE900
08B21A60
1D100220
4A000000
4A000400
1E416B00
05DEA100
ENDCHAR
STARTCHAR G.ss06
ENCODING -1
SWIDTH 693 0
DWIDTH 7 0
BBX 7 7 0 0
BITMAP
007EE900
08B21A60
1D100010
4A000000
4A04FF30
1E402D00
05DED600
ENDCHAR
STARTCHAR D.ss06
ENCODING -1
SWIDTH 680 0
DWIDTH 7 0
BBX 7 7 0 0
BITMAP
08FFC300
0B404D10
0D100B40
1D000B30
3A001D10
6703D600
9FFC5000
ENDCHAR
STARTCHAR O.ss06
ENCODING -1
SWIDTH 717 0
DWIDTH 7 0
BBX 7 7 0 0
BITMAP
007DE900
07B21B60
1D1004A0
4A000490
4A000960
0E317C00
05DEA100
ENDCHAR
STARTCHAR Q.ss06
ENCODING -1
SWIDTH 718 0
DWIDTH 7 0
BBX 7 8 0 -1
BITMAP
007DE900
07B21B60
1D1004A0
4A000490
4A000960
0E317C00
05DFD100
0000B500
ENDCHAR
STARTCHAR one.oldstyle.pnum
ENCODING -1
SWIDTH 469 0
DWIDTH 5 0
BBX 3 6 1 0
BITMAP
28A0
C990
0660
0940
0B20
0D00
ENDCHAR
STARTCHAR two.oldstyle.pnum
ENCODING -1
SWIDTH 551 0
DWIDTH 6 0
BBX 5 6 0 0
BITMAP
05DE60
1D22D0
000780
009800
2B5000
AFFF80
ENDCHAR
STARTCHAR three.oldstyle.pnum
ENCODING -1
SWIDTH 531 0
DWIDTH 5 0
BBX 6 8 -1 -2
BITMAP
03FFFF
0000A5
000950
004F90
0002C3
0000A4
2215D0
4CFB20
ENDCHAR
STARTCHAR four.oldstyle.pnum
ENCODING -1
SWIDTH 587 0
DWIDTH 6 0
BBX 7 8 -1 -2
BITMAP
00004F10
0002CD00
001C4B00
00B45800
09608600
2FFFFF30
0000C200
0000D000
ENDCHAR
STARTCHAR five.oldstyle.pnum
ENCODING -1
SWIDTH 540 0
DWIDTH 5 0
BBX 7 8 -1 -2
BITMAP
008FFF40
00C10000
01B00000
05EEC100
03419600
00007700
0303D200
1BED5000
ENDCHAR
STARTCHAR seven.oldstyle.pnum
ENCODING -1
SWIDTH 511 0
DWIDTH 5 0
BBX 6 8 0 -2
BITMAP
4FFFF3
0002B0
000A30
004A00
00C200
068000
1C1000
860000
ENDCHAR
STARTCHAR glyph592
ENCODING -1
SWIDTH 446 0
DWIDTH 4 0
BBX 4 3 1 6
BITMAP
3EE2
93C1
3E80
ENDCHAR
STARTCHAR glyph593
ENCODING -1
SWIDTH 194 0
DWIDTH 2 0
BBX 2 3 -1 -2
BITMAP
0D
2C
4A
ENDCHAR
STARTCHAR OE.c2sc
ENCODING -1
SWIDTH 810 0
DWIDTH 8 0
BBX 9 6 0 0
BITMAP
03CFFFFF40
1D40A20000
6800DFF700
8501C00000
6A04900000
0AFFFFF600
ENDCHAR
STARTCHAR nine.oldstyle.pnum
ENCODING -1
SWIDTH 577 0
DWIDTH 6 0
BBX 6 8 0 -2
BITMAP
04DE60
1D31D1
4900B2
4C14E1
09FCE0
0006A0
114E30
7ED400
ENDCHAR
STARTCHAR glyph596
ENCODING -1
SWIDTH 245 0
DWIDTH 2 0
BBX 4 3 -2 -2
BITMAP
00A4
01D1
2E80
ENDCHAR
STARTCHAR three.oldstyle
ENCODING -1
SWIDTH 549 0
DWIDTH 6 0
BBX 7 8 -1 -2
BITMAP
00FFFF30
00007800
00068000
001FB100
0001A700
00006700
1304D200
2BFC4000
ENDCHAR
STARTCHAR five.oldstyle
ENCODING -1
SWIDTH 549 0
DWIDTH 6 0
BBX 6 8 0 -2
BITMAP
07FFF5
0B1000
0C0000
4EEC10
341970
000680
303D30
BED500
ENDCHAR
STARTCHAR four.oldstyle
ENCODING -1
SWIDTH 549 0
DWIDTH 6 0
BBX 7 8 -1 -2
BITMAP
00005E00
0003CC00
002C5900
01B27600
0A409400
4FFFFF10
0000D000
0001D000
ENDCHAR
STARTCHAR two.oldstyle
ENCODING -1
SWIDTH 549 0
DWIDTH 6 0
BBX 5 6 0 0
BITMAP
06DE60
2D23C0
000870
01A800
2B5000
BFFF80
ENDCHAR
STARTCHAR seven.oldstyle
ENCODING -1
SWIDTH 549 0
DWIDTH 6 0
BBX 6 8 0 -2
BITMAP
1FFFF6
0000C1
000770
001C00
009500
03B000
0B3000
590000
ENDCHAR
STARTCHAR zero.oldstyle
ENCODING -1
SWIDTH 549 0
DWIDTH 6 0
BBX 6 6 0 0
BITMAP
06DE60
3C22D1
9400A3
B200C1
9717B0
2CFB10
ENDCHAR
STARTCHAR six.oldstyle
ENCODING -1
SWIDTH 549 0
DWIDTH 6 0
BBX 5 7 0 0
BITMAP
006C80
069200
0DDE40
4C24C0
6701D0
5B1880
0AEA10
ENDCHAR
STARTCHAR nine.oldstyle
ENCODING -1
SWIDTH 549 0
DWIDTH 6 0
BBX 5 8 0 -2
BITMAP
06ED40
3D23C0
7700D0
6A15D0
0BECB0
000970
216D10
9EC300
ENDCHAR
STARTCHAR eight.oldstyle
ENCODING -1
SWIDTH 549 0
DWIDTH 6 0
BBX 6 7 0 0
BITMAP
02CE90
0B51C2
0B32C1
07FF30
6915A0
8717A0
2CEB20
ENDCHAR
STARTCHAR one.oldstyle
ENCODING -1
SWIDTH 549 0
DWIDTH 6 0
BBX 4 6 1 0
BITMAP
16C2
89D0
01C0
03A0
0580
0850
ENDCHAR
STARTCHAR glyph607
ENCODING -1
SWIDTH 250 0
DWIDTH 3 0
BBX 4 7 -2 -2
BITMAP
000D
001D
004A
0077
00A4
01E1
2E80
ENDCHAR
STARTCHAR glyph608
ENCODING -1
SWIDTH 249 0
DWIDTH 3 0
BBX 4 7 -2 -2
BITMAP
000D
001D
004A
0077
00A4
01E1
2E80
ENDCHAR
STARTCHAR glyph609
ENCODING -1
SWIDTH 245 0
DWIDTH 2 0
BBX 2 5 0 0
BITMAP
0D
2B
59
86
A3
ENDCHAR
STARTCHAR glyph610
ENCODING -1
SWIDTH 245 0
DWIDTH 2 0
BBX 3 7 -1 -2
BITMAP
00D0
02B0
0590
0860
0F30
7500
7C00
ENDCHAR
STARTCHAR glyph611
ENCODING -1
SWIDTH 245 0
DWIDTH 2 0
BBX 2 5 0 0
BITMAP
0D
2B
59
86
A3
ENDCHAR
STARTCHAR germandbls.sc
ENCODING -1
SWIDTH 527 0
DWIDTH 5 0
BBX 5 6 0 0
BITMAP
06ED50
1E4920
49BC20
770680
951960
C7EA10
ENDCHAR
STARTCHAR zero.oldstyle.pnum
ENCODING -1
SWIDTH 611 0
DWIDTH 6 0
BBX 6 6 0 0
BITMAP
03CEA0
0D41A6
490058
670086
4B14D1
09ED40
ENDCHAR
STARTCHAR seven.pnum
ENCODING -1
SWIDTH 504 0
DWIDTH 5 0
BBX 6 7 0 0
BITMAP
1FFFF4
0001B0
000A30
004800
01C100
085000
3B0000
ENDCHAR
STARTCHAR b.ss06
ENCODING -1
SWIDTH 549 0
DWIDTH 6 0
BBX 5 8 0 0
BITMAP
094000
0C2000
0E0000
2ECE70
4C22E0
7700D0
9816B0
BAEB20
ENDCHAR
STARTCHAR c.ss06
ENCODING -1
SWIDTH 513 0
DWIDTH 5 0
BBX 5 5 0 0
BITMAP
06DE60
3C22A0
850000
781540
1BEA10
ENDCHAR
STARTCHAR d.ss06
ENCODING -1
SWIDTH 559 0
DWIDTH 6 0
BBX 6 8 0 0
BITMAP
000059
000076
000094
07EDD1
4C22D0
9501B0
871890
2DEC60
ENDCHAR
STARTCHAR g.ss06
ENCODING -1
SWIDTH 556 0
DWIDTH 6 0
BBX 6 7 0 -2
BITMAP
08EDC3
4C22E0
9501C0
881890
2DEC70
312D20
7ED600
ENDCHAR
STARTCHAR o.ss06
ENCODING -1
SWIDTH 564 0
DWIDTH 6 0
BBX 6 5 0 0
BITMAP
07EE60
4C22D1
9500C1
8716B0
2CFB10
ENDCHAR
STARTCHAR p.ss06
ENCODING -1
SWIDTH 556 0
DWIDTH 6 0
BBX 6 7 -1 -2
BITMAP
01DCE7
03C23E
06700D
09717B
0BAEB2
0D0000
2C0000
ENDCHAR
STARTCHAR q.ss06
ENCODING -1
SWIDTH 563 0
DWIDTH 6 0
BBX 6 7 0 -2
BITMAP
07EDC3
4C22E0
9501C0
881790
2CEC70
000940
000C10
ENDCHAR
STARTCHAR e.ss07
ENCODING -1
SWIDTH 518 0
DWIDTH 5 0
BBX 5 5 0 0
BITMAP
06EE40
3B13C0
8FFFC0
781310
1AEB10
ENDCHAR
STARTCHAR g.ss07
ENCODING -1
SWIDTH 549 0
DWIDTH 6 0
BBX 6 7 0 -2
BITMAP
08EDC2
4C22E0
8502B0
881990
2DEC60
212D20
6ED500
ENDCHAR
STARTCHAR one.pnum
ENCODING -1
SWIDTH 425 0
DWIDTH 4 0
BBX 4 7 0 0
BITMAP
0399
1B98
0085
00A2
00D0
01C0
04A0
ENDCHAR
STARTCHAR ampersand.c2sc
ENCODING -1
SWIDTH 591 0
DWIDTH 6 0
BBX 6 6 0 0
BITMAP
06EC00
0C3D10
07D600
4BB4B1
A42D90
5EEAA0
ENDCHAR
STARTCHAR Lslash.c2sc
ENCODING -1
SWIDTH 454 0
DWIDTH 5 0
BBX 5 6 -1 0
BITMAP
00D000
02B000
06DB00
1DA200
094000
0CFFD0
ENDCHAR
STARTCHAR AE.c2sc
ENCODING -1
SWIDTH 759 0
DWIDTH 8 0
BBX 9 6 -1 0
BITMAP
0000BFFF60
0006AA0000
002D5FFB00
00C5660000
07FFF40000
3D20AFFC00
ENDCHAR
STARTCHAR Thorn.c2sc
ENCODING -1
SWIDTH 486 0
DWIDTH 5 0
BBX 5 6 0 0
BITMAP
0D0000
2FFB10
490870
771A50
9FE900
C20000
ENDCHAR
STARTCHAR Oslash.c2sc
ENCODING -1
SWIDTH 578 0
DWIDTH 6 0
BBX 6 8 0 -1
BITMAP
000001
04DEC4
2D35E3
772984
95A1B2
7C26C0
7CFB20
200000
ENDCHAR
STARTCHAR Hbar.c2sc
ENCODING -1
SWIDTH 597 0
DWIDTH 6 0
BBX 6 6 0 0
BITMAP
0D003A
8FFFFF
3A0076
6FFFF3
9500C1
C201D0
ENDCHAR
STARTCHAR Eng.c2sc
ENCODING -1
SWIDTH 597 0
DWIDTH 6 0
BBX 6 8 0 -2
BITMAP
0E303A
2EA068
49A285
7739B3
940AE0
C203D0
0006A0
008D30
ENDCHAR
STARTCHAR Dcroat.c2sc
ENCODING -1
SWIDTH 550 0
DWIDTH 6 0
BBX 6 6 -1 0
BITMAP
00EFD3
02C04C
5FFA0D
07601C
0942A7
0CFD70
ENDCHAR
STARTCHAR Eth.c2sc
ENCODING -1
SWIDTH 550 0
DWIDTH 6 0
BBX 6 6 -1 0
BITMAP
00EFD3
02C04C
5FFA0D
07601C
0942A7
0CFD70
ENDCHAR
STARTCHAR Tbar.c2sc
ENCODING -1
SWIDTH 507 0
DWIDTH 5 0
BBX 6 6 0 0
BITMAP
6FFFF4
00A300
0EFF20
00D000
03A000
058000
ENDCHAR
STARTCHAR Agrave.c2sc
ENCODING -1
SWIDTH 552 0
DWIDTH 6 0
BBX 6 9 -1 0
BITMAP
000A50
000280
000000
0007B0
001CC0
0086B2
02D085
09FFF8
3C102B
ENDCHAR
STARTCHAR Aacute.c2sc
ENCODING -1
SWIDTH 552 0
DWIDTH 6 0
BBX 6 9 -1 0
BITMAP
00006B
0000B1
000000
0007B0
001CC0
0086B2
02D085
09FFF8
3C102B
ENDCHAR
STARTCHAR Acircumflex.c2sc
ENCODING -1
SWIDTH 552 0
DWIDTH 6 0
BBX 6 9 -1 0
BITMAP
0007D5
001D3C
000000
0007B0
001CC0
0086B2
02D085
09FFF8
3C102B
ENDCHAR
STARTCHAR Atilde.c2sc
ENCODING -1
SWIDTH 552 0
DWIDTH 6 0
BBX 7 9 -1 0
BITMAP
000C6820
00478B00
00000000
0007B000
001CC000
0086B200
02D08500
09FFF800
3C102B00
ENDCHAR
STARTCHAR Adieresis.c2sc
ENCODING -1
SWIDTH 552 0
DWIDTH 6 0
BBX 6 8 -1 0
BITMAP
000B0C
000000
0007B0
001CC0
0086B2
02D085
09FFF8
3C102B
ENDCHAR
STARTCHAR Aring.c2sc
ENCODING -1
SWIDTH 552 0
DWIDTH 6 0
BBX 6 10 -1 0
BITMAP
0003E3
000747
0004E3
000000
0007B0
001CC0
0086B2
02D085
09FFF8
3C102B
ENDCHAR
STARTCHAR Aringacute.c2sc
ENCODING -1
SWIDTH 552 0
DWIDTH 6 0
BBX 6 9 -1 0
BITMAP
00002C
000083
0004D0
000CF0
001CC0
0086B2
02D085
09FFF8
3C102B
ENDCHAR
STARTCHAR Ccedilla.c2sc
ENCODING -1
SWIDTH 548 0
DWIDTH 5 0
BBX 6 8 0 -2
BITMAP
04DE80
2D31C2
670000
850000
7805A0
1BEB20
02B000
07B000
ENDCHAR
STARTCHAR Egrave.c2sc
ENCODING -1
SWIDTH 477 0
DWIDTH 5 0
BBX 5 9 0 0
BITMAP
00D200
005500
000000
0EFFD0
2B0000
4FFF10
760000
940000
CFFF00
ENDCHAR
STARTCHAR Eacute.c2sc
ENCODING -1
SWIDTH 477 0
DWIDTH 5 0
BBX 5 9 0 0
BITMAP
000A70
002A00
000000
0EFFD0
2B0000
4FFF10
760000
940000
CFFF00
ENDCHAR
STARTCHAR Ecircumflex.c2sc
ENCODING -1
SWIDTH 477 0
DWIDTH 5 0
BBX 5 9 0 0
BITMAP
019C20
05B580
000000
0EFFD0
2B0000
4FFF10
760000
940000
CFFF00
ENDCHAR
STARTCHAR Edieresis.c2sc
ENCODING -1
SWIDTH 477 0
DWIDTH 5 0
BBX 5 8 0 0
BITMAP
039390
000000
0EFFD0
2B0000
4FFF10
760000
940000
CFFF00
ENDCHAR
STARTCHAR Igrave.c2sc
ENCODING -1
SWIDTH 235 0
DWIDTH 2 0
BBX 3 9 0 0
BITMAP
4B00
0A10
0000
0D00
1C00
3A00
6800
8500
B300
ENDCHAR
STARTCHAR Iacute.c2sc
ENCODING -1
SWIDTH 235 0
DWIDTH 2 0
BBX 4 9 0 0
BITMAP
02D2
0750
0000
0D00
1C00
3A00
6800
8500
B300
ENDCHAR
STARTCHAR Icircumflex.c2sc
ENCODING -1
SWIDTH 235 0
DWIDTH 2 0
BBX 4 9 0 0
BITMAP
3BA0
A5B3
0000
0D00
1C00
3A00
6800
8500
B300
ENDCHAR
STARTCHAR Idieresis.c2sc
ENCODING -1
SWIDTH 235 0
DWIDTH 2 0
BBX 4 8 0 0
BITMAP
8384
0000
0D00
1C00
3A00
6800
8500
B300
ENDCHAR
STARTCHAR Ntilde.c2sc
ENCODING -1
SWIDTH 597 0
DWIDTH 6 0
BBX 6 9 0 0
BITMAP
00A955
01A5D1
000000
0E303A
2EA068
49B285
7749B3
940CE0
C205D0
ENDCHAR
STARTCHAR Ograve.c2sc
ENCODING -1
SWIDTH 578 0
DWIDTH 6 0
BBX 6 9 0 0
BITMAP
008700
001A00
000000
04DE80
2D31C2
670094
8500B2
6A15C0
1BEB20
ENDCHAR
STARTCHAR Oacute.c2sc
ENCODING -1
SWIDTH 578 0
DWIDTH 6 0
BBX 6 9 0 0
BITMAP
0005C0
000B20
000000
04DE80
2D31C2
670094
8500B2
6A15C0
1BEB20
ENDCHAR
STARTCHAR Ocircumflex.c2sc
ENCODING -1
SWIDTH 578 0
DWIDTH 6 0
BBX 6 9 0 0
BITMAP
005D60
00E2D0
000000
04DE80
2D31C2
670094
8500B2
6A15C0
1BEB20
ENDCHAR
STARTCHAR Otilde.c2sc
ENCODING -1
SWIDTH 578 0
DWIDTH 6 0
BBX 6 9 0 0
BITMAP
00B873
0287C0
000000
04DE80
2D31C2
670094
8500B2
6A15C0
1BEB20
ENDCHAR
STARTCHAR Odieresis.c2sc
ENCODING -1
SWIDTH 578 0
DWIDTH 6 0
BBX 6 8 0 0
BITMAP
00C0B0
000000
04DE80
2D31C2
670094
8500B2
6A15C0
1BEB20
ENDCHAR
STARTCHAR Ugrave.c2sc
ENCODING -1
SWIDTH 548 0
DWIDTH 5 0
BBX 6 9 0 0
BITMAP
00A500
003800
000000
0D0085
3A00B3
5800D0
7501D0
881890
2CEB10
ENDCHAR
STARTCHAR Uacute.c2sc
ENCODING -1
SWIDTH 548 0
DWIDTH 5 0
BBX 6 9 0 0
BITMAP
0007A0
001B10
000000
0D0085
3A00B3
5800D0
7501D0
881890
2CEB10
ENDCHAR
STARTCHAR Ucircumflex.c2sc
ENCODING -1
SWIDTH 548 0
DWIDTH 5 0
BBX 6 9 0 0
BITMAP
007D40
02D3B0
000000
0D0085
3A00B3
5800D0
7501D0
881890
2CEB10
ENDCHAR
STARTCHAR Udieresis.c2sc
ENCODING -1
SWIDTH 548 0
DWIDTH 5 0
BBX 6 8 0 0
BITMAP
01B0B0
000000
0D0085
3A00B3
5800D0
7501D0
881890
2CEB10
ENDCHAR
STARTCHAR Yacute.c2sc
ENCODING -1
SWIDTH 510 0
DWIDTH 5 0
BBX 6 9 0 0
BITMAP
000A70
003A00
000000
4A00C3
0D1870
088B00
03E200
03A000
058000
ENDCHAR
STARTCHAR Amacron.c2sc
ENCODING -1
SWIDTH 552 0
DWIDTH 6 0
BBX 7 8 -1 0
BITMAP
002FFF10
00000000
0007B000
001CC000
0086B200
02D08500
09FFF800
3C102B00
ENDCHAR
STARTCHAR Abreve.c2sc
ENCODING -1
SWIDTH 552 0
DWIDTH 6 0
BBX 6 9 -1 0
BITMAP
000B2C
0006E6
000000
0007B0
001CC0
0086B2
02D085
09FFF8
3C102B
ENDCHAR
STARTCHAR Aogonek.c2sc
ENCODING -1
SWIDTH 552 0
DWIDTH 6 0
BBX 6 8 -1 -2
BITMAP
0007B0
001CC0
0086B2
02D085
09FFF8
3C102B
000093
0000D6
ENDCHAR
STARTCHAR Cacute.c2sc
ENCODING -1
SWIDTH 548 0
DWIDTH 5 0
BBX 6 9 0 0
BITMAP
0006B0
000B10
000000
04DE80
2D31C2
670000
850000
7805A0
1BEB20
ENDCHAR
STARTCHAR Ccircumflex.c2sc
ENCODING -1
SWIDTH 548 0
DWIDTH 5 0
BBX 6 9 0 0
BITMAP
006D50
01E3C0
000000
04DE80
2D31C2
670000
850000
7805A0
1BEB20
ENDCHAR
STARTCHAR Cdotaccent.c2sc
ENCODING -1
SWIDTH 548 0
DWIDTH 5 0
BBX 6 8 0 0
BITMAP
000B00
000000
04DE80
2D31C2
670000
850000
7805A0
1BEB20
ENDCHAR
STARTCHAR Ccaron.c2sc
ENCODING -1
SWIDTH 548 0
DWIDTH 5 0
BBX 6 9 0 0
BITMAP
00A4A0
002D10
000000
04DE80
2D31C2
670000
850000
7805A0
1BEB20
ENDCHAR
STARTCHAR Dcaron.c2sc
ENCODING -1
SWIDTH 550 0
DWIDTH 6 0
BBX 5 9 0 0
BITMAP
029850
008900
000000
0EFD30
2C04C0
4900D0
7601C0
942A70
CFD700
ENDCHAR
STARTCHAR Emacron.c2sc
ENCODING -1
SWIDTH 477 0
DWIDTH 5 0
BBX 5 8 0 0
BITMAP
05FFD0
000000
0EFFD0
2B0000
4FFF10
760000
940000
CFFF00
ENDCHAR
STARTCHAR Ebreve.c2sc
ENCODING -1
SWIDTH 477 0
DWIDTH 5 0
BBX 5 9 0 0
BITMAP
01B390
009E30
000000
0EFFD0
2B0000
4FFF10
760000
940000
CFFF00
ENDCHAR
STARTCHAR Edotaccent.c2sc
ENCODING -1
SWIDTH 477 0
DWIDTH 5 0
BBX 5 8 0 0
BITMAP
003900
000000
0EFFD0
2B0000
4FFF10
760000
940000
CFFF00
ENDCHAR
STARTCHAR Eogonek.c2sc
ENCODING -1
SWIDTH 477 0
DWIDTH 5 0
BBX 5 8 0 -2
BITMAP
0EFFD0
2B0000
4FFF10
760000
940000
CFFF00
009200
00D600
ENDCHAR
STARTCHAR Ecaron.c2sc
ENCODING -1
SWIDTH 477 0
DWIDTH 5 0
BBX 5 9 0 0
BITMAP
00B580
006B00
000000
0EFFD0
2B0000
4FFF10
760000
940000
CFFF00
ENDCHAR
STARTCHAR Gcircumflex.c2sc
ENCODING -1
SWIDTH 571 0
DWIDTH 6 0
BBX 6 9 0 0
BITMAP
006D50
01D3C0
000000
04DE90
2D31A3
670000
852FF1
6A02D0
1AED60
ENDCHAR
STARTCHAR Gbreve.c2sc
ENCODING -1
SWIDTH 571 0
DWIDTH 6 0
BBX 6 9 0 0
BITMAP
00B2C0
006E60
000000
04DE90
2D31A3
670000
852FF1
6A02D0
1AED60
ENDCHAR
STARTCHAR Gdotaccent.c2sc
ENCODING -1
SWIDTH 571 0
DWIDTH 6 0
BBX 6 8 0 0
BITMAP
000B00
000000
04DE90
2D31A3
670000
852FF1
6A02D0
1AED60
ENDCHAR
STARTCHAR uni0122.c2sc
ENCODING -1
SWIDTH 571 0
DWIDTH 6 0
BBX 6 9 0 -3
BITMAP
04DE90
2D31A3
670000
852FF1
6A02D0
1AED60
000000
057000
092000
ENDCHAR
STARTCHAR Hcircumflex.c2sc
ENCODING -1
SWIDTH 597 0
DWIDTH 6 0
BBX 6 9 0 0
BITMAP
005D70
00D3D0
000000
0D004A
2A0078
4FFFF5
7600C3
9400E0
C201D0
ENDCHAR
STARTCHAR Itilde.c2sc
ENCODING -1
SWIDTH 235 0
DWIDTH 2 0
BBX 4 9 0 0
BITMAP
7B38
A3D3
0000
0D00
1C00
3A00
6800
8500
B300
ENDCHAR
STARTCHAR Imacron.c2sc
ENCODING -1
SWIDTH 235 0
DWIDTH 2 0
BBX 4 8 0 0
BITMAP
BFF7
0000
0D00
1C00
3A00
6800
8500
B300
ENDCHAR
STARTCHAR Ibreve.c2sc
ENCODING -1
SWIDTH 235 0
DWIDTH 2 0
BBX 4 9 0 0
BITMAP
6694
2DB0
0000
0D00
1C00
3A00
6800
8500
B300
ENDCHAR
STARTCHAR Iogonek.c2sc
ENCODING -1
SWIDTH 235 0
DWIDTH 2 0
BBX 3 8 -1 -2
BITMAP
00D0
01C0
03A0
0680
0850
0F30
7500
7C00
ENDCHAR
STARTCHAR Idotaccent.c2sc
ENCODING -1
SWIDTH 235 0
DWIDTH 2 0
BBX 3 8 0 0
BITMAP
0830
0000
0D00
1C00
3A00
6800
8500
B300
ENDCHAR
STARTCHAR Jcircumflex.c2sc
ENCODING -1
SWIDTH 466 0
DWIDTH 5 0
BBX 6 9 0 0
BITMAP
001AC2
006A68
000000
000760
000A40
000C10
000E00
D16B00
6ED300
ENDCHAR
STARTCHAR uni0136.c2sc
ENCODING -1
SWIDTH 529 0
DWIDTH 5 0
BBX 6 9 0 -3
BITMAP
0D02C3
2B3D30
4CE300
7DB400
942C00
C20970
000000
093000
0A0000
ENDCHAR
STARTCHAR Lacute.c2sc
ENCODING -1
SWIDTH 454 0
DWIDTH 5 0
BBX 4 9 0 0
BITMAP
02D2
0850
0000
0D00
2B00
4900
7600
9400
CFFD
ENDCHAR
STARTCHAR uni013B.c2sc
ENCODING -1
SWIDTH 454 0
DWIDTH 5 0
BBX 4 9 0 -3
BITMAP
0D00
2B00
4900
7600
9400
CFFD
0000
0A30
0A00
ENDCHAR
STARTCHAR Lcaron.c2sc
ENCODING -1
SWIDTH 454 0
DWIDTH 5 0
BBX 4 6 0 0
BITMAP
0D1C
2B55
4900
7600
9400
CFFD
ENDCHAR
STARTCHAR Ldot.c2sc
ENCODING -1
SWIDTH 454 0
DWIDTH 5 0
BBX 4 6 0 0
BITMAP
0D00
2B00
4975
7600
9400
CFFD
ENDCHAR
STARTCHAR Nacute.c2sc
ENCODING -1
SWIDTH 597 0
DWIDTH 6 0
BBX 6 9 0 0
BITMAP
0004D1
000A30
000000
0E303A
2EA068
49B285
7749B3
940CE0
C205D0
ENDCHAR
STARTCHAR uni0145.c2sc
ENCODING -1
SWIDTH 597 0
DWIDTH 6 0
BBX 6 9 0 -3
BITMAP
0E303A
2EA068
49B285
7749B3
940CE0
C205D0
000000
03A000
073000
ENDCHAR
STARTCHAR Ncaron.c2sc
ENCODING -1
SWIDTH 597 0
DWIDTH 6 0
BBX 6 9 0 0
BITMAP
0084B1
001D30
000000
0E303A
2EA068
49B285
7749B3
940CE0
C205D0
ENDCHAR
STARTCHAR Omacron.c2sc
ENCODING -1
SWIDTH 578 0
DWIDTH 6 0
BBX 6 8 0 0
BITMAP
00FFF2
000000
04DE80
2D31C2
670094
8500B2
6A15C0
1BEB20
ENDCHAR
STARTCHAR Obreve.c2sc
ENCODING -1
SWIDTH 578 0
DWIDTH 6 0
BBX 6 9 0 0
BITMAP
00B2C0
005E70
000000
04DE80
2D31C2
670094
8500B2
6A15C0
1BEB20
ENDCHAR
STARTCHAR Ohungarumlaut.c2sc
ENCODING -1
SWIDTH 578 0
DWIDTH 6 0
BBX 6 9 0 0
BITMAP
002D98
0087B0
000000
04DE80
2D31C2
670094
8500B2
6A15C0
1BEB20
ENDCHAR
STARTCHAR Racute.c2sc
ENCODING -1
SWIDTH 524 0
DWIDTH 5 0
BBX 5 9 0 0
BITMAP
000B60
003A00
000000
0EFE60
2C02D0
4904C0
7FFD30
951D00
C20950
ENDCHAR
STARTCHAR uni0156.c2sc
ENCODING -1
SWIDTH 524 0
DWIDTH 5 0
BBX 5 9 0 -3
BITMAP
0EFE60
2C02D0
4904C0
7FFD30
951D00
C20950
000000
0A3000
0A0000
ENDCHAR
STARTCHAR Rcaron.c2sc
ENCODING -1
SWIDTH 524 0
DWIDTH 5 0
BBX 5 9 0 0
BITMAP
01A660
007A00
000000
0EFE60
2C02D0
4904C0
7FFD30
951D00
C20950
ENDCHAR
STARTCHAR Sacute.c2sc
ENCODING -1
SWIDTH 504 0
DWIDTH 5 0
BBX 5 9 0 0
BITMAP
000980
002B00
000000
08ED40
3C13C0
1DA400
116D40
C31A50
4DEA00
ENDCHAR
STARTCHAR Scircumflex.c2sc
ENCODING -1
SWIDTH 504 0
DWIDTH 5 0
BBX 5 9 0 0
BITMAP
009C30
04B590
000000
08ED40
3C13C0
1DA400
116D40
C31A50
4DEA00
ENDCHAR
STARTCHAR Scedilla.c2sc
ENCODING -1
SWIDTH 504 0
DWIDTH 5 0
BBX 5 8 0 -2
BITMAP
08ED40
3C13C0
1DA400
116D40
C31A50
4DEA00
039000
099000
ENDCHAR
STARTCHAR Scaron.c2sc
ENCODING -1
SWIDTH 504 0
DWIDTH 5 0
BBX 5 9 0 0
BITMAP
00B580
005C00
000000
08ED40
3C13C0
1DA400
116D40
C31A50
4DEA00
ENDCHAR
STARTCHAR uni021A.c2sc
ENCODING -1
SWIDTH 507 0
DWIDTH 5 0
BBX 6 9 0 -3
BITMAP
6FFFF4
00A300
00C100
00D000
03A000
058000
000000
093000
0A0000
ENDCHAR
STARTCHAR Tcaron.c2sc
ENCODING -1
SWIDTH 507 0
DWIDTH 5 0
BBX 6 9 0 0
BITMAP
01B570
006B00
000000
6FFFF4
00A300
00C100
00D000
03A000
058000
ENDCHAR
STARTCHAR uni0162.c2sc
ENCODING -1
SWIDTH 507 0
DWIDTH 5 0
BBX 6 8 0 -2
BITMAP
6FFFF4
00A300
00C100
00D000
03A000
058000
048000
0B8000
ENDCHAR
STARTCHAR Utilde.c2sc
ENCODING -1
SWIDTH 548 0
DWIDTH 5 0
BBX 6 9 0 0
BITMAP
01D691
0469B0
000000
0D0085
3A00B3
5800D0
7501D0
881890
2CEB10
ENDCHAR
STARTCHAR Umacron.c2sc
ENCODING -1
SWIDTH 548 0
DWIDTH 5 0
BBX 6 8 0 0
BITMAP
02FFF0
000000
0D0085
3A00B3
5800D0
7501D0
881890
2CEB10
ENDCHAR
STARTCHAR Ubreve.c2sc
ENCODING -1
SWIDTH 548 0
DWIDTH 5 0
BBX 6 9 0 0
BITMAP
00B2B0
007E50
000000
0D0085
3A00B3
5800D0
7501D0
881890
2CEB10
ENDCHAR
STARTCHAR Uring.c2sc
ENCODING -1
SWIDTH 548 0
DWIDTH 5 0
BBX 6 10 0 0
BITMAP
003E30
008470
004E20
000000
0D0085
3A00B3
5800D0
7501D0
881890
2CEB10
ENDCHAR
STARTCHAR Uhungarumlaut.c2sc
ENCODING -1
SWIDTH 548 0
DWIDTH 5 0
BBX 6 9 0 0
BITMAP
003CB6
009790
000000
0D0085
3A00B3
5800D0
7501D0
881890
2CEB10
ENDCHAR
STARTCHAR Uogonek.c2sc
ENCODING -1
SWIDTH 548 0
DWIDTH 5 0
BBX 6 8 0 -2
BITMAP
0D0085
3A00B3
5800D0
7501D0
881890
2CFB10
02A000
02E300
ENDCHAR
STARTCHAR Wcircumflex.c2sc
ENCODING -1
SWIDTH 742 0
DWIDTH 7 0
BBX 8 9 0 0
BITMAP
0007D400
002D3B00
00000000
3906A068
290BA0B2
1A47A2A0
0BA1A840
0C90AB00
0D309700
ENDCHAR
STARTCHAR Ycircumflex.c2sc
ENCODING -1
SWIDTH 510 0
DWIDTH 5 0
BBX 6 9 0 0
BITMAP
019C20
05A580
000000
4A00C3
0D1870
088B00
03E200
03A000
058000
ENDCHAR
STARTCHAR Ydieresis.c2sc
ENCODING -1
SWIDTH 510 0
DWIDTH 5 0
BBX 6 8 0 0
BITMAP
038390
000000
4A00C3
0D1870
088B00
03E200
03A000
058000
ENDCHAR
STARTCHAR Zacute.c2sc
ENCODING -1
SWIDTH 506 0
DWIDTH 5 0
BBX 6 9 -1 0
BITMAP
0000A7
0003A0
000000
03FFFF
0000A5
000960
008700
078000
2FFFF4
ENDCHAR
STARTCHAR Zdotaccent.c2sc
ENCODING -1
SWIDTH 506 0
DWIDTH 5 0
BBX 6 8 -1 0
BITMAP
000390
000000
03FFFF
0000A5
000960
008700
078000
2FFFF4
ENDCHAR
STARTCHAR Zcaron.c2sc
ENCODING -1
SWIDTH 506 0
DWIDTH 5 0
BBX 6 9 -1 0
BITMAP
001B57
0006B0
000000
03FFFF
0000A5
000960
008700
078000
2FFFF4
ENDCHAR
STARTCHAR two.pnum
ENCODING -1
SWIDTH 549 0
DWIDTH 6 0
BBX 6 7 0 0
BITMAP
04DE90
1D31D1
1201C0
002B20
03B200
4B1000
DFFFA0
ENDCHAR
STARTCHAR three.pnum
ENCODING -1
SWIDTH 549 0
DWIDTH 6 0
BBX 6 7 0 0
BITMAP
04DE70
0D31D1
0003C0
00FE20
000690
960880
2CEB10
ENDCHAR
STARTCHAR four.pnum
ENCODING -1
SWIDTH 549 0
DWIDTH 6 0
BBX 6 7 0 0
BITMAP
0005E0
002CB0
00B690
094760
580940
DFFFF1
000D00
ENDCHAR
STARTCHAR five.pnum
ENCODING -1
SWIDTH 549 0
DWIDTH 6 0
BBX 6 7 0 0
BITMAP
03FFF7
076000
0BDE50
0523D0
0000D0
5A17A0
0AEB20
ENDCHAR
STARTCHAR six.pnum
ENCODING -1
SWIDTH 559 0
DWIDTH 6 0
BBX 5 7 0 0
BITMAP
004CA0
04B300
0CCE50
2D33D0
4900D0
3C16A0
09EB20
ENDCHAR
STARTCHAR eight.pnum
ENCODING -1
SWIDTH 569 0
DWIDTH 6 0
BBX 6 7 0 0
BITMAP
02CEA0
0A61B4
0A41C2
06FF40
4A13B0
7815B0
2CFC20
ENDCHAR
STARTCHAR nine.pnum
ENCODING -1
SWIDTH 559 0
DWIDTH 6 0
BBX 6 7 0 0
BITMAP
04DE60
0D32E0
3A00C1
2D15D0
08EB90
004C20
0DB300
ENDCHAR
STARTCHAR zero.pnum
ENCODING -1
SWIDTH 569 0
DWIDTH 6 0
BBX 6 7 0 0
BITMAP
02BEA0
0B61B3
1D0094
3A00B2
5800D0
4A1790
0BEB10
ENDCHAR
STARTCHAR G_acutecomb.ccmp
ENCODING -1
SWIDTH 665 0
DWIDTH 7 0
BBX 7 10 0 0
BITMAP
0000B600
00049000
00000000
019EE700
09912D20
1D000100
4908FE00
59002C00
2D218A00
06EEB200
ENDCHAR
STARTCHAR g_acutecomb.ccmp
ENCODING -1
SWIDTH 549 0
DWIDTH 6 0
BBX 6 10 0 -2
BITMAP
000980
002B00
000000
08ECC2
4C23E0
8502B0
871990
2DEC60
412D20
7ED600
ENDCHAR
STARTCHAR N_gravecomb.ccmp
ENCODING -1
SWIDTH 696 0
DWIDTH 7 0
BBX 7 10 0 0
BITMAP
000B4000
00037000
00000000
08A003B0
0BE20580
0E690860
1C0D1B30
4A078D10
7701DD00
95008A00
ENDCHAR
STARTCHAR n_gravecomb.ccmp
ENCODING -1
SWIDTH 540 0
DWIDTH 5 0
BBX 5 8 0 0
BITMAP
00B400
003800
000000
1DBE60
3D34B0
6803A0
950670
B20940
ENDCHAR
STARTCHAR A_uni030F.ccmp
ENCODING -1
SWIDTH 637 0
DWIDTH 6 0
BBX 7 10 -1 0
BITMAP
001E9900
00068B00
00000000
0000C500
0005B800
000B1B00
00740B00
01EFFF30
08500760
2C000590
ENDCHAR
STARTCHAR a_uni030F.ccmp
ENCODING -1
SWIDTH 532 0
DWIDTH 5 0
BBX 5 8 0 0
BITMAP
0A9D00
02B920
000000
08EE40
1615A0
2BEF80
A71950
5EDC40
ENDCHAR
STARTCHAR E_uni030F.ccmp
ENCODING -1
SWIDTH 556 0
DWIDTH 6 0
BBX 6 10 0 0
BITMAP
04DB50
009880
000000
08FFFC
0B3000
0D0000
1FFFC0
4A0000
770000
9FFFB0
ENDCHAR
STARTCHAR e_uni030F.ccmp
ENCODING -1
SWIDTH 518 0
DWIDTH 5 0
BBX 5 8 0 0
BITMAP
0C9B00
03AB10
000000
06ED40
4C13B0
8FFFC0
770210
1BFB20
ENDCHAR
STARTCHAR I_uni030F.ccmp
ENCODING -1
SWIDTH 268 0
DWIDTH 3 0
BBX 4 10 0 0
BITMAP
D9B0
4AB1
0000
0760
0A30
0D10
1D00
3B00
6800
8500
ENDCHAR
STARTCHAR dotlessi_uni030F.ccmp
ENCODING -1
SWIDTH 244 0
DWIDTH 2 0
BBX 4 8 -1 0
BITMAP
4DB5
0988
0000
00D0
02B0
0590
0860
0A30
ENDCHAR
STARTCHAR O_uni030F.ccmp
ENCODING -1
SWIDTH 671 0
DWIDTH 7 0
BBX 7 10 0 0
BITMAP
00C9B000
004AB100
00000000
009EE600
09912D10
1D000A40
59000B30
58001D00
2D21A700
07EE8000
ENDCHAR
STARTCHAR o_uni030F.ccmp
ENCODING -1
SWIDTH 558 0
DWIDTH 6 0
BBX 6 8 0 0
BITMAP
0C9C00
03BA10
000000
07EE60
4C23E0
8500D1
7916B0
1BFB10
ENDCHAR
STARTCHAR R_uni030F.ccmp
ENCODING -1
SWIDTH 602 0
DWIDTH 6 0
BBX 6 10 0 0
BITMAP
05DC40
00A870
000000
09FFD4
0B304C
0D017A
2FFFB1
490770
7702C0
9400C3
ENDCHAR
STARTCHAR r_uni030F.ccmp
ENCODING -1
SWIDTH 333 0
DWIDTH 3 0
BBX 4 8 0 0
BITMAP
8AD1
1C84
0000
1DB7
3D20
6800
9500
B200
ENDCHAR
STARTCHAR U_uni030F.ccmp
ENCODING -1
SWIDTH 633 0
DWIDTH 6 0
BBX 7 10 0 0
BITMAP
01EA8000
0068A000
00000000
0A300950
0D100C20
1D000E00
3A002C00
68005900
5B12C400
0AED6000
ENDCHAR
STARTCHAR u_uni030F.ccmp
ENCODING -1
SWIDTH 539 0
DWIDTH 5 0
BBX 6 8 0 0
BITMAP
0B9C00
03BA10
000000
0D00C1
2A01D0
5804A0
781A80
3DED50
ENDCHAR
STARTCHAR Upsilon1_acutecomb.ccmp
ENCODING -1
SWIDTH 569 0
DWIDTH 6 0
BBX 8 8 -1 0
BITMAP
85000000
90D502D6
004B0A70
000D5B00
0009E200
00078000
00095000
000C2000
ENDCHAR
STARTCHAR B_dotbelowcomb.ccmp
ENCODING -1
SWIDTH 608 0
DWIDTH 6 0
BBX 6 9 0 -2
BITMAP
08FFD3
0B306A
0E0187
1FFFC0
4A00B4
7702D3
9FFD70
000000
038000
ENDCHAR
STARTCHAR b_dotbelowcomb.ccmp
ENCODING -1
SWIDTH 549 0
DWIDTH 6 0
BBX 5 10 0 -2
BITMAP
094000
0C2000
0E0000
2ECE60
4C22D0
7700D0
981790
BAEC10
000000
057000
ENDCHAR
STARTCHAR D_dotbelowcomb.ccmp
ENCODING -1
SWIDTH 641 0
DWIDTH 6 0
BBX 6 9 0 -2
BITMAP
08FFB1
0B307A
0E000E
1C001D
490059
7715D2
9FEB30
000000
038000
ENDCHAR
STARTCHAR d_dotbelowcomb.ccmp
ENCODING -1
SWIDTH 551 0
DWIDTH 6 0
BBX 6 10 0 -2
BITMAP
000067
000085
0000A3
08ECD0
4C12C0
8502A0
871880
2DEC50
000000
038000
ENDCHAR
STARTCHAR D_uniF6C3.ccmp
ENCODING -1
SWIDTH 641 0
DWIDTH 6 0
BBX 6 10 0 -3
BITMAP
08FFB1
0B307A
0E000E
1C001D
490059
7715D2
9FEB30
000000
039000
073000
ENDCHAR
STARTCHAR d_uniF6C3.ccmp
ENCODING -1
SWIDTH 551 0
DWIDTH 6 0
BBX 6 11 0 -3
BITMAP
000067
000085
0000A3
08ECD0
4C12C0
8502A0
871880
2DEC50
000000
039000
073000
ENDCHAR
STARTCHAR H_dotbelowcomb.ccmp
ENCODING -1
SWIDTH 696 0
DWIDTH 7 0
BBX 7 9 0 -2
BITMAP
085003B0
0B300580
0D000860
1FFFFF30
4A000D10
77001D00
94003A00
00000000
00B10000
ENDCHAR
STARTCHAR h_dotbelowcomb.ccmp
ENCODING -1
SWIDTH 539 0
DWIDTH 5 0
BBX 5 10 0 -2
BITMAP
094000
0C2000
0E0000
2EBE60
4D34B0
7803A0
950670
B20940
000000
057000
ENDCHAR
STARTCHAR K_acutecomb.ccmp
ENCODING -1
SWIDTH 612 0
DWIDTH 6 0
BBX 7 10 0 0
BITMAP
0002D200
00085000
00000000
08503C30
0B33C200
0D4C2000
1EE80000
4C1D2000
7705A000
9400B400
ENDCHAR
STARTCHAR k_acutecomb.ccmp
ENCODING -1
SWIDTH 496 0
DWIDTH 5 0
BBX 5 11 0 0
BITMAP
0005C0
000B20
000000
094000
0C2000
0E0000
2C0980
4AA600
7ED100
957800
B20C20
ENDCHAR
STARTCHAR K_dotbelowcomb.ccmp
ENCODING -1
SWIDTH 612 0
DWIDTH 6 0
BBX 7 9 0 -2
BITMAP
08503C30
0B33C200
0D4C2000
1EE80000
4C1D2000
7705A000
9400B400
00000000
00C00000
ENDCHAR
STARTCHAR k_dotbelowcomb.ccmp
ENCODING -1
SWIDTH 496 0
DWIDTH 5 0
BBX 5 10 0 -2
BITMAP
094000
0C2000
0E0000
2C0980
4AA600
7ED100
957800
B20C20
000000
083000
ENDCHAR
STARTCHAR L_dotbelowcomb.ccmp
ENCODING -1
SWIDTH 526 0
DWIDTH 5 0
BBX 5 9 0 -2
BITMAP
085000
0B3000
0D0000
1C0000
490000
770000
9FFF80
000000
039000
ENDCHAR
STARTCHAR l_dotbelowcomb.ccmp
ENCODING -1
SWIDTH 240 0
DWIDTH 2 0
BBX 3 10 0 -2
BITMAP
0850
0B20
0D00
1D00
3A00
5800
8500
A300
0000
B000
ENDCHAR
STARTCHAR M_dotbelowcomb.ccmp
ENCODING -1
SWIDTH 851 0
DWIDTH 9 0
BBX 9 9 0 -2
BITMAP
08C0002F50
0BD000AE20
0D9304AD00
1C670C4C00
4A2A685900
770DC17600
940B60A400
0000000000
000C000000
ENDCHAR
STARTCHAR m_dotbelowcomb.ccmp
ENCODING -1
SWIDTH 854 0
DWIDTH 9 0
BBX 8 7 0 -2
BITMAP
1ECE8BE8
3D24E32D
6803A01C
95067049
C2094076
00000000
000C0000
ENDCHAR
STARTCHAR N_dotbelowcomb.ccmp
ENCODING -1
SWIDTH 696 0
DWIDTH 7 0
BBX 7 9 0 -2
BITMAP
08A003B0
0BE20580
0E690860
1C0D1B30
4A078D10
7701DD00
95008A00
00000000
00A10000
ENDCHAR
STARTCHAR n_dotbelowcomb.ccmp
ENCODING -1
SWIDTH 540 0
DWIDTH 5 0
BBX 5 7 0 -2
BITMAP
1DBE60
3D34B0
6803A0
950670
B20940
000000
075000
ENDCHAR
STARTCHAR O_tildecomb_acutecomb.ccmp
ENCODING -1
SWIDTH 671 0
DWIDTH 7 0
BBX 7 13 0 0
BITMAP
00006600
0000A000
00000000
000B4700
0016B400
00000000
009EE600
09912D10
1D000A40
59000B30
58001D00
2D21A700
07EE8000
ENDCHAR
STARTCHAR P_acutecomb.ccmp
ENCODING -1
SWIDTH 616 0
DWIDTH 6 0
BBX 7 10 0 0
BITMAP
0002D200
00085000
00000000
08FFE700
0B302E10
0D004D00
1FFFC400
49000000
77000000
94000000
ENDCHAR
STARTCHAR p_acutecomb.ccmp
ENCODING -1
SWIDTH 549 0
DWIDTH 6 0
BBX 7 10 -1 -2
BITMAP
00004C10
0000A300
00000000
01DCE600
03C22D00
06700D00
09718900
0BAEC100
0D000000
2C000000
ENDCHAR
STARTCHAR R_dotbelowcomb.ccmp
ENCODING -1
SWIDTH 602 0
DWIDTH 6 0
BBX 6 9 0 -2
BITMAP
09FFD4
0B304C
0D017A
2FFFB1
490770
7702C0
9400C3
000000
038000
ENDCHAR
STARTCHAR r_dotbelowcomb.ccmp
ENCODING -1
SWIDTH 333 0
DWIDTH 3 0
BBX 4 7 0 -2
BITMAP
1DB7
3D20
6800
9500
B200
0000
B000
ENDCHAR
STARTCHAR S_dotbelowcomb.ccmp
ENCODING -1
SWIDTH 580 0
DWIDTH 6 0
BBX 6 9 0 -2
BITMAP
03CEC2
0D406A
0D5002
02BE60
2002D2
A603D1
2BFD50
000000
039000
ENDCHAR
STARTCHAR s_dotbelowcomb.ccmp
ENCODING -1
SWIDTH 504 0
DWIDTH 5 0
BBX 5 7 0 -2
BITMAP
09ED30
2D4440
07CD10
631B40
4DE900
000000
065000
ENDCHAR
STARTCHAR T_dotbelowcomb.ccmp
ENCODING -1
SWIDTH 583 0
DWIDTH 6 0
BBX 7 9 0 -2
BITMAP
2FFFFF30
001D0000
004A0000
00670000
00950000
00C20000
00D00000
00000000
03800000
ENDCHAR
STARTCHAR t_dotbelowcomb.ccmp
ENCODING -1
SWIDTH 321 0
DWIDTH 3 0
BBX 4 8 0 -2
BITMAP
0860
9FF2
0C10
1C00
3A00
2E50
0000
1B00
ENDCHAR
STARTCHAR U_tildecomb_acutecomb.ccmp
ENCODING -1
SWIDTH 633 0
DWIDTH 6 0
BBX 7 13 0 0
BITMAP
00009300
00019000
00000000
001C4500
0044C200
00000000
0A300950
0D100C20
1D000E00
3A002C00
68005900
5B12C400
0AED6000
ENDCHAR
STARTCHAR V_tildecomb.ccmp
ENCODING -1
SWIDTH 622 0
DWIDTH 6 0
BBX 7 10 0 0
BITMAP
006C2900
00A3D400
00000000
2D000870
0D101D00
0A309600
0762C000
04995000
01CC0000
00D50000
ENDCHAR
STARTCHAR v_tildecomb.ccmp
ENCODING -1
SWIDTH 474 0
DWIDTH 5 0
BBX 5 8 0 0
BITMAP
05C290
0A3D40
000000
5704A0
2A0B20
0C4900
0BB100
088000
ENDCHAR
STARTCHAR V_dotbelowcomb.ccmp
ENCODING -1
SWIDTH 622 0
DWIDTH 6 0
BBX 7 9 0 -2
BITMAP
2D000870
0D101D00
0A309600
0762C000
04995000
01CC0000
00D50000
00000000
00B00000
ENDCHAR
STARTCHAR v_dotbelowcomb.ccmp
ENCODING -1
SWIDTH 474 0
DWIDTH 5 0
BBX 5 7 0 -2
BITMAP
5704A0
2A0B20
0C4900
0BB100
088000
000000
0A2000
ENDCHAR
STARTCHAR W_dotbelowcomb.ccmp
ENCODING -1
SWIDTH 865 0
DWIDTH 9 0
BBX 8 9 1 -2
BITMAP
D009701D
D01D8077
D077A0C1
C2C0B3A0
A870B940
9D10BC00
89009700
00000000
00A10000
ENDCHAR
STARTCHAR w_dotbelowcomb.ccmp
ENCODING -1
SWIDTH 733 0
DWIDTH 7 0
BBX 8 7 0 -2
BITMAP
580970A4
392C92B0
1A93A840
0DA0BB00
0D30B500
00000000
00740000
ENDCHAR
STARTCHAR Z_dotbelowcomb.ccmp
ENCODING -1
SWIDTH 585 0
DWIDTH 6 0
BBX 7 9 -1 -2
BITMAP
00DFFFE0
00000A50
0000A600
00097000
00880000
07900000
1FFFFF00
00000000
00380000
ENDCHAR
STARTCHAR z_dotbelowcomb.ccmp
ENCODING -1
SWIDTH 485 0
DWIDTH 5 0
BBX 5 7 0 -2
BITMAP
3FFFA0
003B20
04B100
6A0000
FFFF10
000000
092000
ENDCHAR
STARTCHAR Alphatonos.c2sc
ENCODING -1
SWIDTH 552 0
DWIDTH 6 0
BBX 6 7 -1 0
BITMAP
00A300
0097B0
001CC0
0086B2
02D085
09FFF8
3C102B
ENDCHAR
STARTCHAR Epsilontonos.c2sc
ENCODING -1
SWIDTH 506 0
DWIDTH 5 0
BBX 7 7 -1 0
BITMAP
1B000000
45AFFF20
00C10000
00FFF500
02A00000
05800000
07FFF500
ENDCHAR
STARTCHAR Etatonos.c2sc
ENCODING -1
SWIDTH 626 0
DWIDTH 6 0
BBX 7 7 -1 0
BITMAP
0C000000
27A300D0
00C003C0
00FFFFA0
02A00770
05800950
07600B20
ENDCHAR
STARTCHAR Iotatonos.c2sc
ENCODING -1
SWIDTH 265 0
DWIDTH 3 0
BBX 4 7 -1 0
BITMAP
0C00
2794
00B2
00D0
01C0
04A0
0670
ENDCHAR
STARTCHAR Omicrontonos.c2sc
ENCODING -1
SWIDTH 583 0
DWIDTH 6 0
BBX 6 7 0 0
BITMAP
840000
94CE90
1D31C3
680085
8600A3
6A15C0
0AEC20
ENDCHAR
STARTCHAR Upsilontonos.c2sc
ENCODING -1
SWIDTH 539 0
DWIDTH 5 0
BBX 7 7 -1 0
BITMAP
76000000
81D00970
00944B00
004AC200
000D6000
000D0000
001C0000
ENDCHAR
STARTCHAR Omegatonos.c2sc
ENCODING -1
SWIDTH 609 0
DWIDTH 6 0
BBX 6 7 0 0
BITMAP
760000
84CEA0
1D41A6
590067
670084
2C14A0
CF6FF1
ENDCHAR
STARTCHAR Alpha.c2sc
ENCODING -1
SWIDTH 552 0
DWIDTH 6 0
BBX 6 6 -1 0
BITMAP
0007B0
001CC0
0086B2
02D085
09FFF8
3C102B
ENDCHAR
STARTCHAR Beta.c2sc
ENCODING -1
SWIDTH 527 0
DWIDTH 5 0
BBX 5 6 0 0
BITMAP
0EFE60
2B04B0
4FFE20
760770
940960
CFFA10
ENDCHAR
STARTCHAR Epsilon.c2sc
ENCODING -1
SWIDTH 477 0
DWIDTH 5 0
BBX 5 6 0 0
BITMAP
0EFFD0
2B0000
4FFF10
760000
940000
CFFF00
ENDCHAR
STARTCHAR Zeta.c2sc
ENCODING -1
SWIDTH 506 0
DWIDTH 5 0
BBX 6 6 -1 0
BITMAP
03FFFF
0000A5
000960
008700
078000
2FFFF4
ENDCHAR
STARTCHAR Eta.c2sc
ENCODING -1
SWIDTH 597 0
DWIDTH 6 0
BBX 6 6 0 0
BITMAP
0D004A
2A0078
4FFFF5
7600C3
9400E0
C201D0
ENDCHAR
STARTCHAR Iota.c2sc
ENCODING -1
SWIDTH 235 0
DWIDTH 2 0
BBX 2 6 0 0
BITMAP
0D
1C
3A
68
85
B3
ENDCHAR
STARTCHAR Kappa.c2sc
ENCODING -1
SWIDTH 529 0
DWIDTH 5 0
BBX 6 6 0 0
BITMAP
0D02C3
2B3D30
4CE300
7DB400
942C00
C20970
ENDCHAR
STARTCHAR Mu.c2sc
ENCODING -1
SWIDTH 733 0
DWIDTH 7 0
BBX 8 6 0 0
BITMAP
0E5005F1
2D900CD0
48C078B0
76B2C580
948C5860
C14B0A30
ENDCHAR
STARTCHAR Nu.c2sc
ENCODING -1
SWIDTH 597 0
DWIDTH 6 0
BBX 6 6 0 0
BITMAP
0E303A
2EA068
49B285
7749B3
940CE0
C205D0
ENDCHAR
STARTCHAR Omicron.c2sc
ENCODING -1
SWIDTH 578 0
DWIDTH 6 0
BBX 6 6 0 0
BITMAP
04DE80
2D31C2
670094
8500B2
6A15C0
1BEB20
ENDCHAR
STARTCHAR Rho.c2sc
ENCODING -1
SWIDTH 533 0
DWIDTH 5 0
BBX 6 6 0 0
BITMAP
0EFE80
2C01D1
4902D1
7FFD50
950000
C20000
ENDCHAR
STARTCHAR Tau.c2sc
ENCODING -1
SWIDTH 507 0
DWIDTH 5 0
BBX 6 6 0 0
BITMAP
6FFFF4
00A300
00C100
00D000
03A000
058000
ENDCHAR
STARTCHAR Upsilon.c2sc
ENCODING -1
SWIDTH 510 0
DWIDTH 5 0
BBX 6 6 0 0
BITMAP
4A00C3
0D1870
088B00
03E200
03A000
058000
ENDCHAR
STARTCHAR Chi.c2sc
ENCODING -1
SWIDTH 529 0
DWIDTH 5 0
BBX 7 6 -1 0
BITMAP
01D01D30
0096B500
002E8000
005E5000
03C3C000
1D30A500
ENDCHAR
STARTCHAR Iotadieresis.c2sc
ENCODING -1
SWIDTH 235 0
DWIDTH 2 0
BBX 4 8 0 0
BITMAP
8384
0000
0D00
1C00
3A00
6800
8500
B300
ENDCHAR
STARTCHAR Upsilondieresis.c2sc
ENCODING -1
SWIDTH 510 0
DWIDTH 5 0
BBX 6 8 0 0
BITMAP
038390
000000
4A00C3
0D1870
088B00
03E200
03A000
058000
ENDCHAR
STARTCHAR uni0401.c2sc
ENCODING -1
SWIDTH 477 0
DWIDTH 5 0
BBX 5 8 0 0
BITMAP
039390
000000
0EFFD0
2B0000
4FFF10
760000
940000
CFFF00
ENDCHAR
STARTCHAR uni0403.c2sc
ENCODING -1
SWIDTH 451 0
DWIDTH 5 0
BBX 5 9 0 0
BITMAP
000A70
003A00
000000
0EFFA0
2C0000
4A0000
770000
940000
C20000
ENDCHAR
STARTCHAR uni0405.c2sc
ENCODING -1
SWIDTH 504 0
DWIDTH 5 0
BBX 5 6 0 0
BITMAP
08ED40
3C13C0
1DA400
116D40
C31A50
4DEA00
ENDCHAR
STARTCHAR uni0406.c2sc
ENCODING -1
SWIDTH 235 0
DWIDTH 2 0
BBX 2 6 0 0
BITMAP
0D
1C
3A
68
85
B3
ENDCHAR
STARTCHAR uni0407.c2sc
ENCODING -1
SWIDTH 235 0
DWIDTH 2 0
BBX 4 8 0 0
BITMAP
8384
0000
0D00
1C00
3A00
6800
8500
B300
ENDCHAR
STARTCHAR uni0408.c2sc
ENCODING -1
SWIDTH 466 0
DWIDTH 5 0
BBX 5 6 0 0
BITMAP
000760
000A40
000C10
000E00
D16B00
6ED300
ENDCHAR
STARTCHAR uni040C.c2sc
ENCODING -1
SWIDTH 529 0
DWIDTH 5 0
BBX 6 9 0 0
BITMAP
000B60
003900
000000
0D02C3
2B3D30
4CE300
7DB400
942C00
C20970
ENDCHAR
STARTCHAR uni040E.c2sc
ENCODING -1
SWIDTH 504 0
DWIDTH 5 0
BBX 6 9 0 0
BITMAP
01B490
00AE30
000000
3B00D2
0E0780
0B4C10
07D600
06C000
8D3000
ENDCHAR
STARTCHAR uni0410.c2sc
ENCODING -1
SWIDTH 552 0
DWIDTH 6 0
BBX 6 6 -1 0
BITMAP
0007B0
001CC0
0086B2
02D085
09FFF8
3C102B
ENDCHAR
STARTCHAR uni0412.c2sc
ENCODING -1
SWIDTH 527 0
DWIDTH 5 0
BBX 5 6 0 0
BITMAP
0EFE60
2B04B0
4FFE20
760770
940960
CFFA10
ENDCHAR
STARTCHAR uni0413.c2sc
ENCODING -1
SWIDTH 451 0
DWIDTH 5 0
BBX 5 6 0 0
BITMAP
0EFFA0
2C0000
4A0000
770000
940000
C20000
ENDCHAR
STARTCHAR uni0415.c2sc
ENCODING -1
SWIDTH 477 0
DWIDTH 5 0
BBX 5 6 0 0
BITMAP
0EFFD0
2B0000
4FFF10
760000
940000
CFFF00
ENDCHAR
STARTCHAR uni0419.c2sc
ENCODING -1
SWIDTH 601 0
DWIDTH 6 0
BBX 6 9 0 0
BITMAP
0093B1
004E80
000000
0D007B
2B04D8
492A86
77B1A3
9D30C1
B600D0
ENDCHAR
STARTCHAR uni041C.c2sc
ENCODING -1
SWIDTH 733 0
DWIDTH 7 0
BBX 8 6 0 0
BITMAP
0E5005F1
2D900CD0
48C078B0
76B2C580
948C5860
C14B0A30
ENDCHAR
STARTCHAR uni041D.c2sc
ENCODING -1
SWIDTH 597 0
DWIDTH 6 0
BBX 6 6 0 0
BITMAP
0D004A
2A0078
4FFFF5
7600C3
9400E0
C201D0
ENDCHAR
STARTCHAR uni041E.c2sc
ENCODING -1
SWIDTH 578 0
DWIDTH 6 0
BBX 6 6 0 0
BITMAP
04DE80
2D31C2
670094
8500B2
6A15C0
1BEB20
ENDCHAR
STARTCHAR uni041F.c2sc
ENCODING -1
SWIDTH 587 0
DWIDTH 6 0
BBX 6 6 0 0
BITMAP
0EFFF9
2C0076
4A0094
7700C1
9400D0
C202B0
ENDCHAR
STARTCHAR uni0420.c2sc
ENCODING -1
SWIDTH 533 0
DWIDTH 5 0
BBX 6 6 0 0
BITMAP
0EFE80
2C01D1
4902D1
7FFD50
950000
C20000
ENDCHAR
STARTCHAR uni0421.c2sc
ENCODING -1
SWIDTH 548 0
DWIDTH 5 0
BBX 6 6 0 0
BITMAP
04DE80
2D31C2
670000
850000
7805A0
1BEB20
ENDCHAR
STARTCHAR uni0422.c2sc
ENCODING -1
SWIDTH 507 0
DWIDTH 5 0
BBX 6 6 0 0
BITMAP
6FFFF4
00A300
00C100
00D000
03A000
058000
ENDCHAR
STARTCHAR uni0425.c2sc
ENCODING -1
SWIDTH 529 0
DWIDTH 5 0
BBX 7 6 -1 0
BITMAP
01D01D30
0096B500
002E8000
005E5000
03C3C000
1D30A500
ENDCHAR
STARTCHAR uni0498.c2sc
ENCODING -1
SWIDTH 519 0
DWIDTH 5 0
BBX 5 8 0 -2
BITMAP
09EE60
2715A0
03FD10
000940
811B50
7EE900
094000
0C1000
ENDCHAR
STARTCHAR uni04A2.c2sc
ENCODING -1
SWIDTH 597 0
DWIDTH 6 0
BBX 6 8 0 -2
BITMAP
0D004A
2A0077
4FFFF5
7600C2
9400D0
C201F9
000077
000094
ENDCHAR
STARTCHAR uni04AA.c2sc
ENCODING -1
SWIDTH 548 0
DWIDTH 5 0
BBX 6 8 0 -2
BITMAP
04DE90
1D31B3
680000
850000
6915A0
1BFC20
03A000
068000
ENDCHAR
STARTCHAR uni04AE.c2sc
ENCODING -1
SWIDTH 510 0
DWIDTH 5 0
BBX 6 6 0 0
BITMAP
4A00C3
0D1870
088B00
03E200
03A000
058000
ENDCHAR
STARTCHAR uni04BE.c2sc
ENCODING -1
SWIDTH 703 0
DWIDTH 7 0
BBX 7 8 0 -2
BITMAP
001BEB10
10B71970
A5C00490
3EFFFF90
05A11200
00AFF500
000D1000
000D0000
ENDCHAR
STARTCHAR uni04E2.c2sc
ENCODING -1
SWIDTH 601 0
DWIDTH 6 0
BBX 6 8 0 0
BITMAP
00EFF4
000000
0D007B
2B04D8
492A86
77B1A3
9D30C1
B600D0
ENDCHAR
STARTCHAR uni04EE.c2sc
ENCODING -1
SWIDTH 504 0
DWIDTH 5 0
BBX 6 8 0 0
BITMAP
06FFC0
000000
3B00D2
0E0780
0B4C10
07D600
06C000
8D3000
ENDCHAR
STARTCHAR uni0424.c2sc
ENCODING -1
SWIDTH 660 0
DWIDTH 7 0
BBX 7 6 0 0
BITMAP
000B3000
06DFE600
5B2D2D10
78594D00
1BFFB300
00950000
ENDCHAR
STARTCHAR IJ.c2sc
ENCODING -1
SWIDTH 702 0
DWIDTH 7 0
BBX 7 6 0 0
BITMAP
0D0002C0
1C000490
3A000770
68000940
85861E10
B32CE700
ENDCHAR
STARTCHAR AEacute.c2sc
ENCODING -1
SWIDTH 759 0
DWIDTH 8 0
BBX 9 8 -1 0
BITMAP
000001D300
0000076000
0000BFFF60
0006AA0000
002D5FFB00
00C5660000
07FFF40000
3D20AFFC00
ENDCHAR
STARTCHAR Oslashacute.c2sc
ENCODING -1
SWIDTH 578 0
DWIDTH 6 0
BBX 6 9 0 -1
BITMAP
0005C0
000B21
04DEC4
2D35E3
772984
95A1B2
7C26C0
7CFB20
200000
ENDCHAR
STARTCHAR uni0218.c2sc
ENCODING -1
SWIDTH 504 0
DWIDTH 5 0
BBX 5 9 0 -3
BITMAP
08ED40
3C13C0
1DA400
116D40
C31A50
4DEA00
000000
085000
0A1000
ENDCHAR
STARTCHAR Wgrave.c2sc
ENCODING -1
SWIDTH 742 0
DWIDTH 7 0
BBX 8 8 0 0
BITMAP
000A5000
00038000
3906A068
290BA0B2
1A47A2A0
0BA1A840
0C90AB00
0D309700
ENDCHAR
STARTCHAR Wacute.c2sc
ENCODING -1
SWIDTH 742 0
DWIDTH 7 0
BBX 8 8 0 0
BITMAP
00007A00
0001B100
3906A068
290BA0B2
1A47A2A0
0BA1A840
0C90AB00
0D309700
ENDCHAR
STARTCHAR Wdieresis.c2sc
ENCODING -1
SWIDTH 742 0
DWIDTH 7 0
BBX 8 7 0 0
BITMAP
001B0B00
3906A068
290BA0B2
1A47A2A0
0BA1A840
0C90AB00
0D309700
ENDCHAR
STARTCHAR Ygrave.c2sc
ENCODING -1
SWIDTH 510 0
DWIDTH 5 0
BBX 6 8 0 0
BITMAP
00D200
006500
4A00C3
0D1870
088B00
03E200
03A000
058000
ENDCHAR
STARTCHAR Aogonek.locl
ENCODING -1
SWIDTH 637 0
DWIDTH 6 0
BBX 7 9 -1 -2
BITMAP
0000C500
0005B800
000B1B00
00740B00
01EFFF30
08500760
2C060590
00750000
007D0000
ENDCHAR
STARTCHAR aogonek.locl
ENCODING -1
SWIDTH 532 0
DWIDTH 5 0
BBX 5 7 0 -2
BITMAP
08EE40
1615A0
2BEF80
A71950
5FDC40
570000
5E1000
ENDCHAR
STARTCHAR Eogonek.locl
ENCODING -1
SWIDTH 556 0
DWIDTH 6 0
BBX 6 9 0 -2
BITMAP
08FFFC
0B3000
0D0000
1FFFC0
4A0000
770000
9FFFB0
0B1000
0B8000
ENDCHAR
STARTCHAR eogonek.locl
ENCODING -1
SWIDTH 518 0
DWIDTH 5 0
BBX 5 7 0 -2
BITMAP
06ED40
4C13B0
8FFFC0
770210
1EFB20
1B1000
0E5000
ENDCHAR
STARTCHAR Aogonek.c2sc.locl
ENCODING -1
SWIDTH 552 0
DWIDTH 6 0
BBX 6 8 -1 -2
BITMAP
0007B0
001CC0
0086B2
02D085
09FFF8
3C342B
00B100
00D600
ENDCHAR
STARTCHAR Eogonek.c2sc.locl
ENCODING -1
SWIDTH 477 0
DWIDTH 5 0
BBX 5 8 0 -2
BITMAP
0EFFD0
2B0000
4FFF10
760000
940000
CFFF00
390000
2E3000
ENDCHAR
STARTCHAR glyph1293
ENCODING -1
SWIDTH 244 0
DWIDTH 2 0
BBX 2 7 0 -2
BITMAP
0D
2B
59
86
A3
00
B0
ENDCHAR
ENDFONT
